<svg xmlns="http://www.w3.org/2000/svg" width="23.442" height="37.453" viewBox="0 0 23.442 37.453">
  <g id="surface1" transform="translate(-19.586 44.039) rotate(-90)">
    <path id="Path_29758" data-name="Path 29758" d="M25.313,19.586,6.586,38.313,11.3,43.028,25.313,29.017,39.324,43.028l4.716-4.716Zm0,1.585L42.454,38.313l-3.131,3.131L25.313,27.432,11.3,41.443,8.171,38.313Zm0,1.449a.56.56,0,1,0,.56.56A.562.562,0,0,0,25.313,22.62ZM23.631,24.3a.56.56,0,1,0,.56.56A.562.562,0,0,0,23.631,24.3ZM21.95,25.983a.56.56,0,1,0,.56.56A.562.562,0,0,0,21.95,25.983Zm5.6,1.121a.56.56,0,1,0,.56.56A.562.562,0,0,0,27.554,27.1Zm-7.286.56a.56.56,0,1,0,.56.56A.562.562,0,0,0,20.269,27.664Zm8.967,1.121a.56.56,0,1,0,.56.56A.562.562,0,0,0,29.236,28.785Zm-10.648.56a.56.56,0,1,0,.56.56A.562.562,0,0,0,18.587,29.345Zm12.33,1.121a.56.56,0,1,0,.56.56A.562.562,0,0,0,30.917,30.466Zm-14.011.56a.56.56,0,1,0,.56.56A.562.562,0,0,0,16.906,31.027ZM32.6,32.148a.56.56,0,1,0,.56.56A.562.562,0,0,0,32.6,32.148Zm-17.374.56a.56.56,0,1,0,.56.56A.562.562,0,0,0,15.225,32.708ZM34.28,33.829a.56.56,0,1,0,.56.56A.562.562,0,0,0,34.28,33.829Zm-20.736.56a.56.56,0,1,0,.56.56A.562.562,0,0,0,13.543,34.389ZM35.961,35.51a.56.56,0,1,0,.56.56A.562.562,0,0,0,35.961,35.51Zm-24.1.56a.56.56,0,1,0,.56.56A.562.562,0,0,0,11.862,36.071Zm25.78,1.121a.56.56,0,1,0,.56.56A.562.562,0,0,0,37.642,37.192Zm-27.462.56a.56.56,0,1,0,.56.56A.562.562,0,0,0,10.181,37.752Zm29.143,1.121a.56.56,0,1,0,.56.56A.562.562,0,0,0,39.324,38.873Z" fill="#84e6b8"/>
  </g>
</svg>
