<svg xmlns="http://www.w3.org/2000/svg" width="189.03" height="191.584" viewBox="0 0 189.03 191.584">
  <g id="Group_7349" data-name="Group 7349" transform="translate(-335 35)">
    <path id="Path_30013" data-name="Path 30013" d="M456.336-35a21.736,21.736,0,0,0-21.713,21.713A21.721,21.721,0,0,0,446.668,6.122l-6.447,18.52a38.037,38.037,0,0,0-33.336,8.621l-28.39-28.39a22.869,22.869,0,0,0,5.04-14.328,23.015,23.015,0,0,0-22.99-22.99,23.015,23.015,0,0,0-22.99,22.99,23.015,23.015,0,0,0,22.99,22.99,22.846,22.846,0,0,0,14.338-5.05l28.39,28.4a38.092,38.092,0,0,0-4.641,43.845L377.389,98.35a24.106,24.106,0,1,0,2.994,4.161l21.074-17.493a38.09,38.09,0,0,0,46.458,11.9l9.112,18a22.689,22.689,0,1,0,4.46-2.516L452.415,94.48a38.346,38.346,0,0,0,17.171-24.648l-.008.14,11.115,1.806c-.038.588-.089,1.188-.089,1.786a21.778,21.778,0,1,0,1.109-6.795L470.4,64.923l-.728,4.422A38.12,38.12,0,0,0,445.13,26.1l6.338-18.241a21.686,21.686,0,0,0,4.869.57,21.736,21.736,0,0,0,21.713-21.713A21.737,21.737,0,0,0,456.336-35Zm0,5.109a16.617,16.617,0,0,1,16.6,16.6,16.617,16.617,0,0,1-16.6,16.6,16.617,16.617,0,0,1-16.6-16.6A16.617,16.617,0,0,1,456.336-29.891Zm-95.792,2.554A17.9,17.9,0,0,1,378.426-9.455,17.9,17.9,0,0,1,360.544,8.426,17.9,17.9,0,0,1,342.663-9.455,17.9,17.9,0,0,1,360.544-27.337Zm71.525,56.2a33.208,33.208,0,1,1-33.208,33.208A33.246,33.246,0,0,1,432.069,28.861Zm70.247,28.1a16.6,16.6,0,1,1-16.6,16.6A16.617,16.617,0,0,1,502.317,56.96ZM359.267,95.277a19.158,19.158,0,1,1-19.158,19.158A19.175,19.175,0,0,1,359.267,95.277Zm111.119,20.436A17.881,17.881,0,1,1,452.5,133.594,17.9,17.9,0,0,1,470.386,115.713Z" fill="#a4b6c1"/>
    <path id="Path_30014" data-name="Path 30014" d="M390.1-7.5A28.129,28.129,0,0,0,362,20.6a29.875,29.875,0,0,0,.278,4.01,1.286,1.286,0,0,0,1.267,1.1c.061,0,.12-.01.181-.01a1.282,1.282,0,0,0,1.088-1.446,25.916,25.916,0,0,1-.261-3.653A25.567,25.567,0,0,1,390.1-4.946c.409,0,.817.01,1.218.031a1.286,1.286,0,0,0,1.336-1.218,1.27,1.27,0,0,0-1.218-1.326C391-7.49,390.549-7.5,390.1-7.5Z" transform="translate(41.97 42.747)" fill="#143559"/>
    <path id="Path_30015" data-name="Path 30015" d="M383.764-.5a1.309,1.309,0,0,0-.511.069,1.279,1.279,0,0,0-.777,1.637,24.77,24.77,0,0,1,.728,2.434,1.268,1.268,0,0,0,1.236.968.961.961,0,0,0,.3-.041,1.286,1.286,0,0,0,.948-1.545c-.227-.909-.5-1.8-.8-2.675A1.289,1.289,0,0,0,383.764-.5Z" transform="translate(73.682 53.627)" fill="#143559"/>
    <path id="Path_30016" data-name="Path 30016" d="M384.354,2.5a1.288,1.288,0,0,0-1.218,1.336c.02.411.031.81.031,1.218a26.035,26.035,0,0,1-.26,3.653,1.282,1.282,0,0,0,1.088,1.446c.061,0,.12.01.181.01a1.28,1.28,0,0,0,1.267-1.1,29.993,29.993,0,0,0,.279-4.01c0-.45-.01-.9-.031-1.336A1.249,1.249,0,0,0,384.354,2.5Z" transform="translate(74.447 58.289)" fill="#143559"/>
    <path id="Path_30017" data-name="Path 30017" d="M411.826,6.5a1.257,1.257,0,0,0-1.127.741c-3.6,8.915-13.283,14.905-24.1,14.905a26.874,26.874,0,0,1-20.065-8.514,1.411,1.411,0,0,0-1.8-.181,1.023,1.023,0,0,0-.209,1.571,29.6,29.6,0,0,0,22.073,9.36c11.894,0,22.54-6.583,26.5-16.389a1.086,1.086,0,0,0-.779-1.43A1.362,1.362,0,0,0,411.826,6.5Z" transform="translate(45.468 64.508)" fill="#143559"/>
    <path id="Path_30018" data-name="Path 30018" d="M352.894-30.393a12.818,12.818,0,0,0-12.052,8.511,1.287,1.287,0,0,0,.787,1.635,1.276,1.276,0,0,0,1.627-.777,10.24,10.24,0,0,1,9.638-6.815,10.225,10.225,0,0,1,10.218,10.218,10.312,10.312,0,0,1-.577,3.4,1.276,1.276,0,0,0,.777,1.635,1.231,1.231,0,0,0,.429.072,1.273,1.273,0,0,0,1.2-.848,12.764,12.764,0,0,0,.728-4.261A12.784,12.784,0,0,0,352.894-30.393Z" transform="translate(8.971 7.161)" fill="#143559"/>
    <path id="Path_30019" data-name="Path 30019" d="M352.87-22.385a1.267,1.267,0,0,0-.927.268,10.192,10.192,0,0,1-5.288,2.215,1.279,1.279,0,0,0-1.129,1.408,1.267,1.267,0,0,0,1.267,1.137.848.848,0,0,0,.14-.008,12.613,12.613,0,0,0,6.606-2.756,1.272,1.272,0,0,0,.2-1.8A1.261,1.261,0,0,0,352.87-22.385Z" transform="translate(16.349 19.599)" fill="#143559"/>
    <path id="Path_30020" data-name="Path 30020" d="M389.182,26a1.277,1.277,0,0,0,0,2.554A10.224,10.224,0,0,1,396,31.16a1.281,1.281,0,0,0,1.8-.1,1.29,1.29,0,0,0-.1-1.814A12.8,12.8,0,0,0,389.182,26Z" transform="translate(82.238 94.822)" fill="#143559"/>
    <path id="Path_30021" data-name="Path 30021" d="M393.5,29a1.222,1.222,0,0,0-.5.069,1.292,1.292,0,0,0-.789,1.637,10.112,10.112,0,0,1,.59,3.4,10.461,10.461,0,0,1-.061,1.137,1.276,1.276,0,0,0,1.129,1.408.628.628,0,0,0,.138.01,1.265,1.265,0,0,0,1.267-1.137,10.884,10.884,0,0,0,.082-1.418,12.589,12.589,0,0,0-.731-4.261A1.278,1.278,0,0,0,393.5,29Z" transform="translate(88.831 99.483)" fill="#143559"/>
    <path id="Path_30022" data-name="Path 30022" d="M384.682,30.5a1.273,1.273,0,0,0-1.277,1.277A12.772,12.772,0,0,0,404.2,41.717a1.279,1.279,0,0,0-1.6-2,10.214,10.214,0,0,1-16.642-7.942A1.274,1.274,0,0,0,384.682,30.5Z" transform="translate(75.243 101.817)" fill="#143559"/>
  </g>
</svg>
