<svg xmlns="http://www.w3.org/2000/svg" width="168" height="168" viewBox="0 0 168 168">
  <g id="Group_15646" data-name="Group 15646" transform="translate(-1584 -10885)">
    <g id="Path_33434" data-name="Path 33434" transform="translate(1584 10885)" fill="#fff">
      <path d="M 84 167.5 C 78.33431243896484 167.5 72.67230987548828 166.9292297363281 67.17131042480469 165.8035583496094 C 61.81035232543945 164.7065582275391 56.53716659545898 163.0696716308594 51.49818801879883 160.9383544921875 C 46.55058288574219 158.845703125 41.77856063842773 156.2555236816406 37.3147087097168 153.2398071289063 C 32.89312362670898 150.2526397705078 28.73525047302246 146.8220825195313 24.95658302307129 143.0434112548828 C 21.17791748046875 139.2647552490234 17.74735450744629 135.1068725585938 14.76018714904785 130.6852874755859 C 11.74447917938232 126.221435546875 9.154292106628418 121.4494171142578 7.061645984649658 116.5018157958984 C 4.930333137512207 111.4628295898438 3.293437480926514 106.1896438598633 2.19643759727478 100.8286895751953 C 1.070770859718323 95.32769012451172 0.5 89.66568756103516 0.5 84 C 0.5 78.33431243896484 1.070770859718323 72.67230987548828 2.19643759727478 67.17131042480469 C 3.293437480926514 61.81035232543945 4.930333137512207 56.53716659545898 7.061645984649658 51.49818801879883 C 9.154292106628418 46.55058288574219 11.74447917938232 41.77856063842773 14.76018714904785 37.3147087097168 C 17.74735450744629 32.89312362670898 21.17791748046875 28.73525047302246 24.95658302307129 24.95658302307129 C 28.73525047302246 21.17791748046875 32.89312362670898 17.74735450744629 37.3147087097168 14.76018714904785 C 41.77856063842773 11.74447917938232 46.55058288574219 9.154292106628418 51.49818801879883 7.061645984649658 C 56.53716659545898 4.930333137512207 61.81035232543945 3.293437480926514 67.17131042480469 2.19643759727478 C 72.67230987548828 1.070770859718323 78.33431243896484 0.5 84 0.5 C 89.66568756103516 0.5 95.32769012451172 1.070770859718323 100.8286895751953 2.19643759727478 C 106.1896438598633 3.293437480926514 111.4628295898438 4.930333137512207 116.5018157958984 7.061645984649658 C 121.4494171142578 9.154292106628418 126.221435546875 11.74447917938232 130.6852874755859 14.76018714904785 C 135.1068725585938 17.74735450744629 139.2647552490234 21.17791748046875 143.0434112548828 24.95658302307129 C 146.8220825195313 28.73525047302246 150.2526397705078 32.89312362670898 153.2398071289063 37.3147087097168 C 156.2555236816406 41.77856063842773 158.845703125 46.55058288574219 160.9383544921875 51.49818801879883 C 163.0696716308594 56.53716659545898 164.7065582275391 61.81035232543945 165.8035583496094 67.17131042480469 C 166.9292297363281 72.67230987548828 167.5 78.33431243896484 167.5 84 C 167.5 94.50872802734375 165.5421600341797 104.8332672119141 161.6808471679688 114.6868743896484 C 158.6890258789063 122.3227691650391 154.5649719238281 129.4735412597656 149.4232482910156 135.9405822753906 C 144.3236083984375 142.3546905517578 138.3189392089844 147.9769134521484 131.5760803222656 152.6510772705078 C 124.7382278442383 157.3910827636719 117.264289855957 161.0688171386719 109.3618545532227 163.5821075439453 C 101.1876068115234 166.1818389892578 92.65464782714844 167.5 84 167.5 Z" stroke="none"/>
      <path d="M 84 1 C 78.36788940429688 1 72.73963165283203 1.567352294921875 67.27154541015625 2.686279296875 C 61.94293212890625 3.77667236328125 56.70154571533203 5.403701782226563 51.69295501708984 7.522125244140625 C 46.77508544921875 9.602218627929688 42.03171539306641 12.17684936523438 37.5946044921875 15.17449951171875 C 33.19938659667969 18.14384460449219 29.06629943847656 21.553955078125 25.31013488769531 25.31013488769531 C 21.553955078125 29.06629943847656 18.14384460449219 33.19938659667969 15.17449951171875 37.5946044921875 C 12.17684936523438 42.03171539306641 9.602218627929688 46.77508544921875 7.522125244140625 51.69295501708984 C 5.403701782226563 56.70154571533203 3.77667236328125 61.94293212890625 2.686279296875 67.27154541015625 C 1.567352294921875 72.73963165283203 1 78.36788940429688 1 84 C 1 89.63208770751953 1.567352294921875 95.26036834716797 2.686279296875 100.7284545898438 C 3.77667236328125 106.0570678710938 5.403701782226563 111.2984619140625 7.522125244140625 116.3070449829102 C 9.602218627929688 121.2249145507813 12.17684936523438 125.9682769775391 15.17449951171875 130.4053955078125 C 18.14384460449219 134.8006134033203 21.553955078125 138.9337005615234 25.31013488769531 142.6898651123047 C 29.06629943847656 146.4460144042969 33.19938659667969 149.8561553955078 37.5946044921875 152.8255004882813 C 42.03171539306641 155.8231506347656 46.77508544921875 158.3977813720703 51.69295501708984 160.4778442382813 C 56.70154571533203 162.5962982177734 61.94293212890625 164.2233276367188 67.27154541015625 165.313720703125 C 72.73963165283203 166.4326477050781 78.36788940429688 167 84 167 C 92.6031494140625 167 101.0851287841797 165.6897430419922 109.2103042602539 163.1056365966797 C 117.0652618408203 160.6074371337891 124.4943466186523 156.9517822265625 131.2912445068359 152.2401580810547 C 137.9938659667969 147.5938720703125 143.9626770019531 142.0052185058594 149.0318756103516 135.6294097900391 C 154.1425628662109 129.2013854980469 158.2416687011719 122.0939559936523 161.21533203125 114.5044403076172 C 165.0537567138672 104.7092437744141 167 94.44606781005859 167 84 C 167 78.36788940429688 166.4326477050781 72.73963165283203 165.313720703125 67.27154541015625 C 164.2233276367188 61.94293212890625 162.5962982177734 56.70154571533203 160.4778442382813 51.69295501708984 C 158.3977813720703 46.77508544921875 155.8231506347656 42.03171539306641 152.8255004882813 37.5946044921875 C 149.8561553955078 33.19938659667969 146.4460144042969 29.06629943847656 142.6898651123047 25.31013488769531 C 138.9337005615234 21.553955078125 134.8006134033203 18.14384460449219 130.4053955078125 15.17449951171875 C 125.9682769775391 12.17684936523438 121.2249145507813 9.602218627929688 116.3070449829102 7.522125244140625 C 111.2984619140625 5.403701782226563 106.0570678710938 3.77667236328125 100.7284545898438 2.686279296875 C 95.26036834716797 1.567352294921875 89.63208770751953 1 84 1 M 84 0 C 130.3919067382813 0 168 37.60806274414063 168 84 C 168 94.809326171875 165.9582977294922 105.1417617797852 162.1463928222656 114.8692779541016 C 149.9977569580078 145.8755798339844 119.5826110839844 168 84 168 C 37.60806274414063 168 0 130.3919067382813 0 84 C 0 37.60806274414063 37.60806274414063 0 84 0 Z" stroke="none" fill="#143559"/>
    </g>
    <g id="Group_8358" data-name="Group 8358" transform="translate(1603.891 10901.928)">
      <g id="Group_3099" data-name="Group 3099" transform="translate(0)">
        <g id="mujib">
          <path id="Rectangle_1555" data-name="Rectangle 1555" d="M394.219,1958.064h92.229a17.9,17.9,0,0,1,17.9,17.9h0a17.9,17.9,0,0,1-17.9,17.9H394.219a17.9,17.9,0,0,1-17.9-17.9h0A17.9,17.9,0,0,1,394.219,1958.064Z" transform="translate(-376.319 -1905.6)" fill="#23517a"/>
          <rect id="Rectangle_1556" data-name="Rectangle 1556" width="3.076" height="13.426" rx="1.538" transform="translate(62.477 10.914)" fill="#23517a"/>
          <path id="Path_24127" data-name="Path 24127" d="M735.286,1461.718a49.1,49.1,0,1,0-41.269,48.469l7.418,4.6,12.588,7.806.462-14.8.191-6.095A49.024,49.024,0,0,0,735.286,1461.718Z" transform="translate(-622.175 -1391.357)" fill="#143559"/>
          <path id="Rectangle_1557" data-name="Rectangle 1557" d="M810.453,1989.592h48.013a16.1,16.1,0,0,1,16.1,16.1h0a16.1,16.1,0,0,1-16.1,16.1H810.453a16.1,16.1,0,0,1-16.1-16.1h0A16.1,16.1,0,0,1,810.453,1989.592Z" transform="translate(-770.444 -1935.324)" fill="#fff"/>
          <path id="Path_24128" data-name="Path 24128" d="M1689.688,2138.281a7.281,7.281,0,0,1,7.281,7.281h4.046a11.327,11.327,0,1,0-22.653,0h4.045A7.281,7.281,0,0,1,1689.688,2138.281Z" transform="translate(-1603.886 -2071.693)" fill="#143559"/>
          <path id="Path_24129" data-name="Path 24129" d="M921.18,2138.281a7.282,7.282,0,0,1,7.282,7.281h4.045a11.327,11.327,0,1,0-22.654,0H913.9A7.281,7.281,0,0,1,921.18,2138.281Z" transform="translate(-879.336 -2071.693)" fill="#143559"/>
          <ellipse id="Ellipse_648" data-name="Ellipse 648" cx="7.057" cy="7.057" rx="7.057" ry="7.057" transform="translate(56.957)" fill="#143559"/>
          <path id="Path_24130" data-name="Path 24130" d="M468.315,2085.029a20.216,20.216,0,0,1-.006-24.039,39.452,39.452,0,0,0,.006,24.039Z" transform="translate(-459.315 -2002.638)" fill="#fff"/>
          <path id="Path_24131" data-name="Path 24131" d="M2458.189,2085.029a20.221,20.221,0,0,0,.008-24.039,39.47,39.47,0,0,1-.008,24.039Z" transform="translate(-2339.109 -2002.638)" fill="#fff"/>
          <g id="Group_6159" data-name="Group 6159" transform="translate(59.414 72.133)">
            <path id="Path_24132" data-name="Path 24132" d="M1575.379,2340.152c.438,0,.868,0,1.287-.008,11.957-.114,21.044-1.806,27.864-4.32,9.277-3.431,14.374-8.39,16.786-12.961,4.926-9.328,1.612-16.625-1.439-20.935" transform="translate(-1566.208 -2301.927)" fill="none" stroke="#f8f1f1" stroke-miterlimit="10" stroke-width="2"/>
            <path id="Path_24133" data-name="Path 24133" d="M1420.28,2926.4c-2.89,0-5.234,1.1-5.234,2.451s2.344,2.452,5.234,2.452,5.235-1.1,5.235-2.452S1423.168,2926.4,1420.28,2926.4Z" transform="translate(-1415.046 -2890.68)" fill="#fff"/>
          </g>
        </g>
      </g>
    </g>
  </g>
</svg>
