<svg id="Group_7218" data-name="Group 7218" xmlns="http://www.w3.org/2000/svg" width="981.101" height="859.005" viewBox="0 0 981.101 859.005">
  <g id="Group_6807" data-name="Group 6807" transform="translate(0 795.742)">
    <ellipse id="Ellipse_19" data-name="Ellipse 19" cx="490.55" cy="31.631" rx="490.55" ry="31.631" fill="#fafafa"/>
  </g>
  <g id="Group_6809" data-name="Group 6809" transform="translate(36.67 646.124)">
    <g id="Group_6808" data-name="Group 6808">
      <path id="Path_29761" data-name="Path 29761" d="M446.512,501.805a605.147,605.147,0,0,1-68.323-4.127,3.244,3.244,0,1,1,.735-6.445c113.338,12.91,195.769-4.791,245-52.641,52.208-50.74,47.108-118.315,47.05-118.994a3.244,3.244,0,0,1,6.465-.549c.061.707,5.4,71.336-48.992,124.2C588.364,482.2,527.325,501.8,446.512,501.805Z" transform="translate(-375.312 -316.078)" fill="#588489"/>
    </g>
  </g>
  <g id="Group_6811" data-name="Group 6811" transform="translate(67.311 646.156)">
    <g id="Group_6810" data-name="Group 6810">
      <path id="Path_29762" data-name="Path 29762" d="M434.426,501.788q-20.237,0-41.9-1.3a3.245,3.245,0,0,1,.387-6.478c117.893,7.068,203.417-14.973,254.206-65.542,49.36-49.148,46.665-108.361,46.633-108.954a3.244,3.244,0,1,1,6.478-.359c.143,2.537,2.87,62.73-48.534,113.911C605.829,478.737,532.852,501.786,434.426,501.788Z" transform="translate(-389.479 -316.093)" fill="#e6f9fc"/>
    </g>
  </g>
  <g id="Group_6812" data-name="Group 6812" transform="translate(350.353 524.45)">
    <path id="Path_29763" data-name="Path 29763" d="M798.639,547.443a157.058,157.058,0,0,1-17.13,6.013c-.8.238-1.6.476-2.422.692-42,11.679-99.728,13.193-151.224,11.247l-4.369-.195c-38.13-1.6-72.476-5.018-93.909-7.527a10.412,10.412,0,0,1-7.051-16.7c5.45-7.008,12.025-17.54,19.184-33.372,20.352-45.03-2.812-84.393-2.812-84.393s33.264-143.892,35.427-147.482c2.163-3.612,218.228-36.1,205.056,3.72C766.24,319.266,766.824,430,770.436,467.484c2.444,25.521,20.611,50.372,31.945,63.652A10.368,10.368,0,0,1,798.639,547.443Z" transform="translate(-520.347 -259.821)" fill="#dff0f4"/>
  </g>
  <g id="Group_6813" data-name="Group 6813" transform="translate(367.418 590.193)">
    <path id="Path_29764" data-name="Path 29764" d="M744.209,290.218S614.194,444.284,540.74,435.827c0,0-.807-35.314-12.5-48.114,0,0,30.762,5.783,65.116-6.614S744.209,290.218,744.209,290.218Z" transform="translate(-528.237 -290.218)" fill="#2b2b2b"/>
  </g>
  <g id="Group_6814" data-name="Group 6814" transform="translate(131.89 369.177)">
    <path id="Path_29765" data-name="Path 29765" d="M507.972,197.71c2.5,2.163,4.313,44.727,4.313,44.727l45.147-22.195-8.063,16.879-51.559,35.95-78.471-85.042Z" transform="translate(-419.338 -188.029)" fill="#ededed"/>
  </g>
  <g id="Group_6815" data-name="Group 6815" transform="translate(257.957 386.887)">
    <path id="Path_29766" data-name="Path 29766" d="M487.708,196.217s-8.547,8.818-9.862,21.455a46.645,46.645,0,0,0,3.067,21.453s7.816-5.167,7.816-6.77S487.708,196.217,487.708,196.217Z" transform="translate(-477.627 -196.217)" fill="#dbae7d"/>
  </g>
  <g id="Group_6893" data-name="Group 6893" transform="translate(302.549 0)">
    <g id="Group_6816" data-name="Group 6816" transform="translate(156.799 113.062)">
      <path id="Path_29767" data-name="Path 29767" d="M577.066,76.953l62.445-7.341L654.957,90.47l-84.215,16.961Z" transform="translate(-570.742 -69.612)" fill="#e8f9f9"/>
    </g>
    <g id="Group_6817" data-name="Group 6817" transform="translate(0 121.586)">
      <path id="Path_29768" data-name="Path 29768" d="M537.585,74.507C522,84.806,496.857,151.313,498.3,193.814c.2,5.768,17.467-15.088,17.467-15.088L580.558,125.4S551.479,65.326,537.585,74.507Z" transform="translate(-498.244 -73.553)" fill="#e8f9f9"/>
    </g>
    <g id="Group_6819" data-name="Group 6819" transform="translate(74.476 67.828)">
      <g id="Group_6818" data-name="Group 6818">
        <path id="Path_29769" data-name="Path 29769" d="M562.059,61.159s8.314,24.786,16.788,25.53L539.557,86s.96-22.037-6.878-37.3Z" transform="translate(-532.679 -48.697)" fill="#fcd6b1"/>
      </g>
    </g>
    <g id="Group_6821" data-name="Group 6821" transform="translate(102.949 43.014)">
      <g id="Group_6820" data-name="Group 6820">
        <path id="Path_29770" data-name="Path 29770" d="M560.954,49.582s6.534-11.355,1-12.33S542.747,60.8,546.48,64.084,560.954,49.582,560.954,49.582Z" transform="translate(-545.844 -37.224)" fill="#efcaac"/>
      </g>
    </g>
    <g id="Group_6823" data-name="Group 6823" transform="translate(82.557 75.914)">
      <g id="Group_6822" data-name="Group 6822">
        <path id="Path_29771" data-name="Path 29771" d="M556.819,54.623s-25.283-5.353-19.561.69c7.124,7.524,22.158,6.067,22.158,6.067Z" transform="translate(-536.415 -52.436)" fill="#c1966b"/>
      </g>
    </g>
    <g id="Group_6825" data-name="Group 6825" transform="translate(57.391)">
      <g id="Group_6824" data-name="Group 6824">
        <path id="Path_29772" data-name="Path 29772" d="M581.723,63.209a27.188,27.188,0,0,1-35.73,14.145c-8.154-3.525-14.837-8.8-16.783-16.783-.541-2.206-2.4-6.4-3.655-11.7a23.034,23.034,0,0,1-.454-2.379,19.336,19.336,0,0,1-.26-2.249,1.238,1.238,0,0,0-.022-.281c-.022-.67-.065-1.319-.022-1.99A22.885,22.885,0,0,1,527.588,31a11.694,11.694,0,0,1,.649-1.125c.022-.043.043-.065.065-.108a10.733,10.733,0,0,1,.714-1.017,19.19,19.19,0,0,1,2.639-3.006,34.664,34.664,0,0,1,6.121-4.564c.39-.238.757-.454,1.146-.67.022,0,.022-.022.043-.022.368-.195.757-.389,1.146-.584a23.513,23.513,0,0,1,9.214-2.53c.606-.043,1.19-.043,1.8-.043.454,0,.93,0,1.384.022h.281c.454.022.93.043,1.384.087a36.587,36.587,0,0,1,13.085,3.179c.411.195.8.389,1.189.584.13.087.281.151.411.238.411.216.8.454,1.168.692a20.456,20.456,0,0,1,6.64,6.207,46.114,46.114,0,0,1,7.051,17.411c.086.5.151.995.216,1.514A30.481,30.481,0,0,1,581.723,63.209Z" transform="translate(-524.779 -17.336)" fill="#191919"/>
      </g>
    </g>
    <g id="Group_6828" data-name="Group 6828" transform="translate(60.199 12.436)">
      <g id="Group_6827" data-name="Group 6827">
        <g id="Group_6826" data-name="Group 6826">
          <path id="Path_29773" data-name="Path 29773" d="M555.384,46.747a13.811,13.811,0,0,1-4.585-.411c-9.8-2.509-19.66-14.815-24.721-22.017a11.671,11.671,0,0,1,.649-1.125c.022-.043.043-.065.065-.108,5.6,8,17.843,23.445,28.463,22.385Z" transform="translate(-526.078 -23.086)" fill="#0a0a0a"/>
        </g>
      </g>
    </g>
    <g id="Group_6831" data-name="Group 6831" transform="translate(70.386 3.179)">
      <g id="Group_6830" data-name="Group 6830">
        <g id="Group_6829" data-name="Group 6829">
          <path id="Path_29774" data-name="Path 29774" d="M552.265,46.252l-.216,1.233a7.357,7.357,0,0,1-.735-.151c-10.057-2.552-17.065-18.146-20.525-27.857.39-.238.757-.454,1.146-.67,3.374,9.452,10.23,24.894,19.682,27.316Z" transform="translate(-530.788 -18.806)" fill="#0a0a0a"/>
        </g>
      </g>
    </g>
    <g id="Group_6834" data-name="Group 6834" transform="translate(83.731)">
      <g id="Group_6833" data-name="Group 6833">
        <g id="Group_6832" data-name="Group 6832">
          <path id="Path_29775" data-name="Path 29775" d="M556.445,41.127l-.259,1.233-.389-.087c-9-2.293-15.291-15.161-18.838-24.937.454,0,.93,0,1.384.022C541.889,26.982,548.01,39.31,556.445,41.127Z" transform="translate(-536.958 -17.336)" fill="#0a0a0a"/>
        </g>
      </g>
    </g>
    <g id="Group_6837" data-name="Group 6837" transform="translate(99.865 3.287)">
      <g id="Group_6836" data-name="Group 6836">
        <g id="Group_6835" data-name="Group 6835">
          <path id="Path_29776" data-name="Path 29776" d="M553.026,36.4l-1.038.779c-3.547-5.234-5.991-12.242-7.57-18.319.411.195.8.389,1.189.584.13.087.281.151.411.238C547.554,25.366,549.847,31.681,553.026,36.4Z" transform="translate(-544.418 -18.856)" fill="#0a0a0a"/>
        </g>
      </g>
    </g>
    <g id="Group_6840" data-name="Group 6840" transform="translate(57.431 26.624)">
      <g id="Group_6839" data-name="Group 6839">
        <g id="Group_6838" data-name="Group 6838">
          <path id="Path_29777" data-name="Path 29777" d="M551.509,50.755a12.525,12.525,0,0,1-4.542-.411c-8.2-2.076-16.416-11.03-21.888-18.168a19.336,19.336,0,0,1-.26-2.249,1.234,1.234,0,0,0-.022-.281c6.186,8.413,17.065,20.785,26.6,19.855Z" transform="translate(-524.798 -29.646)" fill="#0a0a0a"/>
        </g>
      </g>
    </g>
    <g id="Group_6842" data-name="Group 6842" transform="translate(68.839 11.163)">
      <g id="Group_6841" data-name="Group 6841">
        <path id="Path_29778" data-name="Path 29778" d="M563.033,94.213c-3.575,1.369-12.114.45-18.5-3.435C535.526,85.3,527.56,72.8,530.815,53.594s16.156-33.013,28.837-30.879c9.055,1.557,15.3,10.836,17.092,23.047.126.874.242,1.767.335,2.669.015.329.045.664.069,1.017.063.831.106,1.652.117,2.5a91.694,91.694,0,0,1-.584,9.413C574.275,90.18,570.953,91.179,563.033,94.213Z" transform="translate(-530.073 -22.497)" fill="#fcd6b1"/>
      </g>
    </g>
    <g id="Group_6844" data-name="Group 6844" transform="translate(95.062 47.781)">
      <g id="Group_6843" data-name="Group 6843">
        <path id="Path_29779" data-name="Path 29779" d="M544.247,55.536a.423.423,0,0,0,.42-.13l3.642-4.107a.42.42,0,0,0-.034-.59c-.065-.061-6.48-5.963-5.013-10.723a.426.426,0,0,0-.279-.528.39.39,0,0,0-.528.279c-1.445,4.693,3.623,10.014,4.953,11.309l-3.372,3.8a.421.421,0,0,0,.037.595A.43.43,0,0,0,544.247,55.536Z" transform="translate(-542.197 -39.428)" fill="#c1966b"/>
      </g>
    </g>
    <g id="Group_6846" data-name="Group 6846" transform="translate(76.18 34.976)">
      <g id="Group_6845" data-name="Group 6845">
        <path id="Path_29780" data-name="Path 29780" d="M533.467,37.666c.017-1.047,7.964-4.981,12.2-4s4.551,4.086,3.621,3.683a19.442,19.442,0,0,0-7.624-.67C539.374,37.155,533.454,38.355,533.467,37.666Z" transform="translate(-533.467 -33.507)" fill="#2d2d2d"/>
      </g>
    </g>
    <g id="Group_6848" data-name="Group 6848" transform="translate(105.122 34.532)">
      <g id="Group_6847" data-name="Group 6847">
        <path id="Path_29781" data-name="Path 29781" d="M557.653,37.015c-1.259-.186-2.442-.472-3.233-.616a17.014,17.014,0,0,0-6.964.545c-.932.424-1.326-2.409,2.915-3.467,1.9-.474,4.7.08,7.088.885A18.632,18.632,0,0,1,557.653,37.015Z" transform="translate(-546.849 -33.302)" fill="#2d2d2d"/>
      </g>
    </g>
    <g id="Group_6850" data-name="Group 6850" transform="translate(91.565 67.569)">
      <g id="Group_6849" data-name="Group 6849">
        <path id="Path_29782" data-name="Path 29782" d="M551.943,48.659c-1.265.954-4.449,2.535-10.449.863a.717.717,0,0,0-.85.98,7.3,7.3,0,0,0,5.84,4.306c4.979.748,5.913-3.774,6.084-5.8A.389.389,0,0,0,551.943,48.659Z" transform="translate(-540.58 -48.577)" fill="#fff"/>
      </g>
    </g>
    <g id="Group_6855" data-name="Group 6855" transform="translate(80.697 45.234)">
      <g id="Group_6852" data-name="Group 6852">
        <g id="Group_6851" data-name="Group 6851">
          <path id="Path_29783" data-name="Path 29783" d="M536.049,39.284l7.018-1.034.185,1.725-7.7.544Z" transform="translate(-535.555 -38.251)" fill="#2d2d2d"/>
        </g>
      </g>
      <g id="Group_6854" data-name="Group 6854" transform="translate(2.55 0.738)">
        <g id="Group_6853" data-name="Group 6853">
          <path id="Path_29784" data-name="Path 29784" d="M540.283,41.356c.188,1.635-.446,3.054-1.414,3.164s-1.912-1.123-2.1-2.758.443-3.052,1.414-3.164S540.092,39.721,540.283,41.356Z" transform="translate(-536.734 -38.592)" fill="#2d2d2d"/>
        </g>
      </g>
    </g>
    <g id="Group_6860" data-name="Group 6860" transform="translate(103.41 44.602)">
      <g id="Group_6857" data-name="Group 6857">
        <g id="Group_6856" data-name="Group 6856">
          <path id="Path_29785" data-name="Path 29785" d="M546.815,37.958l7.071.569-.208,1.722-7.622-1.2Z" transform="translate(-546.057 -37.958)" fill="#2d2d2d"/>
        </g>
      </g>
      <g id="Group_6859" data-name="Group 6859" transform="translate(1.683 0.436)">
        <g id="Group_6858" data-name="Group 6858">
          <path id="Path_29786" data-name="Path 29786" d="M550.382,41.338c-.195,1.635-1.14,2.866-2.109,2.751s-1.6-1.536-1.4-3.171,1.138-2.866,2.109-2.751S550.577,39.7,550.382,41.338Z" transform="translate(-546.835 -38.16)" fill="#2d2d2d"/>
        </g>
      </g>
    </g>
    <g id="Group_6862" data-name="Group 6862" transform="translate(51.667 102.189)">
      <g id="Group_6861" data-name="Group 6861">
        <path id="Path_29787" data-name="Path 29787" d="M609.039,208.63s11.813-81.746,18.174-113.34a16.086,16.086,0,0,0-8.794-17.67L589.961,64.584,544.6,66.546,522.133,87.423l9.322,127.537Z" transform="translate(-522.133 -64.584)" fill="#75afbc"/>
      </g>
    </g>
    <g id="Group_6864" data-name="Group 6864" transform="translate(78.408 94.961)">
      <g id="Group_6863" data-name="Group 6863">
        <path id="Path_29788" data-name="Path 29788" d="M534.5,73.053l17.638-.32,19.054-.355,10.427-.186a82.686,82.686,0,0,1-6.923-4.8l-.151-.117-8.255-6.032L551.28,68.717l-11.521-4.332Z" transform="translate(-534.497 -61.242)" fill="#75afbc"/>
      </g>
    </g>
    <g id="Group_6866" data-name="Group 6866" transform="translate(90.37 103.456)">
      <g id="Group_6865" data-name="Group 6865">
        <path id="Path_29789" data-name="Path 29789" d="M541.564,208.454l1.665-.257c-3.729-24.254.335-141.355.45-142.064l-.818-.138.85-.1-.521-.729-.848.112a1.916,1.916,0,0,0-.2.785l-.1.017.1-.013C540.571,76.668,538.595,189.138,541.564,208.454Z" transform="translate(-540.028 -65.17)" fill="#416b72"/>
      </g>
    </g>
    <g id="Group_6868" data-name="Group 6868" transform="translate(100.229 104.849)">
      <g id="Group_6867" data-name="Group 6867">
        <path id="Path_29790" data-name="Path 29790" d="M546.731,209.1l1.663-.255c-3.74-24.334-1.259-141.379-1.159-142.088l-.822-.119.848-.093-.519-.729-.848.112a1.854,1.854,0,0,0-.184.781l-.123.022.121-.015C544.357,77.275,543.736,189.618,546.731,209.1Z" transform="translate(-544.586 -65.814)" fill="#416b72"/>
      </g>
    </g>
    <g id="Group_6870" data-name="Group 6870" transform="translate(114.205 101.998)">
      <g id="Group_6869" data-name="Group 6869">
        <path id="Path_29791" data-name="Path 29791" d="M596.554,96.527l-12.22,85.345.5,10.987.021.173.065,1.514v.173l.216,4.845.022.173.065,1.514v.151l.67,14.945.086,1.838v.195l.065,1.536,1.925,43-36.919-.519,1.471-51.778,4-142.1v-.411l.108-3.287V64.5a.067.067,0,0,1,.043.022c.843.195,17,4.023,32.183,8.089.735.195,1.449.389,2.185.606,10.382,2.79,54.077,4.382,54.077,4.382S597.051,92.461,596.554,96.527Z" transform="translate(-551.048 -64.496)" fill="#e8f9f9"/>
      </g>
    </g>
    <g id="Group_6873" data-name="Group 6873" transform="translate(39.351 104.139)">
      <g id="Group_6872" data-name="Group 6872">
        <g id="Group_6871" data-name="Group 6871">
          <path id="Path_29792" data-name="Path 29792" d="M528.009,191.729l.757-9.884-7.375-64.409-.151-1.3-.087-.649-4.715-31.6.995-.519,1.99-1.017,24.029-12.371h.022l7.743-4.5,8.521,194.826-36.811-.584L526,218.851l.108-1.687,1.3-17.086.13-1.687.368-5Z" transform="translate(-516.438 -65.486)" fill="#e8f9f9"/>
        </g>
      </g>
    </g>
    <g id="Group_6875" data-name="Group 6875" transform="translate(74.132 94.961)">
      <g id="Group_6874" data-name="Group 6874">
        <path id="Path_29793" data-name="Path 29793" d="M532.52,70.432l9.964,12.376,11.528-9,.861-.742.824.64,12.06,8.651,9.235-14.969-.151-.117-2.662-1.955-1.365-.993-4.228-3.084s-7.31,2.528-11.928,2.7c-.387.015-.757.015-1.129.032-.571.017-1.127.017-1.683.017a49.913,49.913,0,0,1-14.3-1.758Z" transform="translate(-532.52 -61.242)" fill="#fffdfe"/>
      </g>
    </g>
    <g id="Group_6878" data-name="Group 6878" transform="translate(95.458 97.69)">
      <g id="Group_6877" data-name="Group 6877">
        <g id="Group_6876" data-name="Group 6876">
          <path id="Path_29794" data-name="Path 29794" d="M542.38,62.521l.167,9.821.861-.742.824.64-.169-9.737C543.492,62.521,542.936,62.521,542.38,62.521Z" transform="translate(-542.38 -62.504)" fill="#416b72"/>
        </g>
      </g>
    </g>
    <g id="Group_6880" data-name="Group 6880" transform="translate(40.345 121.01)">
      <g id="Group_6879" data-name="Group 6879">
        <path id="Path_29795" data-name="Path 29795" d="M538.634,144.486l-2.163.216C532.665,103.219,523.3,83.343,516.9,74.3l1.99-1.017C525.549,82.781,534.828,103.025,538.634,144.486Z" transform="translate(-516.898 -73.286)" fill="#c3dbda"/>
      </g>
    </g>
    <g id="Group_6882" data-name="Group 6882" transform="translate(134.968 110.109)">
      <g id="Group_6881" data-name="Group 6881">
        <path id="Path_29796" data-name="Path 29796" d="M579.875,68.852a71.061,71.061,0,0,0-3.287,6.359c-5.364,11.485-11.03,30.171-13.777,60.17l-2.163-.216c2.812-30.517,8.565-49.528,14.058-61.229,1.016-2.141,2.011-4.023,2.985-5.688C578.426,68.441,579.14,68.635,579.875,68.852Z" transform="translate(-560.648 -68.246)" fill="#c3dbda"/>
      </g>
    </g>
    <path id="Path_29797" data-name="Path 29797" d="M565.441,39.443H557.11a2.5,2.5,0,0,0-2.5,2.5v.409a6.227,6.227,0,0,0-5.9-.34c-.084.037-.121.063-.195.1v-.167a2.5,2.5,0,0,0-2.5-2.5H537.69a2.5,2.5,0,0,0-2.5,2.5v2.208a2.5,2.5,0,0,0,2.5,2.5h8.331a2.5,2.5,0,0,0,2.5-2.5v-.824a5.225,5.225,0,0,1,6.095.391v.433a2.5,2.5,0,0,0,2.5,2.5h8.331a2.5,2.5,0,0,0,2.5-2.5V41.941A2.5,2.5,0,0,0,565.441,39.443Zm-18,4.706a1.417,1.417,0,0,1-1.417,1.414H537.69a1.417,1.417,0,0,1-1.417-1.414V41.941a1.419,1.419,0,0,1,1.417-1.417h8.331a1.419,1.419,0,0,1,1.417,1.417Zm19.42,0a1.417,1.417,0,0,1-1.417,1.414H557.11a1.415,1.415,0,0,1-1.414-1.414V41.941a1.417,1.417,0,0,1,1.414-1.417h8.331a1.419,1.419,0,0,1,1.417,1.417Z" transform="translate(-455.281 8.37)" fill="#8dadb2"/>
    <g id="Group_6883" data-name="Group 6883" transform="translate(55.276 104.149)">
      <path id="Path_29798" data-name="Path 29798" d="M542.657,65.491,523.8,75.688l12.754,28.69-6.111,5.92,6.041,18.983,8.614-7.921Z" transform="translate(-523.802 -65.491)" fill="#c3dbda"/>
    </g>
    <g id="Group_6884" data-name="Group 6884" transform="translate(117.385 102.125)">
      <path id="Path_29799" data-name="Path 29799" d="M554.959,64.555l16.209,3.879-5.085,29.291,6.227,9.628-9.959,19.732-9.832-6.662Z" transform="translate(-552.518 -64.555)" fill="#c3dbda"/>
    </g>
    <g id="Group_6885" data-name="Group 6885" transform="translate(63.972 45.829)">
      <path id="Path_29800" data-name="Path 29800" d="M544.3,43.89a.538.538,0,0,1-.141-.019l-15.94-4.285a.54.54,0,1,1,.281-1.042l15.94,4.285a.54.54,0,0,1-.141,1.062Z" transform="translate(-527.822 -38.526)" fill="#8dadb2"/>
    </g>
    <g id="Group_6886" data-name="Group 6886" transform="translate(111.576 44.601)">
      <path id="Path_29801" data-name="Path 29801" d="M550.374,44.62a.541.541,0,0,1-.435-.863l4.135-5.582a.54.54,0,1,1,.867.645L550.807,44.4A.535.535,0,0,1,550.374,44.62Z" transform="translate(-549.833 -37.958)" fill="#8dadb2"/>
    </g>
    <g id="Group_6888" data-name="Group 6888" transform="translate(58.511 44.175)">
      <g id="Group_6887" data-name="Group 6887">
        <path id="Path_29802" data-name="Path 29802" d="M536.779,44.412s-8.255-10.172-11.149-5.357,13.89,23.843,19.491,24.07C550.089,63.326,536.779,44.412,536.779,44.412Z" transform="translate(-525.297 -37.761)" fill="#fcd6b1"/>
      </g>
    </g>
    <g id="Group_6890" data-name="Group 6890" transform="translate(60.932 47.336)">
      <g id="Group_6889" data-name="Group 6889">
        <path id="Path_29803" data-name="Path 29803" d="M527.036,42.879a.422.422,0,0,0,.506-.536c-.353-1.107-.376-1.89-.065-2.148.443-.37,1.663.1,2.187.381a.421.421,0,0,0,.4-.74c-.212-.117-2.128-1.116-3.125-.29-.625.515-.69,1.514-.2,3.054A.418.418,0,0,0,527.036,42.879Z" transform="translate(-526.417 -39.222)" fill="#c1966b"/>
      </g>
    </g>
    <g id="Group_6892" data-name="Group 6892" transform="translate(95.192 124.012)">
      <g id="Group_6891" data-name="Group 6891">
        <path id="Path_29804" data-name="Path 29804" d="M542.257,76.536a1.862,1.862,0,1,0,1.862-1.862A1.86,1.86,0,0,0,542.257,76.536Z" transform="translate(-542.257 -74.674)" fill="#416b72"/>
      </g>
    </g>
  </g>
  <g id="Group_6894" data-name="Group 6894" transform="translate(432.543 125.381)">
    <path id="Path_29805" data-name="Path 29805" d="M805.19,417.462l-88.675,57.315L558.348,88.411s5-2.877,16.632-5.948a189.4,189.4,0,0,1,22.515-4.347c4.65-.671,9.754-1.233,15.356-1.665,6.921-.584,14.578-.973,23.034-1.081q7.04-.13,14.9.022c3.742.065,7.635.173,11.658.346q6.683.292,13.085,1.06C776.273,88.5,825.737,181.715,825.737,181.715,886.3,301.751,805.19,417.462,805.19,417.462Z" transform="translate(-558.348 -75.307)" fill="#2b2b2b"/>
  </g>
  <g id="Group_6895" data-name="Group 6895" transform="translate(533.396 140.917)">
    <path id="Path_29806" data-name="Path 29806" d="M604.978,103.882,617.456,82.49l27.7,9.05-6.28,20.57,17.9,7.8,14.39-16.461,22.252,15.923-11.566,17.622,10.943,11.157,11.068-10.431,18.654,22.269-26.16,25.763-63.032-19.26Z" transform="translate(-604.978 -82.49)" fill="#03ee73"/>
  </g>
  <g id="Group_6896" data-name="Group 6896" transform="translate(449.175 125.443)">
    <path id="Path_29807" data-name="Path 29807" d="M666.587,76.763l-12.544,49.615-50.35-2.682L570.126,95.429l-4.088-13a189.4,189.4,0,0,1,22.515-4.347l5.833,21.412,9.733-4.687-.21-18.39c6.921-.584,14.577-.973,23.034-1.081l-.835,27.223,7.029,9.733,8.708-36.934c3.742.065,7.635.173,11.658.346Q660.185,76,666.587,76.763Z" transform="translate(-566.038 -75.336)" fill="#143559"/>
  </g>
  <g id="Group_6897" data-name="Group 6897" transform="translate(510.822 112.787)">
    <path id="Path_29808" data-name="Path 29808" d="M617.114,69.531c13.788.811,26.045,16.491,13.247,14.69-12.534-1.767-35.821-2.154-35.821-2.154S601.148,68.593,617.114,69.531Z" transform="translate(-594.541 -69.484)" fill="#fcd6b1"/>
  </g>
  <g id="Group_6898" data-name="Group 6898" transform="translate(713.709 318.786)">
    <path id="Path_29809" data-name="Path 29809" d="M702.729,169.079c-4.866,4.687-14.381,15.713-14.381,15.713l42.839,57.2a31.026,31.026,0,0,0,46.721-10.987l28.058-57.276-41.8-9-11.709,42.162Z" transform="translate(-688.348 -164.73)" fill="#ededed"/>
  </g>
  <g id="Group_6899" data-name="Group 6899" transform="translate(641.544 217.553)">
    <path id="Path_29810" data-name="Path 29810" d="M664.827,147.247l17.3-18.057,17.3,19.911,18.52-5.8.991-25.372,27.145,2.716-2.9,25.887,13.626,7.814,19.446-15.7,15.391,18.583-17.238,18.5,2.407,12.767,21.853,8.093-10.52,25.327L769.6,211.373l-5.587,9.283c1.8,3.244,11.355,18.925,11.355,18.925L755.207,252.06l-9.86-21.36-9.521,2.736v20.62L711.8,253.4l.311-20.979-11.96-2.578-12.38,15.6-18.6-16.2,15.122-17.084-3.015-7.289-19.013,3.484-7.282-34.384,26.737-4.055-2.833-4.6Z" transform="translate(-654.982 -117.924)" fill="#03ee73"/>
  </g>
  <g id="Group_6900" data-name="Group 6900" transform="translate(678.766 253.982)">
    <path id="Path_29811" data-name="Path 29811" d="M706.769,203.921a34.577,34.577,0,1,1,34.577-34.577A34.615,34.615,0,0,1,706.769,203.921Zm0-66.991a32.414,32.414,0,1,0,32.414,32.414A32.45,32.45,0,0,0,706.769,136.93Z" transform="translate(-672.192 -134.767)" fill="#fff"/>
  </g>
  <g id="Group_6901" data-name="Group 6901" transform="translate(698.598 273.813)">
    <circle id="Ellipse_20" data-name="Ellipse 20" cx="14.745" cy="14.745" r="14.745" fill="#2b2b2b"/>
  </g>
  <g id="Group_6903" data-name="Group 6903" transform="translate(771.183 289.279)">
    <g id="Group_6902" data-name="Group 6902">
      <path id="Path_29812" data-name="Path 29812" d="M714.922,477.65l13.349-210.8s-.552-43.183,2.435-74.509a50.767,50.767,0,0,1,29.211-41.254h0l.121,4.036,7.1,143.09,8.463,179.84Z" transform="translate(-714.922 -151.087)" fill="#fff"/>
    </g>
  </g>
  <g id="Group_6905" data-name="Group 6905" transform="translate(397.254 151.674)">
    <g id="Group_6904" data-name="Group 6904">
      <path id="Path_29813" data-name="Path 29813" d="M542.032,89.326a1.862,1.862,0,1,0,1.862-1.862A1.861,1.861,0,0,0,542.032,89.326Z" transform="translate(-542.032 -87.464)" fill="#565656"/>
    </g>
  </g>
  <g id="Group_6907" data-name="Group 6907" transform="translate(397.253 185.649)">
    <g id="Group_6906" data-name="Group 6906">
      <circle id="Ellipse_21" data-name="Ellipse 21" cx="1.862" cy="1.862" r="1.862" fill="#565656"/>
    </g>
  </g>
  <g id="Group_6908" data-name="Group 6908" transform="translate(129.883 541.853)">
    <path id="Path_29814" data-name="Path 29814" d="M428.69,267.867l66.777,7.213-1.081,113.783-75.975-1,1.528-84.854Z" transform="translate(-418.41 -267.867)" fill="#eaeaea"/>
  </g>
  <g id="Group_6909" data-name="Group 6909" transform="translate(552.969 588.431)">
    <path id="Path_29815" data-name="Path 29815" d="M673.308,518.263c-48.49-44.794-56.519-103.633-54.715-145.108,1.912-43.518,14.621-77.422,16.087-81.205l.37-.991L631.03,289.4l-.4,1.016c-1.471,3.781-14.413,38.215-16.364,82.492-1.864,42.021,6.192,101.745,55.145,147.627l.437.411.578-.154c.833-.221,1.644-.461,2.455-.7l1.821-.543Z" transform="translate(-614.028 -289.403)" fill="#8dadb2"/>
  </g>
  <g id="Group_6911" data-name="Group 6911" transform="translate(430.373 678.911)">
    <g id="Group_6910" data-name="Group 6910" transform="translate(0)">
      <path id="Path_29816" data-name="Path 29816" d="M584.841,482.35l-4.369-.195c26.386-130.461-21.109-146.531-21.585-146.682a2.166,2.166,0,0,1,1.233-4.153C562.24,331.948,611.811,348.061,584.841,482.35Z" transform="translate(-557.345 -331.237)" fill="#8dadb2"/>
    </g>
  </g>
  <g id="Group_6912" data-name="Group 6912" transform="translate(592.876 219.352)">
    <path id="Path_29817" data-name="Path 29817" d="M695.785,176.438l11.657,27.468-7.462,1.622L697.84,206l-31.3,6.834L632.48,149.684,651.945,134.2l-5.688-8.889-1.384-2.141-5.274-4.412h39.035l-1.406,20.763,9.192,5.71,20.157-7.354,11.874,28.636Z" transform="translate(-632.48 -118.756)" fill="#143559"/>
  </g>
  <g id="Group_6914" data-name="Group 6914" transform="translate(600.987 223.309)">
    <g id="Group_6913" data-name="Group 6913" transform="translate(0)">
      <path id="Path_29818" data-name="Path 29818" d="M697.265,145.438l-17.562,6.1a1.1,1.1,0,0,1-1.06-.173L664.671,139.75a1.054,1.054,0,0,1-.39-.865l.735-16.113-23.12.411-4.564.086a1.085,1.085,0,0,1-1.1-1.06,1.1,1.1,0,0,1,1.06-1.1l3.223-.065,25.608-.454a1.111,1.111,0,0,1,.8.324,1.057,1.057,0,0,1,.3.822l-.757,16.7,13.107,10.879,17.951-6.251a1.057,1.057,0,0,1,1.341.606L706,161.183a1.043,1.043,0,0,1-.022.844,1.072,1.072,0,0,1-.606.584l-22.58,8.435L695.621,203.4l-2.141.476-13.107-33.048a1.04,1.04,0,0,1,.022-.843.976.976,0,0,1,.605-.562l22.58-8.457Z" transform="translate(-636.23 -120.585)" fill="#a1a8d6"/>
    </g>
  </g>
  <g id="Group_6915" data-name="Group 6915" transform="translate(613.601 252.565)">
    <path id="Path_29819" data-name="Path 29819" d="M668.868,147.515a13.4,13.4,0,1,1-13.4-13.4A13.4,13.4,0,0,1,668.868,147.515Z" transform="translate(-642.062 -134.112)" fill="#2b2b2b"/>
  </g>
  <g id="Group_6993" data-name="Group 6993" transform="translate(93.547 248.78)">
    <g id="Group_6990" data-name="Group 6990">
      <g id="Group_6931" data-name="Group 6931" transform="translate(0 229.888)">
        <g id="Group_6928" data-name="Group 6928" transform="translate(0 32.263)">
          <g id="Group_6917" data-name="Group 6917" transform="translate(1.224 311.197)">
            <g id="Group_6916" data-name="Group 6916">
              <path id="Path_29820" data-name="Path 29820" d="M430.176,400.165s16.983,4.674,29.773,7.1a6.318,6.318,0,0,1,5.163,6.2v.026l-31.469.359c-6.2,0-15.235-.385-20.947-3.207l.167,2.848H402.176l.2-9.339a6.835,6.835,0,0,1,6.832-6.69Z" transform="translate(-402.176 -397.455)" fill="#0c0c0c"/>
            </g>
          </g>
          <g id="Group_6919" data-name="Group 6919" transform="translate(0 12.977)">
            <g id="Group_6918" data-name="Group 6918">
              <path id="Path_29821" data-name="Path 29821" d="M417.82,259.57l3.272,150.973S402.59,543.07,401.61,561.525l43.637,2.649,19.089-150.089,2.658-139.021Z" transform="translate(-401.61 -259.57)" fill="#143559"/>
            </g>
          </g>
          <g id="Group_6921" data-name="Group 6921" transform="translate(10.437 38.435)" opacity="0.24">
            <g id="Group_6920" data-name="Group 6920">
              <path id="Path_29822" data-name="Path 29822" d="M408.142,548.647l-1.706-.249L428.5,398.059l-.675-126.708,1.725-.01.666,126.838Z" transform="translate(-406.436 -271.341)"/>
            </g>
          </g>
          <g id="Group_6923" data-name="Group 6923" transform="translate(83.93 311.197)">
            <g id="Group_6922" data-name="Group 6922">
              <path id="Path_29823" data-name="Path 29823" d="M478.836,403.264s8.731,2.232,19.3,4.044a6.27,6.27,0,0,1,5.212,6.175h0l-31.467.359c-6.2,0-15.237-.385-20.949-3.207l.167,2.848H440.416l.2-9.339a6.836,6.836,0,0,1,6.835-6.69Z" transform="translate(-440.416 -397.455)" fill="#0c0c0c"/>
            </g>
          </g>
          <g id="Group_6925" data-name="Group 6925" transform="translate(67.785)">
            <g id="Group_6924" data-name="Group 6924">
              <path id="Path_29824" data-name="Path 29824" d="M479.423,253.57l12.728,159.5s-2.511,138.046-1.808,158.441l-43.994,1.445L449.1,421.807,432.951,283.112Z" transform="translate(-432.951 -253.57)" fill="#143559"/>
            </g>
          </g>
          <g id="Group_6927" data-name="Group 6927" transform="translate(84.261 32.724)" opacity="0.24">
            <g id="Group_6926" data-name="Group 6926">
              <path id="Path_29825" data-name="Path 29825" d="M451.918,555.007l-1.725-.05,4.6-153.727L440.569,268.886l1.714-.186,14.229,132.462Z" transform="translate(-440.569 -268.7)"/>
            </g>
          </g>
        </g>
        <g id="Group_6930" data-name="Group 6930" transform="translate(17.306 0)">
          <g id="Group_6929" data-name="Group 6929" transform="translate(0)">
            <ellipse id="Ellipse_22" data-name="Ellipse 22" cx="35.082" cy="48.585" rx="35.082" ry="48.585" transform="translate(0 70.112) rotate(-87.802)" fill="#0c3868"/>
          </g>
        </g>
      </g>
      <g id="Group_6933" data-name="Group 6933" transform="translate(18.174 107.753)">
        <g id="Group_6932" data-name="Group 6932">
          <path id="Path_29826" data-name="Path 29826" d="M424.53,329.925s-6.313-56.895-13.552-95.633c-3.9-20.882,4.075-41.578,23.393-50.417l3.7-1.691,49.167.417L515.9,202.5,506.1,336.58Z" transform="translate(-410.013 -182.183)" fill="#75afbc"/>
        </g>
      </g>
      <g id="Group_6935" data-name="Group 6935" transform="translate(56.672 253.838)">
        <g id="Group_6934" data-name="Group 6934">
          <path id="Path_29827" data-name="Path 29827" d="M427.813,249.727h45.258l-.037,20.53H427.813Z" transform="translate(-427.813 -249.727)" fill="#333033"/>
        </g>
      </g>
      <g id="Group_6937" data-name="Group 6937" transform="translate(48.118 61.035)">
        <g id="Group_6936" data-name="Group 6936">
          <path id="Path_29828" data-name="Path 29828" d="M439.186,161.226s5.777,37.657-15.328,47.043l45.934.709s-12.107-18.178-2.531-35.853C467.261,173.126,445.83,157.232,439.186,161.226Z" transform="translate(-423.858 -160.582)" fill="#fcd6b1"/>
        </g>
      </g>
      <g id="Group_6939" data-name="Group 6939" transform="translate(75.614 72.149)">
        <g id="Group_6938" data-name="Group 6938">
          <path id="Path_29829" data-name="Path 29829" d="M449.879,173.38s-16.608-12.428-12.717-5.621a31.038,31.038,0,0,0,11.707,11.87Z" transform="translate(-436.571 -165.721)" fill="#c1966b"/>
        </g>
      </g>
      <g id="Group_6941" data-name="Group 6941" transform="translate(95.396 108.007)">
        <g id="Group_6940" data-name="Group 6940">
          <path id="Path_29830" data-name="Path 29830" d="M477.3,204.371a8.584,8.584,0,0,1-.225,2.673l-8.089,96.617.225,3.759.1,1.726,1,16.9.1,1.879,9.523,160.734h-27.98s-.541-265.73-6.24-306.2C445.449,180.541,474.379,195.993,477.3,204.371Z" transform="translate(-445.717 -182.3)" fill="#ededed"/>
        </g>
      </g>
      <g id="Group_6943" data-name="Group 6943" transform="translate(37.403 3.386)">
        <g id="Group_6942" data-name="Group 6942">
          <path id="Path_29831" data-name="Path 29831" d="M479.984,169.21a26.62,26.62,0,0,1-27.63,25.577c-8.692-.329-16.677-2.777-21.282-9.4-1.259-1.81-4.449-4.985-7.486-9.382-4.812-6.969-6.311-15.644-2.621-23.265.069-.156.156-.311.225-.467.361-.725.725-1.449,1.138-2.171a35.8,35.8,0,0,1,5.208-7.4l.069-.067c.048-.048.125-.123.227-.216.45-.454.9-.9,1.378-1.3a18.024,18.024,0,0,1,1.758-1.328,1.3,1.3,0,0,1,.208-.121.377.377,0,0,0,.086-.069,13.861,13.861,0,0,1,2.087-1.051c2.189-.88,4.207-1.588,6.071-2.174.517-.173,1-.329,1.481-.465a42.464,42.464,0,0,1,11.108-1.968c.5-.015.949-.015,1.38,0,4.674.19,6.123,1.812,6.123,1.812s1.138,1.016,2.881,2.76c.448.448.913.93,1.43,1.466a91.5,91.5,0,0,1,9.246,11.175C477,156.843,480.209,163.347,479.984,169.21Z" transform="translate(-418.904 -133.928)" fill="#191919"/>
        </g>
      </g>
      <g id="Group_6946" data-name="Group 6946" transform="translate(39.69 19.56)">
        <g id="Group_6945" data-name="Group 6945">
          <g id="Group_6944" data-name="Group 6944">
            <path id="Path_29832" data-name="Path 29832" d="M438.743,181.349l-1.036.776c-.809-1.071-15.676-20.956-17.746-38.548.361-.725.725-1.449,1.138-2.171C422.2,159.238,438.535,181.072,438.743,181.349Z" transform="translate(-419.961 -141.406)" fill="#0a0a0a"/>
          </g>
        </g>
      </g>
      <g id="Group_6948" data-name="Group 6948" transform="translate(56.21 11.752)">
        <g id="Group_6947" data-name="Group 6947">
          <path id="Path_29833" data-name="Path 29833" d="M473.184,200.931c-2.414,3.207-7.76,6.553-15.28,4.864-10.072-2.277-25.422-10.572-29.25-29.269a47.092,47.092,0,0,1-.794-5.26c-.121-1.051-.19-2.1-.225-3.138-.586-15.194,5.95-27.872,16.42-30.026,8.831-1.8,17.815,4.466,23.782,14.986.415.759.846,1.536,1.241,2.329.138.292.294.586.432.9.344.74.69,1.464,1,2.241a57.1,57.1,0,0,1,2.794,8.813C478.514,190.082,475.91,197.293,473.184,200.931Z" transform="translate(-427.599 -137.796)" fill="#fcd6b1"/>
        </g>
      </g>
      <g id="Group_6950" data-name="Group 6950" transform="translate(48.236 52.898)">
        <g id="Group_6949" data-name="Group 6949">
          <path id="Path_29834" data-name="Path 29834" d="M435.971,160.542s-10.712-7.072-12-1.719,17.85,19.705,21.282,16.251S435.971,160.542,435.971,160.542Z" transform="translate(-423.912 -156.82)" fill="#fcd6b1"/>
        </g>
      </g>
      <g id="Group_6952" data-name="Group 6952" transform="translate(46.036)">
        <g id="Group_6951" data-name="Group 6951">
          <path id="Path_29835" data-name="Path 29835" d="M468.876,153.025l-.448-.052a63.157,63.157,0,0,0-7.814-.225c-.465,0-.965.035-1.449.052a52.731,52.731,0,0,0-10,1.432q-.672.156-1.345.363a26.751,26.751,0,0,0-9.227,4.518,10.051,10.051,0,0,0-1.138.982,16.633,16.633,0,0,0-4.174,5.848c-1.5,3.5-5.364-6.365-7.933-13.851-.569-1.655-1.071-3.19-1.466-4.432-.6-1.9-.984-3.14-.984-3.14l.069-.067c.173-.173.742-.69,1.588-1.415.482-.4,1.086-.88,1.776-1.4l.208-.156a.378.378,0,0,0,.086-.069,37.66,37.66,0,0,1,6.657-3.967c.655-.292,1.293-.569,1.931-.828.534-.223,1.068-.448,1.587-.638a51.312,51.312,0,0,1,11.366-3.069q.749-.13,1.5-.208a55.672,55.672,0,0,1,9.105-.277c.465.017.95.035,1.414.069,1.432.087,2.9.208,4.38.346,2.742.26,4.968.655,5.779,1.19C475.534,137.572,468.876,153.025,468.876,153.025Z" transform="translate(-422.895 -132.362)" fill="#191919"/>
        </g>
      </g>
      <g id="Group_6954" data-name="Group 6954" transform="translate(86.401 43.048)">
        <g id="Group_6953" data-name="Group 6953">
          <path id="Path_29836" data-name="Path 29836" d="M448.764,166.547a.413.413,0,0,1-.149-.028.429.429,0,0,1-.253-.554l1.726-4.652c-1.7-.725-8.184-3.791-8.528-8.584a.432.432,0,1,1,.861-.063c.348,4.862,8.29,7.972,8.37,8a.433.433,0,0,1,.251.554l-1.873,5.044A.433.433,0,0,1,448.764,166.547Z" transform="translate(-441.559 -152.266)" fill="#c1966b"/>
        </g>
      </g>
      <g id="Group_6956" data-name="Group 6956" transform="translate(62.168 37.211)">
        <g id="Group_6955" data-name="Group 6955">
          <path id="Path_29837" data-name="Path 29837" d="M430.369,157.641c-.353-.965,5.511-7.373,9.73-7.985s5.608,2.122,4.615,2.083a19.057,19.057,0,0,0-7.2,2.089C435.586,155.08,430.6,158.275,430.369,157.641Z" transform="translate(-430.354 -149.567)" fill="#2d2d2d"/>
        </g>
      </g>
      <g id="Group_6958" data-name="Group 6958" transform="translate(87.503 27.046)">
        <g id="Group_6957" data-name="Group 6957">
          <path id="Path_29838" data-name="Path 29838" d="M452.264,147.188c-1.216.275-2.394.478-3.169.625a16.7,16.7,0,0,0-6.171,2.967c-.7.718-2.063-1.732,1.436-4.2,1.566-1.105,4.183-1.6,6.651-1.713C451.436,145.622,451.859,146.4,452.264,147.188Z" transform="translate(-442.068 -144.867)" fill="#2d2d2d"/>
        </g>
      </g>
      <g id="Group_6960" data-name="Group 6960" transform="translate(88.703 58.646)">
        <g id="Group_6959" data-name="Group 6959">
          <path id="Path_29839" data-name="Path 29839" d="M451.374,159.9c-1.127,1.568-3.406,3.528-7.9,4.118a.968.968,0,0,0-.565,1.648,6.429,6.429,0,0,0,6.462,1.845c4.019-.9,4.276-4.633,3.748-7.276A.966.966,0,0,0,451.374,159.9Z" transform="translate(-442.623 -159.478)" fill="#fff"/>
        </g>
      </g>
      <g id="Group_6965" data-name="Group 6965" transform="translate(68.884 46.53)">
        <g id="Group_6962" data-name="Group 6962">
          <g id="Group_6961" data-name="Group 6961">
            <path id="Path_29840" data-name="Path 29840" d="M433.459,157.945l5.636-4.069.94,1.417-6.447,3.949Z" transform="translate(-433.459 -153.876)" fill="#2d2d2d"/>
          </g>
        </g>
        <g id="Group_6964" data-name="Group 6964" transform="translate(3.465 1.242)">
          <g id="Group_6963" data-name="Group 6963">
            <path id="Path_29841" data-name="Path 29841" d="M438.647,156.349c.753,1.427.675,2.948-.171,3.393s-2.143-.348-2.9-1.776-.677-2.946.171-3.393S437.894,154.924,438.647,156.349Z" transform="translate(-435.061 -154.45)" fill="#2d2d2d"/>
          </g>
        </g>
      </g>
      <g id="Group_6970" data-name="Group 6970" transform="translate(91.078 35.791)">
        <g id="Group_6967" data-name="Group 6967">
          <g id="Group_6966" data-name="Group 6966">
            <path id="Path_29842" data-name="Path 29842" d="M443.721,152.98l5.636-4.069.939,1.417-6.447,3.949Z" transform="translate(-443.721 -148.911)" fill="#2d2d2d"/>
          </g>
        </g>
        <g id="Group_6969" data-name="Group 6969" transform="translate(3.288 1.84)">
          <g id="Group_6968" data-name="Group 6968">
            <path id="Path_29843" data-name="Path 29843" d="M448.825,151.662c.753,1.427.677,2.946-.171,3.391s-2.143-.348-2.9-1.776-.675-2.946.171-3.391S448.072,150.234,448.825,151.662Z" transform="translate(-445.241 -149.761)" fill="#2d2d2d"/>
          </g>
        </g>
      </g>
      <g id="Group_6972" data-name="Group 6972" transform="translate(44.121 97.673)">
        <g id="Group_6971" data-name="Group 6971">
          <path id="Path_29844" data-name="Path 29844" d="M437.463,177.522l18.788,2.818,10.118-1.41,7.053,9.263-51.412,1.228S435.781,181.917,437.463,177.522Z" transform="translate(-422.01 -177.522)" fill="#75afbc"/>
        </g>
      </g>
      <g id="Group_6975" data-name="Group 6975" transform="translate(53.547 97.314)">
        <g id="Group_6974" data-name="Group 6974">
          <g id="Group_6973" data-name="Group 6973">
            <path id="Path_29845" data-name="Path 29845" d="M468.218,188.213l-3.958,10.792-14.037-9.473-12.869,9.884-10.987-15.68,1.773-1.536.433-.454.454-.476.433-.454,2.827-3.46s10.258,2.357,17.028,2.552c5.32.13,12.691-1.767,12.691-1.767l4.005,6.244.865,1.384Z" transform="translate(-426.368 -177.356)" fill="#fff"/>
          </g>
        </g>
      </g>
      <g id="Group_6977" data-name="Group 6977" transform="translate(6.164 103.694)">
        <g id="Group_6976" data-name="Group 6976">
          <path id="Path_29846" data-name="Path 29846" d="M404.46,488.663,419.1,296.237l-4.868-72.242c-2.686-22.71,16.533-35.28,28.53-40.62,2.312-1.03,9.082-3.069,9.082-3.069l-.973,4.2,6.125,99.444a891.155,891.155,0,0,1,0,109.616l-6,97.411Z" transform="translate(-404.46 -180.306)" fill="#fff"/>
        </g>
      </g>
      <g id="Group_6979" data-name="Group 6979" transform="translate(23.951 226.206)">
        <g id="Group_6978" data-name="Group 6978">
          <path id="Path_29847" data-name="Path 29847" d="M437.526,238.236l-23.105-1.285a.9.9,0,0,0-.623.218.87.87,0,0,0-.286.595l-.809,14.56a12.432,12.432,0,0,0,11.723,13.1q.357.019.707.02a12.432,12.432,0,0,0,12.4-11.742l.807-14.558A.86.86,0,0,0,437.526,238.236Zm-.958,1.674-.281,5.083L414.9,243.868l.286-5.148Zm-4.313,21.083a10.708,10.708,0,0,1-17.83-8.576l.381-6.826,21.386,1.125-.383,6.891A10.644,10.644,0,0,1,432.255,260.993Z" transform="translate(-412.684 -236.951)" fill="#75afbc"/>
        </g>
      </g>
      <g id="Group_6981" data-name="Group 6981" transform="translate(103.694 226.834)">
        <g id="Group_6980" data-name="Group 6980">
          <path id="Path_29848" data-name="Path 29848" d="M465.955,264.043a11.234,11.234,0,0,1-4.812,1.068h-.171a11.43,11.43,0,0,1-11.417-11.417V238.1a.864.864,0,0,1,.861-.863h14.316l-.138,1.724H451.278v4.57h13.47l.1,1.726H451.278v8.433a9.7,9.7,0,0,0,9.694,9.694h.171a9.661,9.661,0,0,0,4.708-1.224Z" transform="translate(-449.554 -237.241)" fill="#75afbc"/>
        </g>
      </g>
      <g id="Group_6983" data-name="Group 6983" transform="translate(51.999 56.386)">
        <g id="Group_6982" data-name="Group 6982">
          <path id="Path_29849" data-name="Path 29849" d="M427.056,162.37a.437.437,0,0,1-.337-.162c-1-1.239-1.291-2.182-.9-2.883.625-1.118,2.738-.88,2.976-.85a.431.431,0,1,1-.11.854c-.569-.071-1.843-.065-2.113.417-.19.34.108,1.04.818,1.921a.431.431,0,0,1-.335.7Z" transform="translate(-425.652 -158.433)" fill="#c1966b"/>
        </g>
      </g>
      <g id="Group_6986" data-name="Group 6986" transform="translate(46.971 9.246)">
        <g id="Group_6985" data-name="Group 6985">
          <g id="Group_6984" data-name="Group 6984">
            <path id="Path_29850" data-name="Path 29850" d="M432.827,172.613c-4.881-8.124-10.055-19.4-9.452-29.923a25.87,25.87,0,0,1,.673-4.622c0-.035.017-.069.017-.1a18.031,18.031,0,0,1,1.758-1.328v.035a26.217,26.217,0,0,0-.982,10.451c.707,7.832,4.157,15.851,7.76,22.353C432.637,170.509,432.706,171.562,432.827,172.613Z" transform="translate(-423.328 -136.637)" fill="#0a0a0a"/>
          </g>
        </g>
      </g>
      <g id="Group_6989" data-name="Group 6989" transform="translate(57.253 3.623)">
        <g id="Group_6988" data-name="Group 6988">
          <g id="Group_6987" data-name="Group 6987">
            <path id="Path_29851" data-name="Path 29851" d="M432.559,157.166a10.045,10.045,0,0,0-1.138.982c-2.742-7.07-4.313-14.8-2.673-21.9a16.156,16.156,0,0,1,.43-1.57c.534-.223,1.068-.448,1.587-.638-.208.569-.381,1.155-.536,1.743C428.472,142.608,429.921,150.18,432.559,157.166Z" transform="translate(-428.082 -134.037)" fill="#0a0a0a"/>
          </g>
        </g>
      </g>
    </g>
    <g id="Group_6992" data-name="Group 6992" transform="translate(73.625 253.838)">
      <g id="Group_6991" data-name="Group 6991">
        <rect id="Rectangle_60" data-name="Rectangle 60" width="12.72" height="20.53" fill="#cecccd"/>
      </g>
    </g>
  </g>
  <g id="Group_6994" data-name="Group 6994" transform="translate(267.229 135.44)">
    <path id="Path_29852" data-name="Path 29852" d="M854.057,373.123c-.043.844-.108,1.752-.195,2.747-2.617,28.657-27.533,121.507-47.387,149.732-20.547,29.2-151.4,99.49-174.107,105.978-8.846,2.53-22.861,6.4-38.3,7.938-24.2,2.422-51.929-.887-68.756-24.159a92.053,92.053,0,0,1-6.921-12c-2.379-4.78-4.931-10.49-7.548-16.848-.606-1.471-1.211-3.006-1.817-4.564-8.176-20.871-16.286-47.733-19.4-72.562-2.79-22.277-4.153-68.756-6.337-143.135-.043-1.211-.065-2.422-.108-3.634-.065-2.466-.151-4.953-.216-7.483-.065-2.79-.151-5.623-.238-8.478q-.325-10.252-.671-21.109a256.82,256.82,0,0,1,6.835-67.977c.368-1.557.757-3.093,1.146-4.607.389-1.449.779-2.9,1.146-4.326.13-.411.238-.844.346-1.254,14.772-52.686,41.353-84.047,41.353-84.047C595.6,73.573,677.788,80.062,677.788,80.062c51.907,4.326,84.35,18.384,137.339,82.187S855.139,348.251,854.057,373.123Z" transform="translate(-481.913 -79.958)" fill="#fff"/>
  </g>
  <g id="Group_6995" data-name="Group 6995" transform="translate(267.229 296.068)">
    <path id="Path_29853" data-name="Path 29853" d="M526.391,347.711c-14.512,22.537-4.628,30.452,3.7,37.309,3.158,2.6,15.3,3.779,10.611,4.183-39.508,3.419-20.478,43.713,6.1,90.862a19.587,19.587,0,0,1,2.027,7.84c-.022,1.362,2.52,1.427,2.217,2.92-22.818-.476-38.217,7.592-38.476,7.721a2.158,2.158,0,0,1-2.509-.346c-.216-.541-.433-1.1-.649-1.665-8.327-21-14.108-33.772-19.79-73.514-3.175-22.225-4.153-68.756-6.337-143.135-.043-1.211-.065-2.422-.108-3.634-.065-2.466-.151-4.953-.216-7.483-.065-2.79-.151-5.623-.238-8.478q-.325-10.252-.671-21.109a256.82,256.82,0,0,1,6.835-67.977c.368-1.557.757-3.093,1.146-4.607.389-1.449.779-2.9,1.146-4.326a47.72,47.72,0,0,1,7.808-.562s23.315-23.986,62.267,13.929c20.287,19.746,12.977,75.374,3.785,96.115C556.411,291.24,541.768,323.834,526.391,347.711Z" transform="translate(-481.913 -154.226)" fill="#d9e6e8"/>
  </g>
  <g id="Group_6998" data-name="Group 6998" transform="translate(445.684 289.408)">
    <g id="Group_6996" data-name="Group 6996">
      <path id="Path_29854" data-name="Path 29854" d="M584.125,161a9.851,9.851,0,1,1-9.852-9.852A9.851,9.851,0,0,1,584.125,161Z" transform="translate(-564.424 -151.147)" fill="#8dadb2"/>
    </g>
    <g id="Group_6997" data-name="Group 6997" transform="translate(4.566 4.568)">
      <path id="Path_29855" data-name="Path 29855" d="M577.1,158.543a5.285,5.285,0,1,1-5.286-5.284A5.285,5.285,0,0,1,577.1,158.543Z" transform="translate(-566.535 -153.259)" fill="#494949"/>
    </g>
  </g>
  <g id="Group_7001" data-name="Group 7001" transform="translate(526.319 742.453)">
    <g id="Group_6999" data-name="Group 6999">
      <circle id="Ellipse_23" data-name="Ellipse 23" cx="7.699" cy="7.699" r="7.699" fill="#8dadb2"/>
    </g>
    <g id="Group_7000" data-name="Group 7000" transform="translate(3.568 3.569)">
      <path id="Path_29856" data-name="Path 29856" d="M611.618,366.4a4.131,4.131,0,1,1-4.131-4.129A4.131,4.131,0,0,1,611.618,366.4Z" transform="translate(-603.356 -362.267)" fill="#494949"/>
    </g>
  </g>
  <g id="Group_7004" data-name="Group 7004" transform="translate(469.549 798.548)">
    <g id="Group_7002" data-name="Group 7002" transform="translate(0)">
      <circle id="Ellipse_24" data-name="Ellipse 24" cx="7.699" cy="7.699" r="7.699" fill="#8dadb2"/>
    </g>
    <g id="Group_7003" data-name="Group 7003" transform="translate(3.568 3.569)">
      <path id="Path_29857" data-name="Path 29857" d="M585.37,392.334a4.131,4.131,0,1,1-4.131-4.131A4.13,4.13,0,0,1,585.37,392.334Z" transform="translate(-577.108 -388.203)" fill="#494949"/>
    </g>
  </g>
  <g id="Group_7007" data-name="Group 7007" transform="translate(582.783 732.429)">
    <g id="Group_7005" data-name="Group 7005" transform="translate(0)">
      <path id="Path_29858" data-name="Path 29858" d="M643.21,363.682a7.7,7.7,0,1,1-7.7-7.7A7.7,7.7,0,0,1,643.21,363.682Z" transform="translate(-627.813 -355.982)" fill="#8dadb2"/>
    </g>
    <g id="Group_7006" data-name="Group 7006" transform="translate(3.569 3.569)">
      <path id="Path_29859" data-name="Path 29859" d="M637.723,361.763a4.13,4.13,0,1,1-4.129-4.131A4.13,4.13,0,0,1,637.723,361.763Z" transform="translate(-629.463 -357.632)" fill="#494949"/>
    </g>
  </g>
  <g id="Group_7010" data-name="Group 7010" transform="translate(531.662 314.238)">
    <g id="Group_7008" data-name="Group 7008">
      <path id="Path_29860" data-name="Path 29860" d="M617.264,169.172a6.544,6.544,0,1,1-6.545-6.545A6.544,6.544,0,0,1,617.264,169.172Z" transform="translate(-604.177 -162.627)" fill="#8dadb2"/>
    </g>
    <g id="Group_7009" data-name="Group 7009" transform="translate(3.032 3.034)">
      <path id="Path_29861" data-name="Path 29861" d="M612.6,167.54a3.511,3.511,0,1,1-3.512-3.51A3.51,3.51,0,0,1,612.6,167.54Z" transform="translate(-605.579 -164.03)" fill="#494949"/>
    </g>
  </g>
  <g id="Group_7013" data-name="Group 7013" transform="translate(492.957 298.73)">
    <g id="Group_7011" data-name="Group 7011">
      <path id="Path_29862" data-name="Path 29862" d="M600.9,162.765a7.307,7.307,0,1,1-7.306-7.308A7.308,7.308,0,0,1,600.9,162.765Z" transform="translate(-586.281 -155.457)" fill="#8dadb2"/>
    </g>
    <g id="Group_7012" data-name="Group 7012" transform="translate(3.387 3.387)">
      <path id="Path_29863" data-name="Path 29863" d="M595.687,160.944a3.92,3.92,0,1,1-3.919-3.921A3.918,3.918,0,0,1,595.687,160.944Z" transform="translate(-587.847 -157.023)" fill="#494949"/>
    </g>
  </g>
  <g id="Group_7016" data-name="Group 7016" transform="translate(293.29 277.608)">
    <g id="Group_7014" data-name="Group 7014">
      <path id="Path_29864" data-name="Path 29864" d="M508.577,153a7.307,7.307,0,1,1-7.308-7.306A7.307,7.307,0,0,1,508.577,153Z" transform="translate(-493.963 -145.691)" fill="#8dadb2"/>
    </g>
    <g id="Group_7015" data-name="Group 7015" transform="translate(3.387 3.387)">
      <path id="Path_29865" data-name="Path 29865" d="M503.369,151.176a3.92,3.92,0,1,1-3.921-3.919A3.92,3.92,0,0,1,503.369,151.176Z" transform="translate(-495.529 -147.257)" fill="#494949"/>
    </g>
  </g>
  <g id="Group_7019" data-name="Group 7019" transform="translate(337.359 278.869)">
    <g id="Group_7017" data-name="Group 7017" transform="translate(0)">
      <path id="Path_29866" data-name="Path 29866" d="M534.04,156.126a9.851,9.851,0,1,1-9.849-9.852A9.852,9.852,0,0,1,534.04,156.126Z" transform="translate(-514.339 -146.274)" fill="#8dadb2"/>
    </g>
    <g id="Group_7018" data-name="Group 7018" transform="translate(4.566 4.566)">
      <path id="Path_29867" data-name="Path 29867" d="M527.02,153.671a5.285,5.285,0,1,1-5.284-5.286A5.284,5.284,0,0,1,527.02,153.671Z" transform="translate(-516.45 -148.385)" fill="#494949"/>
    </g>
  </g>
  <g id="Group_7020" data-name="Group 7020" transform="translate(561.741 234.787)">
    <path id="Path_29868" data-name="Path 29868" d="M668.681,125.892s-37.849,17.934-48.663,67.486,25.03,122.614,75.506,129.07c0,0,10.362-57.392,9.432-71.678C699.189,162.193,668.681,125.892,668.681,125.892Z" transform="translate(-618.084 -125.892)" fill="#3f3f3f"/>
  </g>
  <g id="Group_7021" data-name="Group 7021" transform="translate(560.768 267.865)">
    <path id="Path_29869" data-name="Path 29869" d="M658.974,247.142l23.207,19.1L659.3,286.916s-13.583-10.252-26.148-34.994c-.346-.627-.67-1.276-.995-1.947-1.32-2.7-2.639-5.58-3.915-8.608-.238-.541-.476-1.168-.735-1.86-1.211-3.266-2.639-7.808-3.655-10.663a101.327,101.327,0,0,1-6.207-32.2v-.389a87.348,87.348,0,0,1,.346-9.019c.087-.735.151-1.471.238-2.206,2.12-17.692,9.516-31.707,16.286-43.84l23.51,14.448L646.8,179.156l11.8,14.013,28.264-4.542,6.914,36.93-29.155,3.2Z" transform="translate(-617.634 -141.186)" fill="#143559"/>
  </g>
  <g id="Group_7023" data-name="Group 7023" transform="translate(561.122 311.554)">
    <g id="Group_7022" data-name="Group 7022">
      <path id="Path_29870" data-name="Path 29870" d="M621.3,161.386c-1.1,0-2.185.043-3.266.151-.087.735-.151,1.471-.238,2.206a31.128,31.128,0,0,1,3.5-.195,32.371,32.371,0,0,1,10.663,62.938c.324.67.649,1.319.995,1.947A34.536,34.536,0,0,0,621.3,161.386Z" transform="translate(-617.798 -161.386)" fill="#a1a8d6"/>
    </g>
  </g>
  <g id="Group_7024" data-name="Group 7024" transform="translate(635.311 366.749)">
    <path id="Path_29871" data-name="Path 29871" d="M735.823,186.906c-.238,1.665-.778,4.326-1.536,7.635-.151.735-.324,1.514-.519,2.314-4.174,17.995-13.236,50.307-16.87,51.994-1.016.454-29.739,9.668-43.148,13.95-.735.238-1.427.454-2.055.67-2.92.93-4.715,1.492-4.715,1.492L652.1,224.431,687.073,209.2l8.154,20.136,11.528-9.408,2.963-27.749Z" transform="translate(-652.1 -186.906)" fill="#143559"/>
  </g>
  <g id="Group_7026" data-name="Group 7026" transform="translate(642.708 374.383)">
    <g id="Group_7025" data-name="Group 7025" transform="translate(0)">
      <path id="Path_29872" data-name="Path 29872" d="M730.31,190.436c-.151.735-.324,1.514-.519,2.314l-15.464,2.812-1.687,27.36a1.092,1.092,0,0,1-.324.692L692.266,243.62a1.082,1.082,0,0,1-.973.281,1.03,1.03,0,0,1-.8-.649l-10.706-26.365-21.823,9.257,11.809,32.55,1.817,5.018a1.084,1.084,0,0,1-.649,1.384,1.1,1.1,0,0,1-.368.065,1.064,1.064,0,0,1-1.016-.714l-1.838-5.083-12.133-33.437a1.082,1.082,0,0,1,.584-1.363l23.791-10.1a1.137,1.137,0,0,1,.844,0,1.072,1.072,0,0,1,.584.606l10.49,25.867L710.5,222.381l1.709-27.792a1.06,1.06,0,0,1,.887-.995Z" transform="translate(-655.52 -190.436)" fill="#a1a8d6"/>
    </g>
  </g>
  <g id="Group_7027" data-name="Group 7027" transform="translate(579.214 423.288)">
    <path id="Path_29873" data-name="Path 29873" d="M676.589,224.832s52.989-24.49,75.339-2.861,12.977,53.348-5.768,75.7-71.373,77.139-97.327,77.139-24.836-6.54-19.79-23.123S676.589,224.832,676.589,224.832Z" transform="translate(-626.163 -213.047)" fill="#fff"/>
  </g>
  <g id="Group_7029" data-name="Group 7029" transform="translate(653.11 445.679)">
    <g id="Group_7028" data-name="Group 7028" transform="translate(0)">
      <path id="Path_29874" data-name="Path 29874" d="M693.852,276.888a2.134,2.134,0,0,1-.91-.2,2.159,2.159,0,0,1-1.047-2.872c8.868-19.037,10.3-32.358,4.248-39.582-9.138-10.922-32.858-4.793-33.1-4.73a2.163,2.163,0,1,1-1.107-4.183c1.081-.285,26.635-6.869,37.523,6.134,7.22,8.627,5.991,23.495-3.648,44.186A2.161,2.161,0,0,1,693.852,276.888Z" transform="translate(-660.33 -223.4)" fill="#8dadb2"/>
    </g>
  </g>
  <g id="Group_7031" data-name="Group 7031" transform="translate(629.552 519.987)">
    <g id="Group_7030" data-name="Group 7030" transform="translate(0)">
      <path id="Path_29875" data-name="Path 29875" d="M651.6,289.958a2.163,2.163,0,0,1-1.012-4.075c18.786-9.93,32.987-27.158,33.128-27.331a2.163,2.163,0,1,1,3.35,2.738c-.6.733-14.9,18.083-34.458,28.415A2.149,2.149,0,0,1,651.6,289.958Z" transform="translate(-649.438 -257.758)" fill="#8dadb2"/>
    </g>
  </g>
  <g id="Group_7033" data-name="Group 7033" transform="translate(294.339 430.141)">
    <g id="Group_7032" data-name="Group 7032">
      <path id="Path_29876" data-name="Path 29876" d="M788.915,326.087a2.213,2.213,0,0,1-.541,1.557C783.66,333.008,686.03,442.706,616.6,442.706a52.249,52.249,0,0,1-28.441-7.808c-18.968-11.96-36.876-15.853-51.691-16.156-22.818-.476-38.217,7.591-38.476,7.721a13.325,13.325,0,0,0-1.73,1.6c-.606-1.471-1.211-3.006-1.817-4.563.779-.433,1.341-.735,1.492-.822.259-.151,16.719-8.824,41.007-8.219,15.4.346,33.956,4.434,53.53,16.783,61.835,39.039,184.575-95.25,194.07-105.8-.3-8.932-.476-80.392,49.074-109.222,1.536.368,4.607.844,5.667,1.211C788.05,246.344,788.85,325.265,788.915,326.087Z" transform="translate(-494.448 -216.216)" fill="#8dadb2"/>
    </g>
  </g>
  <g id="Group_7034" data-name="Group 7034" transform="translate(304.579 548.011)">
    <path id="Path_29877" data-name="Path 29877" d="M633.2,294.055c6.668-3.244-46.4-7.274-58.891-14.465-24.152-13.9-26.613,5.273-35.732,5.273-6.85,0-5.809-10.684-14.554-13.518-8.681-2.814-18.488,4.488-23.867,8.2a2.241,2.241,0,0,0,.863,4.047c6.475,1.226,17.439,3.545,21.516,5.868,1.33.757,13.524,18.384,34.335,6.488C556.865,295.947,626.268,297.424,633.2,294.055Z" transform="translate(-499.183 -270.715)" fill="#8dadb2"/>
  </g>
  <g id="Group_7036" data-name="Group 7036" transform="translate(329.039 588.743)">
    <g id="Group_7035" data-name="Group 7035">
      <path id="Path_29878" data-name="Path 29878" d="M529.9,301.079c-8.331-.766-13.8-4.442-17.716-7.081l-.729-.489a2.162,2.162,0,1,1,2.4-3.6l.744.5c6.352,4.274,15.957,10.743,36.052,2.543a2.163,2.163,0,0,1,1.635,4.006C543.088,300.709,535.78,301.619,529.9,301.079Z" transform="translate(-510.492 -289.547)" fill="#8dadb2"/>
    </g>
  </g>
  <g id="Group_7037" data-name="Group 7037" transform="translate(560.776 322.627)">
    <path id="Path_29879" data-name="Path 29879" d="M643.505,188.718a22.215,22.215,0,0,1-16,21.347c-1.211-3.266-2.639-7.808-3.655-10.663a101.32,101.32,0,0,1-6.207-32.2v-.389a22.734,22.734,0,0,1,3.655-.3A22.2,22.2,0,0,1,643.505,188.718Z" transform="translate(-617.638 -166.506)" fill="#3f3f3f"/>
  </g>
  <g id="Group_7038" data-name="Group 7038" transform="translate(348.472 512.527)">
    <path id="Path_29880" data-name="Path 29880" d="M519.477,270.477c.482-.08,11.266-7.228,21.9-8.085C554.625,261.328,570.12,266,570.12,266s-22.253-9.356-25.768-11.158-10.33,1.363-13.734,3.582S519.477,270.477,519.477,270.477Z" transform="translate(-519.477 -254.308)" fill="#d9e6e8"/>
  </g>
  <g id="Group_7040" data-name="Group 7040" transform="translate(275.349 296.491)">
    <g id="Group_7039" data-name="Group 7039">
      <path id="Path_29881" data-name="Path 29881" d="M617.859,381.635a2.132,2.132,0,0,1-2.358,1.947c-16.221-1.557-19.249-3.417-23.812-6.229a49.342,49.342,0,0,0-6.229-3.417c-8.262-3.807-14.361,1.817-19.876,7.894-1.687,1.86-2.812,3.114-4,3.655A45.837,45.837,0,0,1,543,389.529a35.533,35.533,0,0,1-16.2-3.655c-6.4-3.288-10.6-8.478-11.852-14.621-2.985-14.794,5.234-26.646,14.729-40.337,6.532-9.408,13.907-20.049,18.968-33.48.584-1.514,1.233-3.2,1.925-5,10.425-27.143,32.14-83.614,6.878-112.077-12.977-14.6-27.641-21.931-43.624-21.607-9.992.173-19.573,3.287-28.16,7.613q.746-2.822,1.492-5.58a67.991,67.991,0,0,1,26.581-6.359c17.259-.324,33.091,7.462,46.933,23.077,27.035,30.431,4.672,88.546-6.056,116.489-.692,1.8-1.341,3.46-1.9,4.974-5.256,13.907-12.826,24.807-19.487,34.41-9.3,13.409-16.654,24.007-14.037,37.006.995,4.823,4.391,8.954,9.581,11.636,8.651,4.412,20.525,4.239,31.015-.5a18.862,18.862,0,0,0,2.6-2.6c4.563-5.039,13.042-14.383,24.894-8.932a56.543,56.543,0,0,1,6.7,3.677c4.174,2.574,6.7,4.131,21.931,5.6A2.161,2.161,0,0,1,617.859,381.635Z" transform="translate(-485.668 -154.422)" fill="#d9e6e8"/>
    </g>
  </g>
  <g id="Group_7041" data-name="Group 7041" transform="translate(188.943 356.774)">
    <path id="Path_29882" data-name="Path 29882" d="M445.938,182.339s3.8.3,5.589,2.258c4.228,4.611,15.032,22.487,15.032,22.487L452.77,225.2l11.355,4.866-8.889,37.579-5.1,26.233-4.423-111.45A.125.125,0,0,1,445.938,182.339Z" transform="translate(-445.717 -182.294)" fill="#c3dbda"/>
  </g>
  <g id="Group_7042" data-name="Group 7042" transform="translate(117.498 386.791)">
    <path id="Path_29883" data-name="Path 29883" d="M443.831,196.173l-12.6,20.793,13.788,18.114-32.334-17.357L448.1,278.736a26.057,26.057,0,0,0-.1-3.908Z" transform="translate(-412.684 -196.173)" fill="#c3dbda"/>
  </g>
  <g id="Group_7043" data-name="Group 7043" transform="translate(733.523 325.973)">
    <path id="Path_29884" data-name="Path 29884" d="M697.623,173.179c2.522,18.023,23.2,27.161,27.907,25.1S736.883,186.8,736.883,186.8s-13.885-13.148-15.92-14.42.828,7.607,3.043,9.294S695.409,157.36,697.623,173.179Z" transform="translate(-697.509 -168.053)" fill="#fcd6b1"/>
  </g>
  <g id="Group_7044" data-name="Group 7044" transform="translate(169.135 348.604)">
    <path id="Path_29885" data-name="Path 29885" d="M436.859,178.534l-.3,11.043,1.816-1.4,1.739,1.174-.54-10.84Z" transform="translate(-436.559 -178.517)" fill="#416b72"/>
  </g>
  <g id="Group_7051" data-name="Group 7051" transform="translate(620.071 533.539)">
    <g id="Group_7045" data-name="Group 7045" transform="translate(0)">
      <path id="Path_29886" data-name="Path 29886" d="M659.891,574.279l-14.838-.657,99.9-309.6,13.63,4.4Z" transform="translate(-645.054 -264.023)" fill="#608087"/>
    </g>
    <g id="Group_7046" data-name="Group 7046" transform="translate(25.564 227.021)">
      <rect id="Rectangle_61" data-name="Rectangle 61" width="14.322" height="57.307" transform="translate(58.725 7.817) rotate(97.84)" fill="#608087"/>
    </g>
    <g id="Group_7047" data-name="Group 7047" transform="translate(43.813 171.045)">
      <rect id="Rectangle_62" data-name="Rectangle 62" width="14.322" height="54.114" transform="translate(55.89 10.91) rotate(101.631)" fill="#608087"/>
    </g>
    <g id="Group_7048" data-name="Group 7048" transform="translate(60.71 118.8)">
      <rect id="Rectangle_63" data-name="Rectangle 63" width="14.322" height="54.114" transform="translate(55.891 10.911) rotate(101.632)" fill="#608087"/>
    </g>
    <g id="Group_7049" data-name="Group 7049" transform="translate(75.88 66.66)">
      <rect id="Rectangle_64" data-name="Rectangle 64" width="14.322" height="54.114" transform="translate(55.89 10.91) rotate(101.631)" fill="#608087"/>
    </g>
    <g id="Group_7050" data-name="Group 7050" transform="translate(56.72 64.841)">
      <path id="Path_29887" data-name="Path 29887" d="M686.328,532.848h-15.05L748.35,294l9.426,17.427Z" transform="translate(-671.279 -294.003)" fill="#608087"/>
    </g>
  </g>
  <g id="Group_7059" data-name="Group 7059" transform="translate(692.448 458.514)">
    <g id="Group_7052" data-name="Group 7052" transform="translate(0 13.287)">
      <path id="Path_29888" data-name="Path 29888" d="M840.693,603.317,826,605.19,678.518,240.852l13.276-5.374Z" transform="translate(-678.518 -235.478)" fill="#e7f6f7"/>
    </g>
    <g id="Group_7053" data-name="Group 7053" transform="translate(38.624 66.785)">
      <rect id="Rectangle_65" data-name="Rectangle 65" width="14.322" height="57.307" transform="translate(53.12 0) rotate(67.963)" fill="#e7f6f7"/>
    </g>
    <g id="Group_7054" data-name="Group 7054" transform="translate(60.684 122.477)">
      <rect id="Rectangle_66" data-name="Rectangle 66" width="14.322" height="57.307" transform="translate(53.12 0) rotate(67.963)" fill="#e7f6f7"/>
    </g>
    <g id="Group_7055" data-name="Group 7055" transform="translate(84.055 188.898)">
      <rect id="Rectangle_67" data-name="Rectangle 67" width="14.322" height="57.307" transform="translate(53.12 0) rotate(67.962)" fill="#e7f6f7"/>
    </g>
    <g id="Group_7056" data-name="Group 7056" transform="translate(112.716 249.82)">
      <rect id="Rectangle_68" data-name="Rectangle 68" width="14.322" height="57.307" transform="translate(53.12 0) rotate(67.962)" fill="#e7f6f7"/>
    </g>
    <g id="Group_7057" data-name="Group 7057" transform="translate(56.307)">
      <path id="Path_29889" data-name="Path 29889" d="M866.82,597.405l-14.787,1.642L704.552,234.709l13.276-5.374Z" transform="translate(-704.552 -229.335)" fill="#e7f6f7"/>
    </g>
    <g id="Group_7058" data-name="Group 7058" transform="translate(135.09 306.292)">
      <rect id="Rectangle_69" data-name="Rectangle 69" width="14.322" height="57.307" transform="translate(53.12 0) rotate(67.963)" fill="#e7f6f7"/>
    </g>
  </g>
  <g id="Group_7060" data-name="Group 7060" transform="translate(804.242 457.017)">
    <path id="Path_29890" data-name="Path 29890" d="M793.36,251.518V387.869l-61.644-.083-1.508-111.993,22.433-47.15Z" transform="translate(-730.207 -228.643)" fill="#ccc"/>
  </g>
  <g id="Group_7077" data-name="Group 7077" transform="translate(762.827 413.59)">
    <g id="Group_7074" data-name="Group 7074" transform="translate(0 26.64)">
      <g id="Group_7062" data-name="Group 7062" transform="translate(80.097 315.005)">
        <g id="Group_7061" data-name="Group 7061">
          <path id="Path_29891" data-name="Path 29891" d="M783.03,369.237s-16.985,4.676-29.776,7.1a6.32,6.32,0,0,0-5.163,6.2v.026l31.469.357c6.2,0,15.237-.385,20.949-3.205l-.169,2.848h10.686l-.2-9.341a6.833,6.833,0,0,0-6.832-6.69Z" transform="translate(-748.092 -366.527)" fill="#0c0c0c"/>
        </g>
      </g>
      <g id="Group_7064" data-name="Group 7064" transform="translate(76.658 16.788)">
        <g id="Group_7063" data-name="Group 7063">
          <path id="Path_29892" data-name="Path 29892" d="M797.893,228.643l-3.274,150.971S813.123,512.143,814.1,530.6l-43.637,2.647L751.375,383.157,746.5,243.426Z" transform="translate(-746.502 -228.643)" fill="#143559"/>
        </g>
      </g>
      <g id="Group_7066" data-name="Group 7066" transform="translate(110.038 42.245)" opacity="0.24">
        <g id="Group_7065" data-name="Group 7065">
          <path id="Path_29893" data-name="Path 29893" d="M784.012,517.719l1.706-.249L763.651,367.132l.675-126.708-1.725-.01-.666,126.838Z" transform="translate(-761.935 -240.413)"/>
        </g>
      </g>
      <g id="Group_7073" data-name="Group 7073">
        <g id="Group_7068" data-name="Group 7068" transform="translate(0 206.409)">
          <g id="Group_7067" data-name="Group 7067">
            <path id="Path_29894" data-name="Path 29894" d="M734.782,324.413s-8.545,2.859-18.957,5.44a6.267,6.267,0,0,0-4.75,6.536h0l31.411-1.931c6.181-.452,15.168-1.492,20.659-4.721l.041,2.851,10.658-.776-.878-9.3a6.836,6.836,0,0,0-7.3-6.173Z" transform="translate(-711.058 -316.317)" fill="#0c0c0c"/>
          </g>
        </g>
        <g id="Group_7070" data-name="Group 7070" transform="translate(5.619)">
          <g id="Group_7069" data-name="Group 7069">
            <path id="Path_29895" data-name="Path 29895" d="M751.8,220.881l-38.141,62.992s17.75,131.465,17.049,151.858l40.942-.275L758.42,293.606l26.538-33.653V252.2Z" transform="translate(-713.656 -220.881)" fill="#143559"/>
          </g>
        </g>
        <g id="Group_7072" data-name="Group 7072" transform="translate(25.646 26.045)" opacity="0.24">
          <g id="Group_7071" data-name="Group 7071">
            <path id="Path_29896" data-name="Path 29896" d="M732.074,421.647l2.152-.015L726.07,275.367l35.2-41.5-2.147-.94-36.207,41.543Z" transform="translate(-722.916 -232.923)"/>
          </g>
        </g>
      </g>
    </g>
    <g id="Group_7076" data-name="Group 7076" transform="translate(41.37)">
      <g id="Group_7075" data-name="Group 7075">
        <path id="Path_29897" data-name="Path 29897" d="M730.231,244.4c.744,19.361,20.041,25.417,33.982,24.332,26.75-2.083,50.952-7.559,50.21-26.921s-23.082-34.222-49.894-33.193S729.49,225.034,730.231,244.4Z" transform="translate(-730.186 -208.564)" fill="#143559"/>
      </g>
    </g>
  </g>
  <g id="Group_7079" data-name="Group 7079" transform="translate(801.61 289.391)">
    <g id="Group_7078" data-name="Group 7078" transform="translate(0)">
      <path id="Path_29898" data-name="Path 29898" d="M801.773,299.132s-.2-82.994,7.016-116.92c1.773-8.346-10.687-25.093-18.445-28.644l-2.109-2.178-48.876-.251-1.17.962c-11.422,10.375-9.209,35.619-8.668,57.113l2.1,96.433Z" transform="translate(-728.99 -151.139)" fill="#75afbc"/>
    </g>
  </g>
  <g id="Group_7081" data-name="Group 7081" transform="translate(813.032 242.926)">
    <g id="Group_7080" data-name="Group 7080" transform="translate(0)">
      <path id="Path_29899" data-name="Path 29899" d="M764.877,130.3s-5.777,37.657,15.33,47.041l-45.936.712s12.107-18.181,2.53-35.853C736.8,142.2,758.233,126.3,764.877,130.3Z" transform="translate(-734.271 -129.655)" fill="#fcd6b1"/>
    </g>
  </g>
  <g id="Group_7083" data-name="Group 7083" transform="translate(818.162 254.038)">
    <g id="Group_7082" data-name="Group 7082" transform="translate(0)">
      <path id="Path_29900" data-name="Path 29900" d="M736.643,142.454s16.608-12.43,12.717-5.623a31.025,31.025,0,0,1-11.705,11.87Z" transform="translate(-736.643 -134.793)" fill="#c1966b"/>
    </g>
  </g>
  <g id="Group_7085" data-name="Group 7085" transform="translate(811.559 185.275)">
    <g id="Group_7084" data-name="Group 7084" transform="translate(0)">
      <path id="Path_29901" data-name="Path 29901" d="M733.653,140.322c.569,14.694,9.914,24.107,24.608,23.538,8.693-.327,16.678-2.777,21.282-9.4,1.259-1.81,4.451-4.983,7.486-9.382,4.812-6.966,6.313-15.641,2.621-23.265-.069-.156-.156-.311-.225-.465-.361-.725-.722-1.449-1.138-2.174a35.849,35.849,0,0,0-5.208-7.4l-.069-.069c-.046-.045-.125-.121-.227-.214-.448-.454-.9-.9-1.378-1.3a18.359,18.359,0,0,0-1.758-1.328,1.291,1.291,0,0,0-.208-.121.442.442,0,0,1-.086-.067,13.874,13.874,0,0,0-2.085-1.053c-2.191-.88-4.209-1.587-6.071-2.174-.519-.171-1-.327-1.484-.465a42.443,42.443,0,0,0-11.108-1.966c-.5-.017-.947-.017-1.38,0-4.674.19-6.123,1.81-6.123,1.81s-1.138,1.019-2.879,2.76c-.45.448.513,3.216-.006,3.75-2.673,2.777-7.617,4.46-10.669,8.891C733.616,125.917,733.428,134.458,733.653,140.322Z" transform="translate(-733.59 -103)" fill="#191919"/>
    </g>
  </g>
  <g id="Group_7088" data-name="Group 7088" transform="translate(848.612 201.449)">
    <g id="Group_7087" data-name="Group 7087">
      <g id="Group_7086" data-name="Group 7086">
        <path id="Path_29902" data-name="Path 29902" d="M750.722,150.421l1.036.776c.811-1.068,15.678-20.956,17.746-38.546-.361-.725-.722-1.449-1.138-2.174C767.263,128.31,750.93,150.146,750.722,150.421Z" transform="translate(-750.722 -110.478)" fill="#0a0a0a"/>
      </g>
    </g>
  </g>
  <g id="Group_7090" data-name="Group 7090" transform="translate(802.749 193.603)">
    <g id="Group_7089" data-name="Group 7089" transform="translate(0)">
      <path id="Path_29903" data-name="Path 29903" d="M777.6,137.228c-.022,1.017-.108,2.076-.216,3.136a45.512,45.512,0,0,1-.8,5.256c-3.828,18.687-19.184,26.992-29.241,29.263-7.527,1.687-12.869-1.644-15.291-4.866a11.614,11.614,0,0,1-2.271-5.688h-.022a24.533,24.533,0,0,1-.238-3.807c0-.5.022-1.038.043-1.6.043-1.06.13-2.249.281-3.547a145.449,145.449,0,0,1,3.093-17.216,145.592,145.592,0,0,1,5.277-15.745c4.564-11.593,14.145-17.021,22.969-15.226C771.651,109.35,778.183,122.024,777.6,137.228Z" transform="translate(-729.517 -106.85)" fill="#fcd6b1"/>
    </g>
  </g>
  <g id="Group_7092" data-name="Group 7092" transform="translate(834.301 234.787)">
    <g id="Group_7091" data-name="Group 7091">
      <path id="Path_29904" data-name="Path 29904" d="M753.98,129.616s10.712-7.075,12-1.722-17.85,19.705-21.284,16.251S753.98,129.616,753.98,129.616Z" transform="translate(-744.105 -125.892)" fill="#fcd6b1"/>
    </g>
  </g>
  <g id="Group_7094" data-name="Group 7094" transform="translate(811.621 181.889)">
    <g id="Group_7093" data-name="Group 7093">
      <path id="Path_29905" data-name="Path 29905" d="M737.064,122.1l.45-.052a63.271,63.271,0,0,1,7.812-.223c.465,0,.967.035,1.449.052a52.722,52.722,0,0,1,10,1.43c.448.1.9.225,1.345.363a26.753,26.753,0,0,1,9.227,4.518,10.116,10.116,0,0,1,1.14.984,16.628,16.628,0,0,1,4.172,5.846c1.5,3.5,5.364-6.363,7.935-13.848.569-1.657,1.068-3.192,1.464-4.434.6-1.9.984-3.138.984-3.138l-.069-.069c-.173-.173-.742-.69-1.587-1.414-.482-.4-1.086-.88-1.776-1.4l-.208-.156a.448.448,0,0,1-.086-.067,37.593,37.593,0,0,0-6.657-3.969c-.655-.292-1.293-.569-1.931-.826-.534-.225-1.069-.45-1.585-.64a51.342,51.342,0,0,0-11.366-3.069q-.753-.13-1.5-.208a55.451,55.451,0,0,0-9.108-.275c-.465.017-.947.035-1.414.069-1.43.087-2.9.205-4.38.344-2.742.26-4.968.655-5.777,1.19C730.407,106.644,737.064,122.1,737.064,122.1Z" transform="translate(-733.619 -101.434)" fill="#191919"/>
    </g>
  </g>
  <g id="Group_7096" data-name="Group 7096" transform="translate(812.615 215.276)">
    <g id="Group_7095" data-name="Group 7095">
      <path id="Path_29906" data-name="Path 29906" d="M748.729,124.943c.355-.962-5.511-7.371-9.73-7.983s-5.606,2.122-4.613,2.083a19.009,19.009,0,0,1,7.2,2.089C743.514,122.382,748.495,125.579,748.729,124.943Z" transform="translate(-734.078 -116.871)" fill="#2d2d2d"/>
    </g>
  </g>
  <g id="Group_7098" data-name="Group 7098" transform="translate(802.752 242.127)">
    <g id="Group_7097" data-name="Group 7097" transform="translate(0)">
      <path id="Path_29907" data-name="Path 29907" d="M738.213,131.341a6.393,6.393,0,0,1-5.58,3.742,4.817,4.817,0,0,1-3.115-.649c0-.5.022-1.038.043-1.6.043-1.06.13-2.249.281-3.547a12.145,12.145,0,0,0,7.332.67A.959.959,0,0,1,738.213,131.341Z" transform="translate(-729.518 -129.286)" fill="#fff"/>
    </g>
  </g>
  <g id="Group_7103" data-name="Group 7103" transform="translate(813.031 223.733)">
    <g id="Group_7100" data-name="Group 7100">
      <g id="Group_7099" data-name="Group 7099">
        <path id="Path_29908" data-name="Path 29908" d="M741.141,124.063l-6.128-3.281-.742,1.529,6.916,3.055Z" transform="translate(-734.271 -120.781)" fill="#2d2d2d"/>
      </g>
    </g>
    <g id="Group_7102" data-name="Group 7102" transform="translate(0.404 1.186)">
      <g id="Group_7101" data-name="Group 7101">
        <path id="Path_29909" data-name="Path 29909" d="M734.744,123.5c-.556,1.514-.277,3.008.623,3.339s2.076-.632,2.632-2.148a2.592,2.592,0,0,0-1.14-3.292C735.961,121.066,735.3,121.981,734.744,123.5Z" transform="translate(-734.458 -121.33)" fill="#2d2d2d"/>
      </g>
    </g>
  </g>
  <g id="Group_7105" data-name="Group 7105" transform="translate(811.141 278.244)">
    <g id="Group_7104" data-name="Group 7104" transform="translate(0)">
      <path id="Path_29910" data-name="Path 29910" d="M769.427,145.985l-18.451,4.135L740.316,147.1,733.4,158.512l51.823,1.049S771.108,150.382,769.427,145.985Z" transform="translate(-733.397 -145.985)" fill="#a09d9f"/>
    </g>
  </g>
  <g id="Group_7108" data-name="Group 7108" transform="translate(809.815 277.037)">
    <g id="Group_7107" data-name="Group 7107">
      <g id="Group_7106" data-name="Group 7106">
        <path id="Path_29911" data-name="Path 29911" d="M732.784,159.712l5.366,5.77,14.5-6.668,14.264,7.464,9.467-13.068-1.637-1.726-5.132-6.058s-9.287,3.575-16.048,3.765a64.6,64.6,0,0,1-12.52-1.432l-4.174,6.865-.776,1.276Z" transform="translate(-732.784 -145.427)" fill="#fff"/>
      </g>
    </g>
  </g>
  <g id="Group_7110" data-name="Group 7110" transform="translate(850.303 285.751)">
    <g id="Group_7109" data-name="Group 7109" transform="translate(0)">
      <path id="Path_29912" data-name="Path 29912" d="M810.841,477.51,787.48,265.219s.552-43.181-2.435-74.509a50.767,50.767,0,0,0-29.211-41.254h0l-.119,4.036L751.5,303.059l3.687,176.871Z" transform="translate(-751.504 -149.456)" fill="#fff"/>
    </g>
  </g>
  <g id="Group_7112" data-name="Group 7112" transform="translate(857.478 408.097)">
    <g id="Group_7111" data-name="Group 7111">
      <path id="Path_29913" data-name="Path 29913" d="M754.823,208.215l.809,14.558a12.429,12.429,0,0,0,12.4,11.744c.236,0,.471-.009.707-.022a12.429,12.429,0,0,0,11.722-13.1l-.809-14.56a.866.866,0,0,0-.285-.595.9.9,0,0,0-.623-.216l-23.1,1.283A.86.86,0,0,0,754.823,208.215Zm23.151-.422.286,5.145-21.386,1.127-.281-5.085Zm-20.62,14.887-.383-6.893,21.386-1.125.378,6.828a10.707,10.707,0,0,1-21.382,1.19Z" transform="translate(-754.821 -206.024)" fill="#75afbc"/>
    </g>
  </g>
  <g id="Group_7114" data-name="Group 7114" transform="translate(848.952 238.275)">
    <g id="Group_7113" data-name="Group 7113" transform="translate(0)">
      <path id="Path_29914" data-name="Path 29914" d="M753,131.441a.434.434,0,0,0,.337-.16c1-1.239,1.291-2.182.9-2.883-.625-1.118-2.738-.882-2.976-.852a.432.432,0,0,0,.11.856c.569-.074,1.843-.067,2.113.417.19.337-.108,1.038-.818,1.921a.432.432,0,0,0,.065.606A.426.426,0,0,0,753,131.441Z" transform="translate(-750.879 -127.505)" fill="#c1966b"/>
    </g>
  </g>
  <g id="Group_7117" data-name="Group 7117" transform="translate(850.612 191.134)">
    <g id="Group_7116" data-name="Group 7116">
      <g id="Group_7115" data-name="Group 7115">
        <path id="Path_29915" data-name="Path 29915" d="M751.647,141.687c4.882-8.124,10.055-19.4,9.452-29.925a25.725,25.725,0,0,0-.673-4.622c0-.035-.017-.069-.017-.1a18.375,18.375,0,0,0-1.758-1.328v.035a26.262,26.262,0,0,1,.984,10.453c-.707,7.829-4.157,15.849-7.763,22.351C751.837,139.583,751.768,140.634,751.647,141.687Z" transform="translate(-751.647 -105.709)" fill="#0a0a0a"/>
      </g>
    </g>
  </g>
  <g id="Group_7120" data-name="Group 7120" transform="translate(845.353 185.511)">
    <g id="Group_7119" data-name="Group 7119" transform="translate(0)">
      <g id="Group_7118" data-name="Group 7118">
        <path id="Path_29916" data-name="Path 29916" d="M749.215,126.238a10.1,10.1,0,0,1,1.14.984c2.742-7.072,4.31-14.8,2.673-21.9a16.249,16.249,0,0,0-.433-1.568c-.534-.225-1.068-.45-1.585-.64.206.571.379,1.157.534,1.743C753.3,111.682,751.854,119.254,749.215,126.238Z" transform="translate(-749.215 -103.109)" fill="#0a0a0a"/>
      </g>
    </g>
  </g>
  <g id="Group_7121" data-name="Group 7121" transform="translate(797.521 222.688)">
    <path id="Path_29917" data-name="Path 29917" d="M736.84,120.3s-4.153,7.784-8.921,9.281c-3.9,1.224,7.39,7.2,7.39,7.2Z" transform="translate(-727.099 -120.298)" fill="#fcd6b1"/>
  </g>
  <g id="Group_7122" data-name="Group 7122" transform="translate(793.473 290.354)">
    <path id="Path_29918" data-name="Path 29918" d="M733.933,160.121l-8.705,27.792,5.407,9.462-5.137,9.192,7.466,51.83a.92.92,0,0,0,1.83-.154l-.861-38.732,8.632-67.928Z" transform="translate(-725.228 -151.584)" fill="#c3dbda"/>
  </g>
  <g id="Group_7123" data-name="Group 7123" transform="translate(846.414 283.096)">
    <path id="Path_29919" data-name="Path 29919" d="M757.924,150.884l3.848,9.953-4.664,15.747-3.513,7.335,17.092,20.332-16.243,70.065-4.738-114.709,5.355-11.379Z" transform="translate(-749.706 -148.228)" fill="#c3dbda"/>
  </g>
  <g id="Group_7124" data-name="Group 7124" transform="translate(827.453 280.759)">
    <path id="Path_29920" data-name="Path 29920" d="M741.7,147.166l-.762,10.671,1.968-.781,1.968.654-.458-10.563Z" transform="translate(-740.939 -147.148)" fill="#416b72"/>
  </g>
  <g id="Group_7125" data-name="Group 7125" transform="translate(803.848 421.581)">
    <path id="Path_29921" data-name="Path 29921" d="M730.025,216.459l46.955-4.2-.51,18.144-46.05,4.174Z" transform="translate(-730.025 -212.258)" fill="#333033"/>
  </g>
  <g id="Group_7126" data-name="Group 7126" transform="translate(815.93 423.579)">
    <path id="Path_29922" data-name="Path 29922" d="M735.611,214.3l1.492,18.12,12.468-1.225-1.421-18.017Z" transform="translate(-735.611 -213.182)" fill="#bcbcbc"/>
  </g>
  <g id="Group_7127" data-name="Group 7127" transform="translate(313.516 184.444)">
    <path id="Path_29923" data-name="Path 29923" d="M535.48,104.362c-3.839-4.507-13.392-.043-22.98,10.544-3.744,4.131-17.171,34.869-2.433,22.169,2-1.722,8.312-9.843,11.337-12.888C525.837,119.724,535.48,104.362,535.48,104.362Z" transform="translate(-503.315 -102.615)" fill="#fcd6b1"/>
  </g>
  <g id="Group_7130" data-name="Group 7130" transform="translate(265.876 379.266)">
    <g id="Group_7128" data-name="Group 7128" transform="translate(0 12.211)">
      <path id="Path_29924" data-name="Path 29924" d="M547.916,198.406c1.557-.621,5.156,3.125-2.414,11.642-8.351,9.4-29.572,24.712-62.86,31.722-.945-4.667-1.267-16.68-1.354-19.535C499.91,219.186,530.964,205.175,547.916,198.406Z" transform="translate(-481.288 -198.339)" fill="#8dadb2"/>
    </g>
    <g id="Group_7129" data-name="Group 7129" transform="translate(48.614)">
      <path id="Path_29925" data-name="Path 29925" d="M508.011,193.363c7.968,4.425,16.831,7.3,16,15.4,0,0-8.9,5.262-8.7,2.71.722-9.043-.83-11.671-9.733-15.59C501.86,194.247,504.459,191.39,508.011,193.363Z" transform="translate(-503.765 -192.694)" fill="#8dadb2"/>
    </g>
  </g>
  <g id="Group_7133" data-name="Group 7133" transform="translate(426.612 379.559)">
    <g id="Group_7131" data-name="Group 7131" transform="translate(0 13.623)">
      <path id="Path_29926" data-name="Path 29926" d="M559.447,199.437c-4.683-2.111-5.1,7.1-1.172,11.716,38.031,44.7,118.358,25.679,118.358,25.679a3.9,3.9,0,0,0,.705-7.4h0a59.043,59.043,0,0,0-21.081-4.628C640.345,224.292,605.926,220.4,559.447,199.437Z" transform="translate(-555.606 -199.128)" fill="#8dadb2"/>
    </g>
    <g id="Group_7132" data-name="Group 7132" transform="translate(0.253)">
      <path id="Path_29927" data-name="Path 29927" d="M572.169,193.556c-7.968,4.425-15.083,8.757-16.446,15.174,0,0,9.3,5.5,9.147,2.939-.528-9,1.159-12.036,10.059-15.957C578.649,194.075,575.721,191.583,572.169,193.556Z" transform="translate(-555.723 -192.829)" fill="#8dadb2"/>
    </g>
  </g>
  <g id="Group_7136" data-name="Group 7136" transform="translate(691.051 436.201)">
    <g id="Group_7134" data-name="Group 7134">
      <path id="Path_29928" data-name="Path 29928" d="M693.269,226.718a7.7,7.7,0,1,1-7.7-7.7A7.7,7.7,0,0,1,693.269,226.718Z" transform="translate(-677.872 -219.018)" fill="#8dadb2"/>
    </g>
    <g id="Group_7135" data-name="Group 7135" transform="translate(3.569 3.569)">
      <path id="Path_29929" data-name="Path 29929" d="M687.782,224.8a4.13,4.13,0,1,1-4.129-4.131A4.13,4.13,0,0,1,687.782,224.8Z" transform="translate(-679.522 -220.668)" fill="#494949"/>
    </g>
  </g>
  <g id="Group_7139" data-name="Group 7139" transform="translate(600.907 560.636)">
    <g id="Group_7137" data-name="Group 7137">
      <path id="Path_29930" data-name="Path 29930" d="M651.592,284.252a7.7,7.7,0,1,1-7.7-7.7A7.7,7.7,0,0,1,651.592,284.252Z" transform="translate(-636.193 -276.552)" fill="#8dadb2"/>
    </g>
    <g id="Group_7138" data-name="Group 7138" transform="translate(3.569 3.569)">
      <path id="Path_29931" data-name="Path 29931" d="M646.1,282.333a4.131,4.131,0,1,1-4.131-4.131A4.131,4.131,0,0,1,646.1,282.333Z" transform="translate(-637.843 -278.202)" fill="#494949"/>
    </g>
  </g>
  <g id="Group_7144" data-name="Group 7144" transform="translate(180.54 389.458)">
    <g id="Group_7141" data-name="Group 7141" transform="translate(0)">
      <g id="Group_7140" data-name="Group 7140">
        <path id="Rectangle_70" data-name="Rectangle 70" d="M1.31,0H19.493A1.309,1.309,0,0,1,20.8,1.309V9.862a1.31,1.31,0,0,1-1.31,1.31H1.309A1.309,1.309,0,0,1,0,9.863V1.31A1.31,1.31,0,0,1,1.31,0Z" transform="translate(0.522 0) rotate(2.678)" fill="#fff"/>
      </g>
    </g>
    <g id="Group_7143" data-name="Group 7143" transform="translate(1.896 5.645)">
      <g id="Group_7142" data-name="Group 7142" transform="translate(0 0)">
        <rect id="Rectangle_71" data-name="Rectangle 71" width="3.959" height="16.737" transform="translate(0 3.954) rotate(-86.876)" fill="#3a3a3a"/>
      </g>
    </g>
  </g>
  <g id="Group_7149" data-name="Group 7149" transform="translate(796.055 320.475)">
    <g id="Group_7146" data-name="Group 7146" transform="translate(0 0)">
      <g id="Group_7145" data-name="Group 7145">
        <rect id="Rectangle_72" data-name="Rectangle 72" width="18.854" height="10.125" rx="1.187" transform="matrix(0.999, 0.047, -0.047, 0.999, 0.473, 0)" fill="#fff"/>
      </g>
    </g>
    <g id="Group_7148" data-name="Group 7148" transform="translate(1.987 5.116)">
      <g id="Group_7147" data-name="Group 7147" transform="translate(0 0)">
        <rect id="Rectangle_73" data-name="Rectangle 73" width="3.588" height="15.169" transform="translate(0 3.583) rotate(-86.877)" fill="#3a3a3a"/>
      </g>
    </g>
  </g>
  <g id="Group_7154" data-name="Group 7154" transform="translate(414.937 125.314)">
    <g id="Group_7151" data-name="Group 7151" transform="translate(0 0)">
      <g id="Group_7150" data-name="Group 7150" transform="translate(0 0)">
        <path id="Rectangle_74" data-name="Rectangle 74" d="M1.31,0H19.493A1.31,1.31,0,0,1,20.8,1.31V9.863a1.309,1.309,0,0,1-1.309,1.309H1.31A1.31,1.31,0,0,1,0,9.862V1.31A1.31,1.31,0,0,1,1.31,0Z" transform="matrix(0.999, 0.047, -0.047, 0.999, 0.522, 0)" fill="#fff"/>
      </g>
    </g>
    <g id="Group_7153" data-name="Group 7153" transform="translate(2.193 5.645)">
      <g id="Group_7152" data-name="Group 7152" transform="translate(0 0)">
        <rect id="Rectangle_75" data-name="Rectangle 75" width="3.959" height="16.737" transform="translate(0 3.953) rotate(-86.876)" fill="#3a3a3a"/>
      </g>
    </g>
  </g>
  <g id="Group_7171" data-name="Group 7171" transform="translate(135.306 167.939)">
    <g id="Group_7158" data-name="Group 7158" transform="translate(0 17.422)">
      <g id="Group_7157" data-name="Group 7157">
        <g id="Group_7156" data-name="Group 7156">
          <g id="Group_7155" data-name="Group 7155">
            <rect id="Rectangle_76" data-name="Rectangle 76" width="7.426" height="47.992" fill="#fff"/>
          </g>
        </g>
      </g>
    </g>
    <g id="Group_7162" data-name="Group 7162" transform="translate(17.8 28.598)">
      <g id="Group_7161" data-name="Group 7161">
        <g id="Group_7160" data-name="Group 7160">
          <g id="Group_7159" data-name="Group 7159">
            <rect id="Rectangle_77" data-name="Rectangle 77" width="7.426" height="36.816" fill="#fff"/>
          </g>
        </g>
      </g>
    </g>
    <g id="Group_7166" data-name="Group 7166" transform="translate(35.6 17.422)">
      <g id="Group_7165" data-name="Group 7165">
        <g id="Group_7164" data-name="Group 7164">
          <g id="Group_7163" data-name="Group 7163">
            <rect id="Rectangle_78" data-name="Rectangle 78" width="7.426" height="47.992" fill="#fff"/>
          </g>
        </g>
      </g>
    </g>
    <g id="Group_7170" data-name="Group 7170" transform="translate(53.401)">
      <g id="Group_7169" data-name="Group 7169">
        <g id="Group_7168" data-name="Group 7168">
          <g id="Group_7167" data-name="Group 7167">
            <rect id="Rectangle_79" data-name="Rectangle 79" width="7.426" height="65.414" fill="#fff"/>
          </g>
        </g>
      </g>
    </g>
  </g>
  <g id="Group_7214" data-name="Group 7214" transform="translate(807.943 72.15)">
    <g id="Group_7180" data-name="Group 7180" transform="translate(13.124 14.452)" opacity="0.35">
      <g id="Group_7175" data-name="Group 7175" transform="translate(0 0)">
        <g id="Group_7174" data-name="Group 7174">
          <g id="Group_7173" data-name="Group 7173">
            <g id="Group_7172" data-name="Group 7172">
              <ellipse id="Ellipse_25" data-name="Ellipse 25" cx="20.368" cy="23.258" rx="20.368" ry="23.258" transform="translate(0 0.152) rotate(-0.213)" fill="#fff"/>
            </g>
          </g>
        </g>
      </g>
      <g id="Group_7179" data-name="Group 7179" transform="translate(4.664 33.114)">
        <g id="Group_7178" data-name="Group 7178">
          <g id="Group_7177" data-name="Group 7177">
            <g id="Group_7176" data-name="Group 7176">
              <path id="Path_29932" data-name="Path 29932" d="M740.442,77.132c9.787,14.16,4.728,21.007,4.728,21.007l22.846-.087s-4.343-9.532,3.227-20.936C775.194,71.165,736.378,71.254,740.442,77.132Z" transform="translate(-740.143 -72.688)" fill="#fff"/>
            </g>
          </g>
        </g>
      </g>
    </g>
    <g id="Group_7189" data-name="Group 7189" transform="translate(22.835 72.932)">
      <g id="Group_7184" data-name="Group 7184" transform="translate(0.023 6.147)">
        <g id="Group_7183" data-name="Group 7183" transform="translate(0 0)">
          <g id="Group_7182" data-name="Group 7182">
            <g id="Group_7181" data-name="Group 7181">
              <rect id="Rectangle_80" data-name="Rectangle 80" width="22.825" height="7.508" transform="translate(0 0.085) rotate(-0.213)" fill="#03ee73"/>
            </g>
          </g>
        </g>
      </g>
      <g id="Group_7188" data-name="Group 7188" transform="translate(0 0)">
        <g id="Group_7187" data-name="Group 7187">
          <g id="Group_7186" data-name="Group 7186">
            <g id="Group_7185" data-name="Group 7185">
              <rect id="Rectangle_81" data-name="Rectangle 81" width="22.825" height="7.508" transform="matrix(1, -0.004, 0.004, 1, 0, 0.085)" fill="#fff"/>
            </g>
          </g>
        </g>
      </g>
    </g>
    <g id="Group_7193" data-name="Group 7193" transform="translate(17.055 24.851)">
      <g id="Group_7192" data-name="Group 7192">
        <g id="Group_7191" data-name="Group 7191">
          <g id="Group_7190" data-name="Group 7190">
            <path id="Path_29933" data-name="Path 29933" d="M739.828,72.957a28.538,28.538,0,0,1,2.346-9.333c.428-.839,1.358-1.57,2.059-1.419h0c1.834.353,1.91,2.89,1.231,4.706a24.54,24.54,0,0,0-1.492,6.871c-.117,1.728-1.187,2.946-2.331,2.617l-.225-.065C740.36,76.035,739.663,74.538,739.828,72.957Z" transform="translate(-739.804 -62.186)" fill="#f4f4f4"/>
          </g>
        </g>
      </g>
    </g>
    <g id="Group_7197" data-name="Group 7197" transform="translate(46.919 6.431)">
      <g id="Group_7196" data-name="Group 7196">
        <g id="Group_7195" data-name="Group 7195">
          <g id="Group_7194" data-name="Group 7194">
            <path id="Path_29934" data-name="Path 29934" d="M754.99,63.4a1.379,1.379,0,0,1-1.135-2.163l4.8-6.971a1.381,1.381,0,1,1,2.275,1.566l-4.8,6.971A1.38,1.38,0,0,1,754.99,63.4Z" transform="translate(-753.612 -53.669)" fill="#fff"/>
          </g>
        </g>
      </g>
    </g>
    <g id="Group_7201" data-name="Group 7201" transform="translate(54.252 22.212)">
      <g id="Group_7200" data-name="Group 7200">
        <g id="Group_7199" data-name="Group 7199">
          <g id="Group_7198" data-name="Group 7198">
            <path id="Path_29935" data-name="Path 29935" d="M758.382,65.175a1.381,1.381,0,0,1-.234-2.742l8.338-1.447a1.381,1.381,0,1,1,.471,2.721l-8.338,1.447A1.282,1.282,0,0,1,758.382,65.175Z" transform="translate(-757.002 -60.966)" fill="#fff"/>
          </g>
        </g>
      </g>
    </g>
    <g id="Group_7205" data-name="Group 7205" transform="translate(0 22.442)">
      <g id="Group_7204" data-name="Group 7204">
        <g id="Group_7203" data-name="Group 7203">
          <g id="Group_7202" data-name="Group 7202">
            <path id="Path_29936" data-name="Path 29936" d="M741.651,65.22a1.632,1.632,0,0,1-.227-.017l-8.348-1.386a1.381,1.381,0,1,1,.452-2.725l8.349,1.386a1.38,1.38,0,0,1-.225,2.742Z" transform="translate(-731.918 -61.072)" fill="#fff"/>
          </g>
        </g>
      </g>
    </g>
    <g id="Group_7209" data-name="Group 7209" transform="translate(30.718)">
      <g id="Group_7208" data-name="Group 7208">
        <g id="Group_7207" data-name="Group 7207">
          <g id="Group_7206" data-name="Group 7206">
            <path id="Path_29937" data-name="Path 29937" d="M747.73,61.917a1.383,1.383,0,0,1-1.38-1.343l-.229-8.461a1.382,1.382,0,0,1,2.762-.074l.229,8.459a1.382,1.382,0,0,1-1.343,1.419Z" transform="translate(-746.121 -50.695)" fill="#fff"/>
          </g>
        </g>
      </g>
    </g>
    <g id="Group_7213" data-name="Group 7213" transform="translate(10.512 7.484)">
      <g id="Group_7212" data-name="Group 7212">
        <g id="Group_7211" data-name="Group 7211">
          <g id="Group_7210" data-name="Group 7210">
            <path id="Path_29938" data-name="Path 29938" d="M743.663,63.346a1.386,1.386,0,0,1-1.051-.482l-5.5-6.43a1.381,1.381,0,1,1,2.1-1.8l5.5,6.428a1.381,1.381,0,0,1-1.049,2.28Z" transform="translate(-736.779 -54.156)" fill="#fff"/>
          </g>
        </g>
      </g>
    </g>
  </g>
  <g id="Group_7215" data-name="Group 7215" transform="translate(255.633 402.132)">
    <path id="Path_29939" data-name="Path 29939" d="M488.958,203.266s-10.944,7.187-12.257,19.824c-1.224,11.757,5.461,23.082,5.461,23.082s7.816-5.167,7.816-6.767S488.958,203.266,488.958,203.266Z" transform="translate(-476.552 -203.266)" fill="#fcd6b1"/>
  </g>
  <g id="Group_7216" data-name="Group 7216" transform="translate(113.636 352.474)">
    <path id="Path_29940" data-name="Path 29940" d="M444.357,180.306c.967.835.841,18.377,9.12,35.217,13.185,26.817,36.684,57.347,36.684,57.347l63.1-24.615,5.249,24.615s-45.6,23.493-59.008,31.718c-17.46,10.712-28.443,6.075-41.487-9.72L410.9,232.646Z" transform="translate(-410.898 -180.306)" fill="#fff"/>
  </g>
  <path id="Path_29941" data-name="Path 29941" d="M721.14,195.7l18.781,16.672.278,11.5-19.124-19.655Z" transform="translate(63.418 190.071)" fill="#020202" opacity="0.15"/>
  <g id="Group_7217" data-name="Group 7217" transform="translate(753.208 288.881)">
    <path id="Path_29942" data-name="Path 29942" d="M718.941,199.61c-4.866,4.685-12.33,17.207-12.33,17.207l45.51,47.991a31.025,31.025,0,0,0,46.721-10.987L826.9,196.545,809.243,150.9l-35.849,78.8Z" transform="translate(-706.611 -150.903)" fill="#fff"/>
  </g>
</svg>
