<svg xmlns="http://www.w3.org/2000/svg" width="194.906" height="205.072" viewBox="0 0 194.906 205.072">
  <g id="Group_7347" data-name="Group 7347" transform="translate(-9.925 -161.155)">
    <path id="Path_30000" data-name="Path 30000" d="M191.98,202.168A107.492,107.492,0,0,0,163.028,176.4a105.387,105.387,0,0,0-36.881-13.822,99.656,99.656,0,0,0-40.156,1.361c-3.25.977-6.56,1.842-9.788,2.948-3.144,1.309-6.382,2.469-9.468,3.947-3,1.645-6.039,3.237-9,4.962l-8.494,5.817-7.8,6.741c-2.429,2.432-4.753,4.978-7.124,7.478-2.222,2.627-4.211,5.454-6.313,8.184-1.927,2.853-3.644,5.853-5.46,8.782A102.079,102.079,0,0,0,10.4,251.99a105.209,105.209,0,0,0,23.272,76.395,103.2,103.2,0,0,0,69.558,37.349,101.636,101.636,0,0,0,47.858-6.833,105.923,105.923,0,0,0,14.889-7.35l-.39.059c-1.706.242-3.416.421-5.132.555-1.964.588-3.926,1.189-5.911,1.711a120.413,120.413,0,0,1-33.284,4.415c-16.484-.2-33.549-3.7-48.248-11.311q-.789-.4-1.565-.829c-.58-.317-1.16-.635-1.732-.968a91.9,91.9,0,0,1-43.311-55.989,91.635,91.635,0,0,1-2.3-35.659A95.44,95.44,0,0,1,57.921,192.5l7.149-5.413c2.512-1.614,5.1-3.118,7.648-4.7l8.045-4.044c2.758-1.191,5.611-2.168,8.426-3.282a97.168,97.168,0,0,1,36.122-5.077,91.6,91.6,0,0,1,36.046,9.443c2.73,1.567,5.547,3.024,8.237,4.69,2.564,1.842,5.249,3.557,7.742,5.521,2.363,2.115,4.805,4.159,7.119,6.342l6.438,7.061,3.973,5.468c.414-.212.832-.416,1.259-.6C194.8,205.948,193.436,204.027,191.98,202.168Z" fill="#a4b6c1"/>
    <g id="Group_7344" data-name="Group 7344" transform="translate(173.839 195.119)">
      <g id="Group_7343" data-name="Group 7343">
        <path id="Path_30001" data-name="Path 30001" d="M104.075,194.207,131.3,214.271l3.769-33.608Z" transform="translate(-104.075 -180.663)" fill="#a4b6c1"/>
      </g>
    </g>
    <g id="Group_7345" data-name="Group 7345" transform="translate(72.275 238.226)">
      <path id="Path_30002" data-name="Path 30002" d="M69.21,227.589a9.717,9.717,0,0,0,2.035-5.571,6.173,6.173,0,0,0-1.767-4.5,6.069,6.069,0,0,0-4.532-1.805q-5.072,0-9.605,7.223l-9.6-5.686A29.742,29.742,0,0,1,54,208.419q4.5-3,11.449-3a18.436,18.436,0,0,1,12.217,4.417q5.262,4.419,5.263,12.025a16.132,16.132,0,0,1-2.114,7.951,51.921,51.921,0,0,1-7.8,9.72L63.332,249.6H84.538v10.756H46.659v-8.912L62.41,235.311A68.91,68.91,0,0,0,69.21,227.589Z" transform="translate(-45.738 -205.423)" fill="#a4b6c1"/>
      <path id="Path_30003" data-name="Path 30003" d="M91.379,236.631v-9.374H102.9v9.374h6.069V247H102.9v12.831H91.379V247H69.789V237.86l19.132-31.731h13.061l-18.209,30.5Z" transform="translate(-27.916 -204.9)" fill="#a4b6c1"/>
    </g>
    <g id="Group_7346" data-name="Group 7346" transform="translate(44.198 197.913)">
      <path id="Path_30004" data-name="Path 30004" d="M69.686,182.268a2.512,2.512,0,0,0-2.512,2.51v11.891a2.512,2.512,0,1,0,5.024,0V184.779A2.512,2.512,0,0,0,69.686,182.268Z" transform="translate(-1.777 -182.268)" fill="#143559"/>
      <path id="Path_30005" data-name="Path 30005" d="M69.686,250.565a2.512,2.512,0,0,0-2.512,2.512v11.889a2.512,2.512,0,1,0,5.024,0V253.077A2.512,2.512,0,0,0,69.686,250.565Z" transform="translate(-1.777 -131.66)" fill="#143559"/>
      <path id="Path_30006" data-name="Path 30006" d="M112.309,219.831H100.42a2.512,2.512,0,1,0,0,5.025h11.889a2.512,2.512,0,1,0,0-5.025Z" transform="translate(20.997 -154.434)" fill="#143559"/>
      <path id="Path_30007" data-name="Path 30007" d="M44.014,219.831H32.122a2.512,2.512,0,0,0,0,5.025H44.014a2.512,2.512,0,1,0,0-5.025Z" transform="translate(-29.611 -154.434)" fill="#143559"/>
      <path id="Path_30008" data-name="Path 30008" d="M98.959,194.17l-8.513,8.512a.628.628,0,1,0,.888.888l8.512-8.512a.627.627,0,1,0-.886-.888Z" transform="translate(15.33 -173.586)" fill="#143559"/>
      <path id="Path_30009" data-name="Path 30009" d="M50.06,243.069l-8.513,8.512a.628.628,0,1,0,.888.888l8.513-8.513a.627.627,0,0,0-.888-.886Z" transform="translate(-20.903 -137.352)" fill="#143559"/>
      <path id="Path_30010" data-name="Path 30010" d="M91.333,243.069a.627.627,0,0,0-.888.886l8.513,8.513a.627.627,0,0,0,.886-.888Z" transform="translate(15.33 -137.352)" fill="#143559"/>
      <path id="Path_30011" data-name="Path 30011" d="M42.434,194.17a.628.628,0,1,0-.888.888l8.513,8.512a.626.626,0,0,0,.888,0,.627.627,0,0,0,0-.888Z" transform="translate(-20.903 -173.586)" fill="#143559"/>
    </g>
  </g>
</svg>
