<svg xmlns="http://www.w3.org/2000/svg" width="149.519" height="176.429" viewBox="0 0 149.519 176.429">
  <g id="Group_7382" data-name="Group 7382" transform="translate(13.656 -35.84)">
    <g id="Group_7365" data-name="Group 7365" transform="translate(39.99 35.84)">
      <g id="Group_7364" data-name="Group 7364">
        <path id="Path_30059" data-name="Path 30059" d="M93.853,57.641a25.42,25.42,0,0,0-45.7-11.362,2.989,2.989,0,1,0,4.827,3.527,19.441,19.441,0,0,1,34.949,8.678,2.993,2.993,0,0,0,2.958,2.569,3.2,3.2,0,0,0,.426-.03A2.991,2.991,0,0,0,93.853,57.641Z" transform="translate(-47.579 -35.84)" fill="#143559"/>
      </g>
    </g>
    <g id="Group_7367" data-name="Group 7367" transform="translate(-7.675 74.713)">
      <g id="Group_7366" data-name="Group 7366" transform="translate(0 0)">
        <path id="Path_30060" data-name="Path 30060" d="M130.3,96.616l-8.971-14.952a2.987,2.987,0,0,0-2.564-1.452h-8.6a2.99,2.99,0,0,0,0,5.98h6.9l5.383,8.971H1.442l5.383-8.971H9.992a2.99,2.99,0,0,0,0-5.98H5.132a2.987,2.987,0,0,0-2.564,1.452L-6.4,96.616a2.993,2.993,0,0,0-.038,3.013,2.988,2.988,0,0,0,2.6,1.517H127.735a2.991,2.991,0,0,0,2.564-4.53Z" transform="translate(6.829 -80.212)" fill="#a4b6c1"/>
      </g>
    </g>
    <g id="Group_7369" data-name="Group 7369" transform="translate(65.177 52.596)">
      <g id="Group_7368" data-name="Group 7368">
        <path id="Path_30061" data-name="Path 30061" d="M125.7,65.914a2.986,2.986,0,0,0-1.86-1.335L83.076,55.045a2.988,2.988,0,0,0-3.593,2.23L76.409,70.416a2.99,2.99,0,0,0,5.823,1.361l2.393-10.228,34.94,8.173L114.075,93.2a2.987,2.987,0,0,0,2.23,3.591,3.024,3.024,0,0,0,.685.079,2.986,2.986,0,0,0,2.907-2.308l6.172-26.385A2.978,2.978,0,0,0,125.7,65.914Z" transform="translate(-76.329 -54.966)" fill="#143559"/>
      </g>
    </g>
    <g id="Group_7371" data-name="Group 7371" transform="translate(3.985 44.928)">
      <g id="Group_7370" data-name="Group 7370">
        <path id="Path_30062" data-name="Path 30062" d="M65.179,71.9,62.455,48.854a2.992,2.992,0,0,0-3.321-2.619L9.119,52.146A2.991,2.991,0,0,0,6.5,55.467L11.043,93.9a2.991,2.991,0,0,0,2.966,2.64,3.268,3.268,0,0,0,.356-.021A2.992,2.992,0,0,0,16.983,93.2L12.791,57.733l44.076-5.209L59.24,72.6a2.99,2.99,0,0,0,5.94-.7Z" transform="translate(-6.48 -46.214)" fill="#143559"/>
      </g>
    </g>
    <g id="Group_7373" data-name="Group 7373" transform="translate(26.327 64.548)">
      <g id="Group_7372" data-name="Group 7372">
        <path id="Path_30063" data-name="Path 30063" d="M91.989,95.581,86.054,70.9a2.988,2.988,0,0,0-3.607-2.207L34.275,80.277a2.991,2.991,0,0,0-2.209,3.607L35.033,96.22a2.99,2.99,0,1,0,5.814-1.4l-2.268-9.43L80.937,75.207l5.236,21.774a2.991,2.991,0,0,0,5.816-1.4Z" transform="translate(-31.983 -68.609)" fill="#143559"/>
      </g>
    </g>
    <g id="Group_7375" data-name="Group 7375" transform="translate(-13.655 89.667)">
      <g id="Group_7374" data-name="Group 7374">
        <path id="Path_30064" data-name="Path 30064" d="M129.878,100.118a2.991,2.991,0,0,0-2.987-2.837H-4.683a2.991,2.991,0,0,0-2.987,2.837L-13.652,216.74a2.992,2.992,0,0,0,.818,2.213,3,3,0,0,0,2.168.93H132.87a2.99,2.99,0,0,0,2.989-3.143ZM-7.518,213.9l5.674-110.641H124.048L129.723,213.9Z" transform="translate(13.655 -97.281)" fill="#a4b6c1"/>
      </g>
    </g>
    <g id="Group_7377" data-name="Group 7377" transform="translate(74.559 101.627)">
      <g id="Group_7376" data-name="Group 7376">
        <path id="Path_30065" data-name="Path 30065" d="M96.009,110.933a8.971,8.971,0,1,0,8.971,8.971A8.98,8.98,0,0,0,96.009,110.933Zm0,11.962A2.99,2.99,0,1,1,99,119.9,2.993,2.993,0,0,1,96.009,122.895Z" transform="translate(-87.038 -110.933)" fill="#a4b6c1"/>
      </g>
    </g>
    <g id="Group_7379" data-name="Group 7379" transform="translate(29.704 101.627)">
      <g id="Group_7378" data-name="Group 7378">
        <path id="Path_30066" data-name="Path 30066" d="M44.809,110.933A8.971,8.971,0,1,0,53.78,119.9,8.98,8.98,0,0,0,44.809,110.933Zm0,11.962a2.99,2.99,0,1,1,2.99-2.99A2.993,2.993,0,0,1,44.809,122.895Z" transform="translate(-35.838 -110.933)" fill="#a4b6c1"/>
      </g>
    </g>
    <g id="Group_7381" data-name="Group 7381" transform="translate(35.685 110.598)">
      <g id="Group_7380" data-name="Group 7380">
        <path id="Path_30067" data-name="Path 30067" d="M90.51,121.173h-.23a2.991,2.991,0,0,0-2.99,2.99,2.957,2.957,0,0,0,.23,1.153v15.294a19.437,19.437,0,1,1-38.875,0V124.164a2.99,2.99,0,0,0-5.98,0V140.61a25.417,25.417,0,0,0,50.835,0V124.164A2.992,2.992,0,0,0,90.51,121.173Z" transform="translate(-42.665 -121.173)" fill="#143559"/>
      </g>
    </g>
  </g>
</svg>
