<svg xmlns="http://www.w3.org/2000/svg" width="593.236" height="594.271" viewBox="0 0 593.236 594.271">
  <g id="Group_8339" data-name="Group 8339" transform="translate(-1173.626 -7171)">
    <g id="Rectangle_168" data-name="Rectangle 168" transform="matrix(0.616, 0.788, -0.788, 0.616, 1504.591, 7171)" fill="#fafafa" stroke="#03ee73" stroke-width="4">
      <rect width="426" height="420" rx="115" stroke="none"/>
      <rect x="2" y="2" width="422" height="416" rx="113" fill="none"/>
    </g>
    <g id="Group_8336" data-name="Group 8336" transform="translate(1619.194 7277.044)">
      <g id="Group_8328" data-name="Group 8328" transform="translate(-311.757 88.985)">
        <g id="Group_8253" data-name="Group 8253" transform="translate(41.91 28.307)">
          <path id="Path_32047" data-name="Path 32047" d="M-212.9,274.911c-.115-.015-2.868-.39-7.378-1.328l.5-2.4c4.414.919,7.179,1.3,7.206,1.3Zm-14.613-3c-2.223-.561-4.625-1.221-7.154-1.98l.7-2.346c2.493.745,4.863,1.395,7.054,1.953Zm-14.216-4.279c-2.387-.838-4.723-1.728-6.946-2.637l.931-2.27c2.181.9,4.48,1.77,6.829,2.6Zm-13.743-5.647c-2.279-1.093-4.5-2.245-6.608-3.431l1.2-2.135c2.059,1.157,4.233,2.287,6.466,3.353Zm-12.958-7.329c-2.113-1.417-4.137-2.907-6.012-4.434l1.547-1.9c1.819,1.48,3.779,2.927,5.828,4.3Zm-11.559-9.466a58.054,58.054,0,0,1-4.914-5.667l1.956-1.48a55.314,55.314,0,0,0,4.706,5.429Zm-9-11.973a46.607,46.607,0,0,1-3.059-6.868l2.311-.816a44.187,44.187,0,0,0,2.9,6.512Zm-4.958-14.147a48.7,48.7,0,0,1-.711-7.48l2.451-.044a46,46,0,0,0,.676,7.1Zm2.113-14.691-2.434-.292a64.725,64.725,0,0,1,1.338-7.368l2.382.574A62.035,62.035,0,0,0-291.835,204.376Zm3.333-14.017-2.314-.8c.787-2.272,1.708-4.6,2.735-6.927l2.243.99C-286.837,185.883-287.734,188.15-288.5,190.358Zm5.826-13.284-2.169-1.14c1.11-2.118,2.336-4.294,3.637-6.466l2.1,1.26C-280.383,172.861-281.584,175-282.675,177.074Zm167.362-.164a17.883,17.883,0,0,1-7.226-3.054l1.441-1.983a15.349,15.349,0,0,0,6.213,2.623Zm7.931-.85-1.042-2.216a8.711,8.711,0,0,0,4.279-4.645l2.25.973A11.06,11.06,0,0,1-107.382,176.059Zm-19.836-8.672a15.858,15.858,0,0,1-.738-4.87,19.661,19.661,0,0,1,.233-2.961l2.422.368a17.349,17.349,0,0,0-.2,2.593,13.464,13.464,0,0,0,.618,4.113ZM-275.2,164.571l-2.039-1.358q1.989-2.985,4.24-6.069l1.978,1.446Q-273.235,161.631-275.2,164.571Zm174.811-2.017-2.451-.076c.01-.3.015-.6.015-.917a41.662,41.662,0,0,0-.51-6.186l2.422-.368a43.941,43.941,0,0,1,.539,6.554Q-100.372,162.069-100.386,162.554Zm-22.8-9.267-2.211-1.054a36.6,36.6,0,0,1,3.99-6.461l1.949,1.488A34.178,34.178,0,0,0-123.188,153.287Zm-143.416-.522-1.926-1.512q2.221-2.831,4.659-5.738l1.877,1.576Q-264.405,149.97-266.6,152.765Zm161.654-4.292a34.732,34.732,0,0,0-3.2-6.324l2.076-1.306a37.3,37.3,0,0,1,3.424,6.777Zm-9.7-6.488-1.672-1.8a52.483,52.483,0,0,1,5.868-4.708l1.4,2.017A49.093,49.093,0,0,0-114.651,141.985Zm-142.563-.436-1.833-1.627q2.39-2.7,4.963-5.463l1.8,1.672Q-254.846,138.876-257.214,141.549Zm144.818-5.2c-1.478-1.777-3.128-3.564-4.9-5.314l1.723-1.748c1.833,1.806,3.537,3.657,5.066,5.5Zm9.507-2.527-1.118-2.184a61.467,61.467,0,0,1,6.873-3l.841,2.3A58.725,58.725,0,0,0-102.889,133.819Zm-144.349-2.978-1.743-1.723c1.767-1.784,3.578-3.5,5.392-5.113l1.628,1.833C-243.734,127.412-245.51,129.1-247.238,130.841Zm157.847-1.98-.573-2.385a70.327,70.327,0,0,1,7.353-1.355l.316,2.431A67.443,67.443,0,0,0-89.391,128.86Zm30.081-.814c-.446-.071-.89-.142-1.333-.2l.35-2.426c.456.066.917.135,1.377.213Zm-8.544-.953q-3.724-.224-7.238-.113l-.074-2.451c2.414-.071,4.9-.037,7.461.118Zm-54.822-.929c-1.838-1.532-3.775-3.025-5.755-4.434l1.426-2c2.027,1.449,4.012,2.978,5.895,4.549ZM-236.371,121.2l-1.5-1.939c1.985-1.532,4.02-2.99,6.052-4.328l1.351,2.044C-232.447,118.282-234.432,119.7-236.371,121.2Zm101.878-3.476c-2.064-1.262-4.194-2.466-6.328-3.578l1.132-2.174c2.184,1.137,4.363,2.37,6.476,3.662Zm-89.766-4.493-1.181-2.15c2.2-1.206,4.441-2.321,6.674-3.314l1,2.24C-219.939,110.968-222.123,112.054-224.258,113.228Zm76.878-2.216c-2.23-.971-4.5-1.868-6.76-2.662l.816-2.311c2.309.816,4.637,1.733,6.922,2.728Zm-63.65-3.662-.8-2.319c2.346-.809,4.755-1.517,7.154-2.105l.586,2.38C-206.417,105.877-208.753,106.566-211.03,107.35Zm49.959-1.167c-2.336-.635-4.713-1.184-7.071-1.637l.461-2.407c2.419.463,4.858,1.029,7.253,1.679Zm-35.915-2.292-.37-2.424c2.444-.373,4.939-.64,7.417-.794l.152,2.446C-192.191,103.272-194.613,103.529-196.985,103.892Zm21.672-.422c-2.422-.265-4.853-.426-7.23-.485l.059-2.451c2.446.061,4.949.228,7.436.5Z" transform="translate(294.658 -100.534)" fill="#d7d9dd"/>
        </g>
        <g id="Group_8263" data-name="Group 8263" transform="translate(60.412 101.197)" opacity="0.6">
          <g id="Group_8254" data-name="Group 8254" transform="translate(8.442 8.651)">
            <path id="Path_32048" data-name="Path 32048" d="M-271.3,140.752a32.421,32.421,0,0,0-5.417,45.527,32.419,32.419,0,0,0,45.527,5.414,32.414,32.414,0,0,0,5.414-45.527A32.418,32.418,0,0,0-271.3,140.752Zm30.6,38.866a17.05,17.05,0,0,1-23.941-2.848,17.049,17.049,0,0,1,2.846-23.939,17.048,17.048,0,0,1,23.944,2.848A17.048,17.048,0,0,1-240.7,179.618Z" transform="translate(283.665 -133.803)" fill="#dae2f2"/>
          </g>
          <g id="Group_8255" data-name="Group 8255" transform="translate(11.136 5.667)">
            <path id="Path_32049" data-name="Path 32049" d="M-262.316,143.778l-11.481,9.037s-9.174-7.605-8.755-11.115c.431-3.632,7.917-9.858,11.478-9.042C-267.623,133.443-262.316,143.778-262.316,143.778Z" transform="translate(282.566 -132.585)" fill="#dae2f2"/>
          </g>
          <g id="Group_8256" data-name="Group 8256" transform="translate(49.827 57.071)">
            <path id="Path_32050" data-name="Path 32050" d="M-255.3,153.558-266.78,162.6s5.248,10.706,8.76,11.123c3.625.431,11.432-5.387,11.48-9.039C-246.5,161.146-255.3,153.558-255.3,153.558Z" transform="translate(266.78 -153.558)" fill="#dae2f2"/>
          </g>
          <g id="Group_8257" data-name="Group 8257" transform="translate(0 30.337)">
            <path id="Path_32051" data-name="Path 32051" d="M-270.979,143.559l.13,14.613s-11.632,2.6-14.157.12c-2.608-2.554-2.949-12.287-.127-14.608C-282.4,141.434-270.979,143.559-270.979,143.559Z" transform="translate(287.109 -142.65)" fill="#dae2f2"/>
          </g>
          <g id="Group_8258" data-name="Group 8258" transform="translate(5.735 51.902)">
            <path id="Path_32052" data-name="Path 32052" d="M-272.124,151.449l7.042,12.8s-9.005,7.811-12.4,6.828c-3.507-1.02-8.427-9.424-7.047-12.8C-283.188,155-272.124,151.449-272.124,151.449Z" transform="translate(284.769 -151.449)" fill="#dae2f2"/>
          </g>
          <g id="Group_8259" data-name="Group 8259" transform="translate(56.878 11.984)">
            <path id="Path_32053" data-name="Path 32053" d="M-255.339,155.323l-8.564-11.836s7.976-8.858,11.468-8.3c3.6.578,9.522,8.316,8.564,11.838C-244.8,150.446-255.339,155.323-255.339,155.323Z" transform="translate(263.903 -135.163)" fill="#dae2f2"/>
          </g>
          <g id="Group_8260" data-name="Group 8260" transform="translate(36.601)">
            <path id="Path_32054" data-name="Path 32054" d="M-272.176,144.82l14.169,3.552s5.26-10.7,3.441-13.731c-1.875-3.132-11.255-5.753-14.172-3.554C-271.563,133.216-272.176,144.82-272.176,144.82Z" transform="translate(272.176 -130.273)" fill="#dae2f2"/>
          </g>
          <g id="Group_8261" data-name="Group 8261" transform="translate(25.64 66.143)">
            <path id="Path_32055" data-name="Path 32055" d="M-258.65,160.806l-14.177-3.547s-5.257,10.691-3.439,13.726c1.88,3.135,11.258,5.753,14.172,3.556C-259.265,172.411-258.65,160.806-258.65,160.806Z" transform="translate(276.648 -157.259)" fill="#dae2f2"/>
          </g>
          <g id="Group_8262" data-name="Group 8262" transform="translate(66.697 36.208)">
            <path id="Path_32056" data-name="Path 32056" d="M-259.77,160.853l-.127-14.61s11.63-2.608,14.15-.123c2.61,2.561,2.951,12.287.13,14.608C-248.35,162.978-259.77,160.853-259.77,160.853Z" transform="translate(259.897 -145.046)" fill="#dae2f2"/>
          </g>
        </g>
        <g id="Group_8273" data-name="Group 8273" transform="translate(139.033 3.619)">
          <g id="Group_8264" data-name="Group 8264" transform="translate(8.439 8.649)">
            <path id="Path_32057" data-name="Path 32057" d="M-239.224,100.941a32.421,32.421,0,0,0-5.417,45.527,32.424,32.424,0,0,0,45.53,5.414,32.426,32.426,0,0,0,5.419-45.527A32.425,32.425,0,0,0-239.224,100.941Zm30.6,38.863a17.05,17.05,0,0,1-23.941-2.843,17.053,17.053,0,0,1,2.848-23.944,17.05,17.05,0,0,1,23.941,2.846A17.045,17.045,0,0,1-208.62,139.8Z" transform="translate(251.589 -93.99)" fill="#dae2f2"/>
          </g>
          <g id="Group_8265" data-name="Group 8265" transform="translate(11.134 5.666)">
            <path id="Path_32058" data-name="Path 32058" d="M-230.24,103.964l-11.481,9.042s-9.172-7.608-8.755-11.12c.431-3.63,7.917-9.855,11.48-9.039C-235.544,93.631-230.24,103.964-230.24,103.964Z" transform="translate(250.49 -92.773)" fill="#dae2f2"/>
          </g>
          <g id="Group_8266" data-name="Group 8266" transform="translate(49.827 57.071)">
            <path id="Path_32059" data-name="Path 32059" d="M-223.223,113.746l-11.481,9.042s5.245,10.7,8.757,11.123c3.625.431,11.434-5.385,11.481-9.042C-214.419,121.329-223.223,113.746-223.223,113.746Z" transform="translate(234.703 -113.746)" fill="#dae2f2"/>
          </g>
          <g id="Group_8267" data-name="Group 8267" transform="translate(0 30.333)">
            <path id="Path_32060" data-name="Path 32060" d="M-238.9,103.744l.128,14.615s-11.628,2.605-14.15.123c-2.61-2.559-2.951-12.292-.13-14.613C-250.324,101.623-238.9,103.744-238.9,103.744Z" transform="translate(255.032 -102.837)" fill="#dae2f2"/>
          </g>
          <g id="Group_8268" data-name="Group 8268" transform="translate(5.734 51.902)">
            <path id="Path_32061" data-name="Path 32061" d="M-240.049,111.637l7.042,12.8s-9,7.806-12.4,6.826c-3.51-1.02-8.429-9.422-7.047-12.807C-251.113,115.184-240.049,111.637-240.049,111.637Z" transform="translate(252.692 -111.637)" fill="#dae2f2"/>
          </g>
          <g id="Group_8269" data-name="Group 8269" transform="translate(56.876 11.981)">
            <path id="Path_32062" data-name="Path 32062" d="M-223.261,115.512l-8.566-11.838s7.976-8.858,11.471-8.3c3.6.581,9.52,8.316,8.561,11.843C-212.721,110.63-223.261,115.512-223.261,115.512Z" transform="translate(231.827 -95.35)" fill="#dae2f2"/>
          </g>
          <g id="Group_8270" data-name="Group 8270" transform="translate(36.601)">
            <path id="Path_32063" data-name="Path 32063" d="M-240.1,105l14.167,3.552s5.262-10.694,3.444-13.731c-1.877-3.132-11.255-5.748-14.172-3.551C-239.486,93.4-240.1,105-240.1,105Z" transform="translate(240.099 -90.461)" fill="#dae2f2"/>
          </g>
          <g id="Group_8271" data-name="Group 8271" transform="translate(25.638 66.139)">
            <path id="Path_32064" data-name="Path 32064" d="M-226.574,121l-14.172-3.552s-5.262,10.694-3.444,13.728c1.878,3.132,11.255,5.75,14.177,3.552C-227.19,132.6-226.574,121-226.574,121Z" transform="translate(244.572 -117.446)" fill="#dae2f2"/>
          </g>
          <g id="Group_8272" data-name="Group 8272" transform="translate(66.694 36.205)">
            <path id="Path_32065" data-name="Path 32065" d="M-227.691,121.042l-.13-14.613s11.63-2.605,14.152-.125c2.608,2.561,2.949,12.292.125,14.61C-216.274,123.164-227.691,121.042-227.691,121.042Z" transform="translate(227.821 -105.233)" fill="#dae2f2"/>
          </g>
        </g>
        <g id="Group_8283" data-name="Group 8283" transform="translate(75.289 24.566)" opacity="0.6">
          <g id="Group_8274" data-name="Group 8274" transform="translate(6.216 6.182)">
            <path id="Path_32066" data-name="Path 32066" d="M-259.88,102.364a25,25,0,0,0-17.789,30.552A25,25,0,0,0-247.115,150.7a25,25,0,0,0,17.789-30.552A25,25,0,0,0-259.88,102.364Zm9.74,36.88a13.147,13.147,0,0,1-16.069-9.353,13.154,13.154,0,0,1,9.355-16.071,13.15,13.15,0,0,1,16.069,9.36A13.145,13.145,0,0,1-250.14,139.244Z" transform="translate(278.503 -101.53)" fill="#ffda89"/>
          </g>
          <g id="Group_8275" data-name="Group 8275" transform="translate(17.982)">
            <path id="Path_32067" data-name="Path 32067" d="M-259.74,110.156l-10.9,2.878s-4.162-8.2-2.787-10.554c1.417-2.434,8.623-4.542,10.892-2.875C-260.331,101.214-259.74,110.156-259.74,110.156Z" transform="translate(273.703 -99.008)" fill="#ffda89"/>
          </g>
          <g id="Group_8276" data-name="Group 8276" transform="translate(29.888 48.776)">
            <path id="Path_32068" data-name="Path 32068" d="M-257.948,118.908l-10.9,2.877s.427,9.179,2.787,10.554c2.434,1.417,9.74-.306,10.895-2.878C-254.046,126.974-257.948,118.908-257.948,118.908Z" transform="translate(268.845 -118.908)" fill="#ffda89"/>
          </g>
          <g id="Group_8277" data-name="Group 8277" transform="translate(2.059 12.321)">
            <path id="Path_32069" data-name="Path 32069" d="M-265.525,108.362l-4.387,10.378s-9.027-1.723-10.054-4.25c-1.059-2.608,1.679-9.6,4.39-10.378C-272.954,103.359-265.525,108.362-265.525,108.362Z" transform="translate(280.199 -104.035)" fill="#ffda89"/>
          </g>
          <g id="Group_8278" data-name="Group 8278" transform="translate(0 31.753)">
            <path id="Path_32070" data-name="Path 32070" d="M-269.048,112.164l1.061,11.218s-8.765,2.767-10.868,1.029c-2.172-1.8-3.076-9.25-1.061-11.221C-277.963,111.287-269.048,112.164-269.048,112.164Z" transform="translate(281.039 -111.963)" fill="#ffda89"/>
          </g>
          <g id="Group_8279" data-name="Group 8279" transform="translate(48.923 18.712)">
            <path id="Path_32071" data-name="Path 32071" d="M-258.65,120.336l-2.429-11s8.358-3.826,10.657-2.358c2.375,1.517,4.186,8.8,2.429,11.005C-249.694,120.113-258.65,120.336-258.65,120.336Z" transform="translate(261.079 -106.642)" fill="#ffda89"/>
          </g>
          <g id="Group_8280" data-name="Group 8280" transform="translate(36.337 2.385)">
            <path id="Path_32072" data-name="Path 32072" d="M-266.214,108.7l8.944,6.86s7-5.956,6.645-8.662c-.37-2.794-6.2-7.517-8.939-6.86C-262.221,100.685-266.214,108.7-266.214,108.7Z" transform="translate(266.214 -99.981)" fill="#ffda89"/>
          </g>
          <g id="Group_8281" data-name="Group 8281" transform="translate(8.813 45.428)">
            <path id="Path_32073" data-name="Path 32073" d="M-261.847,124.4l-8.939-6.86s-7,5.956-6.645,8.659c.368,2.792,6.2,7.522,8.939,6.86C-265.837,132.422-261.847,124.4-261.847,124.4Z" transform="translate(277.443 -117.542)" fill="#ffda89"/>
          </g>
          <g id="Group_8282" data-name="Group 8282" transform="translate(46.239 36.511)">
            <path id="Path_32074" data-name="Path 32074" d="M-262.174,124.282l4.39-10.378s9.027,1.723,10.052,4.25c1.059,2.608-1.679,9.6-4.392,10.378C-254.75,129.287-262.174,124.282-262.174,124.282Z" transform="translate(262.174 -113.904)" fill="#ffda89"/>
          </g>
        </g>
        <g id="Group_8292" data-name="Group 8292" transform="translate(264.734 37.276)">
          <g id="Group_8285" data-name="Group 8285" transform="translate(0 9.79)">
            <g id="Group_8284" data-name="Group 8284">
              <path id="Path_32075" data-name="Path 32075" d="M-198.048,116.6l-5.7-1.676,6.527-6.74,24.005,8.282Z" transform="translate(203.747 -108.188)" fill="#f0c542"/>
            </g>
          </g>
          <g id="Group_8287" data-name="Group 8287" transform="translate(5.206 14.85)">
            <g id="Group_8286" data-name="Group 8286">
              <path id="Path_32076" data-name="Path 32076" d="M-201.623,122.931l25.326-9.457-24.656-3.222Z" transform="translate(201.623 -110.252)" fill="#fad77e"/>
            </g>
          </g>
          <g id="Group_8289" data-name="Group 8289" transform="translate(6.257)">
            <g id="Group_8288" data-name="Group 8288">
              <path id="Path_32077" data-name="Path 32077" d="M-176.918,122.265l-24.275-6.539,1.826-11.532Z" transform="translate(201.194 -104.194)" fill="#fad784"/>
            </g>
          </g>
          <g id="Group_8291" data-name="Group 8291" transform="translate(0 14.85)">
            <g id="Group_8290" data-name="Group 8290">
              <path id="Path_32078" data-name="Path 32078" d="M-203.747,111.932l5.876-1.68-.177,3.356Z" transform="translate(203.747 -110.252)" fill="#dbab33"/>
            </g>
          </g>
        </g>
        <g id="Group_8327" data-name="Group 8327" transform="translate(78.136)">
          <g id="Group_8301" data-name="Group 8301" transform="translate(97.496 28.027)">
            <g id="Group_8294" data-name="Group 8294" transform="translate(0 5.903)">
              <g id="Group_8293" data-name="Group 8293">
                <path id="Path_32079" data-name="Path 32079" d="M-236.658,107.9-240.1,106.9l3.94-4.067,14.474,5Z" transform="translate(240.1 -102.828)" fill="#f0c542"/>
              </g>
            </g>
            <g id="Group_8296" data-name="Group 8296" transform="translate(3.14 8.957)">
              <g id="Group_8295" data-name="Group 8295">
                <path id="Path_32080" data-name="Path 32080" d="M-238.819,111.72l15.273-5.7-14.866-1.941Z" transform="translate(238.819 -104.074)" fill="#fad77e"/>
              </g>
            </g>
            <g id="Group_8298" data-name="Group 8298" transform="translate(3.775)">
              <g id="Group_8297" data-name="Group 8297">
                <path id="Path_32081" data-name="Path 32081" d="M-223.921,111.318l-14.639-3.942,1.1-6.956Z" transform="translate(238.56 -100.42)" fill="#fad784"/>
              </g>
            </g>
            <g id="Group_8300" data-name="Group 8300" transform="translate(0 8.957)">
              <g id="Group_8299" data-name="Group 8299">
                <path id="Path_32082" data-name="Path 32082" d="M-240.1,105.087l3.547-1.013-.105,2.02Z" transform="translate(240.1 -104.074)" fill="#dbab33"/>
              </g>
            </g>
          </g>
          <g id="Group_8303" data-name="Group 8303" transform="translate(93.687 38.027)">
            <g id="Group_8302" data-name="Group 8302">
              <path id="Path_32083" data-name="Path 32083" d="M-213.852,131.672a13.9,13.9,0,0,1-13.9,13.9h0a13.9,13.9,0,0,1-13.9-13.9V118.4a13.9,13.9,0,0,1,13.9-13.9h0a13.9,13.9,0,0,1,13.9,13.9Z" transform="translate(241.654 -104.5)" fill="#5f82d6"/>
            </g>
          </g>
          <g id="Group_8306" data-name="Group 8306" transform="translate(47.317 20.294)">
            <g id="Group_8305" data-name="Group 8305">
              <g id="Group_8304" data-name="Group 8304">
                <path id="Path_32084" data-name="Path 32084" d="M-260.5,147.626c1.169,27.182,16.439,48.726,34.091,48.106,17.635-.613,30.961-23.155,29.8-50.327-1.2-27.2-16.463-48.743-34.086-48.128C-248.331,97.9-261.681,120.427-260.5,147.626Z" transform="translate(260.573 -97.265)" fill="#ffc190"/>
              </g>
            </g>
          </g>
          <g id="Group_8309" data-name="Group 8309" transform="translate(39.127 0.107)">
            <g id="Group_8308" data-name="Group 8308">
              <g id="Group_8307" data-name="Group 8307">
                <path id="Path_32085" data-name="Path 32085" d="M-195.971,133.549s-17.02,2.767-46.336-8.294c0,0-22.52,21.525-7.713,55.221,0,0-21.579-19.534-10.951-53.623,10.65-34.084,32.679-27.709,44.623-31.9s25.422,3.306,34.206-4.659C-173.464,82.431-170.427,112.975-195.971,133.549Z" transform="translate(263.915 -89.029)" fill="#2e3b57"/>
              </g>
            </g>
          </g>
          <g id="Group_8312" data-name="Group 8312" transform="translate(41.497 56.569)">
            <g id="Group_8311" data-name="Group 8311">
              <g id="Group_8310" data-name="Group 8310">
                <path id="Path_32086" data-name="Path 32086" d="M-262.937,125.921c.191,7.444,3.532,13.331,7.471,13.132,3.922-.208,6.914-6.4,6.713-13.851s-3.571-13.331-7.476-13.133S-263.148,118.462-262.937,125.921Z" transform="translate(262.947 -112.065)" fill="#ffc190"/>
              </g>
            </g>
          </g>
          <g id="Group_8314" data-name="Group 8314" transform="translate(0 124.474)">
            <g id="Group_8313" data-name="Group 8313">
              <path id="Path_32087" data-name="Path 32087" d="M-202.686,139.77c-37.223,0-68.471,34.633-77.192,81.425H-125.5C-134.217,174.4-165.465,139.77-202.686,139.77Z" transform="translate(279.878 -139.77)" fill="#143559"/>
            </g>
          </g>
          <g id="Group_8316" data-name="Group 8316" transform="translate(67.937 111.644)">
            <g id="Group_8315" data-name="Group 8315">
              <path id="Path_32088" data-name="Path 32088" d="M-229.364,160.194l-11.4,13.538-11.4-13.538V134.535h22.8Z" transform="translate(252.16 -134.535)" fill="#ffc190"/>
            </g>
          </g>
          <g id="Group_8318" data-name="Group 8318" transform="translate(28.289 39.907)">
            <g id="Group_8317" data-name="Group 8317">
              <path id="Path_32089" data-name="Path 32089" d="M-240.532,132.439a13.9,13.9,0,0,1-13.9,13.9h0a13.9,13.9,0,0,1-13.9-13.9V119.172a13.9,13.9,0,0,1,13.9-13.9h0a13.9,13.9,0,0,1,13.9,13.9Z" transform="translate(268.336 -105.267)" fill="#5f82d6"/>
            </g>
          </g>
          <g id="Group_8320" data-name="Group 8320" transform="translate(37.268 5.426)">
            <g id="Group_8319" data-name="Group 8319">
              <path id="Path_32090" data-name="Path 32090" d="M-218.6,91.2h-21.819a24.251,24.251,0,0,0-24.25,24.25V130.4h6.951V117.922a19.455,19.455,0,0,1,19.454-19.454h17.51A19.455,19.455,0,0,1-201.3,117.922V130.4h6.951V115.449A24.251,24.251,0,0,0-218.6,91.2Z" transform="translate(264.673 -91.199)" fill="#5f82d6"/>
            </g>
          </g>
          <g id="Group_8322" data-name="Group 8322" transform="translate(60.733)">
            <g id="Group_8321" data-name="Group 8321">
              <path id="Path_32091" data-name="Path 32091" d="M-247.9,111.769s8.309-15.794,19.368-16.936,23.5,1.343,28.547-1.564,12.39-8.716,11.3,1.564,2.973,33.537-18.716,45.16c0,0-40.238-.735-47.7-14.674Z" transform="translate(255.099 -88.985)" fill="#2e3b57"/>
            </g>
          </g>
          <g id="Group_8324" data-name="Group 8324" transform="translate(85.425 92.091)">
            <g id="Group_8323" data-name="Group 8323">
              <path id="Path_32092" data-name="Path 32092" d="M-230.358,131.448a4.888,4.888,0,0,1-4.887,4.887h-4.892a4.89,4.89,0,0,1-4.887-4.887h0a4.889,4.889,0,0,1,4.887-4.89h4.892a4.887,4.887,0,0,1,4.887,4.89Z" transform="translate(245.025 -126.558)" fill="#5f82d6"/>
            </g>
          </g>
          <g id="Group_8326" data-name="Group 8326" transform="translate(92.484 73.991)">
            <g id="Group_8325" data-name="Group 8325">
              <path id="Path_32093" data-name="Path 32093" d="M-232.437,144.686a89.226,89.226,0,0,1-9.708-.6l.547-4.873c8.733.978,17.733.478,18.878-1.059,2.642-7.89-.044-17.549-.073-17.645l4.716-1.341c.13.456,3.125,11.235-.034,20.628C-219.407,143.649-225.858,144.686-232.437,144.686Z" transform="translate(242.145 -119.173)" fill="#5f82d6"/>
            </g>
          </g>
        </g>
      </g>
      <g id="Group_8335" data-name="Group 8335" transform="translate(-77.98 176.105)">
        <g id="Group_8330" data-name="Group 8330">
          <g id="Group_8329" data-name="Group 8329">
            <path id="Path_32094" data-name="Path 32094" d="M-133.864,163.96a36.916,36.916,0,0,1-29.5,43.076,36.916,36.916,0,0,1-43.079-29.5,36.916,36.916,0,0,1,29.5-43.076,36.964,36.964,0,0,1,9.777-.51l7.255-8.272a46.056,46.056,0,0,0-18.74-.358,46.213,46.213,0,0,0-36.929,53.925,46.212,46.212,0,0,0,53.925,36.929,46.215,46.215,0,0,0,36.929-53.925,46.287,46.287,0,0,0-2.89-9.566l-7.022,8.005C-134.337,161.759-134.072,162.847-133.864,163.96Z" transform="translate(216.377 -124.53)" fill="#4e49a3"/>
          </g>
        </g>
        <g id="Group_8332" data-name="Group 8332" transform="translate(21.24 28.558)">
          <g id="Group_8331" data-name="Group 8331">
            <path id="Path_32095" data-name="Path 32095" d="M-207.711,168.554v-4.51l4.12-3.721c6.954-6.218,10.331-9.8,10.429-13.517,0-2.6-1.571-4.652-5.238-4.652a11.56,11.56,0,0,0-6.809,2.642l-2.108-5.338a17.612,17.612,0,0,1,10.431-3.277c7.2,0,11.164,4.211,11.164,9.99,0,5.341-3.868,9.6-8.473,13.711l-2.934,2.451v.1h12v6.123Z" transform="translate(207.711 -136.181)" fill="#23517a"/>
          </g>
        </g>
        <g id="Group_8334" data-name="Group 8334" transform="translate(47.488 29.094)">
          <g id="Group_8333" data-name="Group 8333">
            <path id="Path_32096" data-name="Path 32096" d="M-182.9,168.236v-7.593H-197V155.8l12.052-19.4h9.106v18.66h3.824v5.583h-3.824v7.593Zm0-13.177v-7.054c0-1.907.1-3.868.248-5.927h-.2c-1.025,2.059-1.863,3.922-2.936,5.927l-4.262,6.958v.1Z" transform="translate(197.002 -136.4)" fill="#23517a"/>
          </g>
        </g>
      </g>
    </g>
  </g>
</svg>
