<svg xmlns="http://www.w3.org/2000/svg" width="109.577" height="125.81" viewBox="0 0 109.577 125.81">
  <g id="Group_8337" data-name="Group 8337" transform="translate(145.509 51)">
    <circle id="Ellipse_36" data-name="Ellipse 36" cx="2" cy="2" r="2" transform="translate(-47.721 -43.095)" fill="#48e686"/>
    <circle id="Ellipse_37" data-name="Ellipse 37" cx="2" cy="2" r="2" transform="translate(-72.721 -43.095)" fill="#48e686"/>
    <circle id="Ellipse_38" data-name="Ellipse 38" cx="2" cy="2" r="2" transform="translate(-104.721 62.905)" fill="#48e686"/>
    <circle id="Ellipse_39" data-name="Ellipse 39" cx="2" cy="2" r="2" transform="translate(-80.721 62.905)" fill="#48e686"/>
    <circle id="Ellipse_40" data-name="Ellipse 40" cx="2" cy="2" r="2" transform="translate(-88.721 62.905)" fill="#48e686"/>
    <path id="Path_32097" data-name="Path 32097" d="M-99.283-6.032A14.213,14.213,0,0,0-93.013-17.8a14.233,14.233,0,0,0-14.2-14.2,14.232,14.232,0,0,0-14.2,14.2,14.208,14.208,0,0,0,6.27,11.763,20.338,20.338,0,0,0-12.358,18.675h4.058A16.2,16.2,0,0,1-107.217-3.591,16.2,16.2,0,0,1-90.983,12.642h4.058A20.338,20.338,0,0,0-99.283-6.032Zm-7.934-1.617A10.116,10.116,0,0,1-117.363-17.8a10.116,10.116,0,0,1,10.146-10.146A10.116,10.116,0,0,1-97.071-17.8,10.116,10.116,0,0,1-107.217-7.65Z" transform="translate(18.526 19.555)" fill="#56d087"/>
    <circle id="Ellipse_41" data-name="Ellipse 41" cx="2" cy="2" r="2" transform="translate(-72.721 62.905)" fill="#48e686"/>
    <path id="Path_32098" data-name="Path 32098" d="M-42.02-51h-97.4a6.119,6.119,0,0,0-6.088,6.088V68.723a6.119,6.119,0,0,0,6.088,6.088h97.4a6.12,6.12,0,0,0,6.088-6.088V-44.912A6.12,6.12,0,0,0-42.02-51ZM-131.3,70.752h-8.117a2,2,0,0,1-2.029-2.029V-44.912a2,2,0,0,1,2.029-2.029h8.117Zm91.314-2.029a2,2,0,0,1-2.029,2.029h-85.226V66.694a2.033,2.033,0,0,0,2.029-2.029,2.033,2.033,0,0,0-2.029-2.029V-38.825a2.033,2.033,0,0,0,2.029-2.029,2.033,2.033,0,0,0-2.029-2.029v-4.058H-42.02a2,2,0,0,1,2.029,2.029Z" transform="translate(0)" fill="#56d087"/>
    <circle id="Ellipse_42" data-name="Ellipse 42" cx="2" cy="2" r="2" transform="translate(-96.721 62.905)" fill="#48e686"/>
    <circle id="Ellipse_43" data-name="Ellipse 43" cx="2" cy="2" r="2" transform="translate(-120.721 -43.095)" fill="#48e686"/>
    <circle id="Ellipse_44" data-name="Ellipse 44" cx="2" cy="2" r="2" transform="translate(-80.721 -43.095)" fill="#48e686"/>
    <circle id="Ellipse_45" data-name="Ellipse 45" cx="2" cy="2" r="2" transform="translate(-96.721 -43.095)" fill="#48e686"/>
    <circle id="Ellipse_46" data-name="Ellipse 46" cx="2" cy="2" r="2" transform="translate(-88.721 -43.095)" fill="#48e686"/>
    <circle id="Ellipse_47" data-name="Ellipse 47" cx="2" cy="2" r="2" transform="translate(-120.721 62.905)" fill="#48e686"/>
    <circle id="Ellipse_48" data-name="Ellipse 48" cx="2" cy="2" r="2" transform="translate(-112.721 -43.095)" fill="#48e686"/>
    <circle id="Ellipse_49" data-name="Ellipse 49" cx="2" cy="2" r="2" transform="translate(-104.721 -43.095)" fill="#48e686"/>
    <circle id="Ellipse_50" data-name="Ellipse 50" cx="2" cy="2" r="2" transform="translate(-112.721 62.905)" fill="#48e686"/>
    <circle id="Ellipse_51" data-name="Ellipse 51" cx="2" cy="2" r="2" transform="translate(-47.721 -2.095)" fill="#48e686"/>
    <circle id="Ellipse_52" data-name="Ellipse 52" cx="2" cy="2" r="2" transform="translate(-47.721 5.905)" fill="#48e686"/>
    <circle id="Ellipse_53" data-name="Ellipse 53" cx="2" cy="2" r="2" transform="translate(-47.721 13.905)" fill="#48e686"/>
    <circle id="Ellipse_54" data-name="Ellipse 54" cx="2" cy="2" r="2" transform="translate(-47.721 -10.095)" fill="#48e686"/>
    <circle id="Ellipse_55" data-name="Ellipse 55" cx="2" cy="2" r="2" transform="translate(-47.721 -18.095)" fill="#48e686"/>
    <circle id="Ellipse_56" data-name="Ellipse 56" cx="2" cy="2" r="2" transform="translate(-47.721 -35.095)" fill="#48e686"/>
    <ellipse id="Ellipse_57" data-name="Ellipse 57" cx="2" cy="2.5" rx="2" ry="2.5" transform="translate(-47.721 -27.095)" fill="#48e686"/>
    <circle id="Ellipse_58" data-name="Ellipse 58" cx="2" cy="2" r="2" transform="translate(-47.721 21.905)" fill="#48e686"/>
    <circle id="Ellipse_59" data-name="Ellipse 59" cx="2" cy="2" r="2" transform="translate(-47.721 54.905)" fill="#48e686"/>
    <circle id="Ellipse_60" data-name="Ellipse 60" cx="2" cy="2" r="2" transform="translate(-47.721 62.905)" fill="#48e686"/>
    <ellipse id="Ellipse_61" data-name="Ellipse 61" cx="2.5" cy="2" rx="2.5" ry="2" transform="translate(-56.721 62.905)" fill="#48e686"/>
    <ellipse id="Ellipse_62" data-name="Ellipse 62" cx="2.5" cy="2" rx="2.5" ry="2" transform="translate(-56.721 -43.095)" fill="#48e686"/>
    <circle id="Ellipse_63" data-name="Ellipse 63" cx="2" cy="2" r="2" transform="translate(-64.721 -43.095)" fill="#48e686"/>
    <circle id="Ellipse_64" data-name="Ellipse 64" cx="2" cy="2" r="2" transform="translate(-64.721 62.905)" fill="#48e686"/>
    <circle id="Ellipse_65" data-name="Ellipse 65" cx="2" cy="2" r="2" transform="translate(-47.721 29.905)" fill="#48e686"/>
    <circle id="Ellipse_66" data-name="Ellipse 66" cx="2" cy="2" r="2" transform="translate(-47.721 37.905)" fill="#48e686"/>
    <ellipse id="Ellipse_67" data-name="Ellipse 67" cx="2" cy="2.5" rx="2" ry="2.5" transform="translate(-47.721 45.905)" fill="#48e686"/>
  </g>
</svg>
