<svg xmlns="http://www.w3.org/2000/svg" width="179.292" height="164.339" viewBox="0 0 179.292 164.339">
  <g id="Group_7354" data-name="Group 7354" transform="translate(-582.376 -1898.5)" opacity="0.73">
    <path id="Shape" d="M98.917,366.448a5.5,5.5,0,0,1-2.19-.457l-18.694-7.75A5.566,5.566,0,0,1,75,355.194a5.408,5.408,0,0,1,.067-4.237l4.452-10.763A60.894,60.894,0,0,1,67.9,328.569l-10.859,4.485a5.458,5.458,0,0,1-4.226-.007,5.522,5.522,0,0,1-2.988-2.973l-7.742-18.781a5.5,5.5,0,0,1,2.9-7.188l10.588-4.364a2.989,2.989,0,1,1,2.276,5.528l-10.073,4.148,7.4,17.944,12.613-5.208a2.99,2.99,0,0,1,3.586,1.046,55.005,55.005,0,0,0,13.521,13.52,2.986,2.986,0,0,1,1.047,3.591l-5.205,12.585,17.93,7.433,5.21-12.592a2.988,2.988,0,0,1,3.282-1.8,53.992,53.992,0,0,0,19.086-.026,3,3,0,0,1,3.29,1.794l5.238,12.614,17.906-7.424-5.209-12.616a2.989,2.989,0,0,1,1.059-3.595,54.412,54.412,0,0,0,13.512-13.487,2.983,2.983,0,0,1,3.586-1.042l12.609,5.217,7.44-17.941-7.193-2.994a2.986,2.986,0,0,1,1.03-5.782,3.136,3.136,0,0,1,1.178.229l7.679,3.2a5.463,5.463,0,0,1,3,3.014,5.549,5.549,0,0,1-.01,4.223l-7.773,18.747a5.514,5.514,0,0,1-7.29,2.973l-10.787-4.464a60.247,60.247,0,0,1-11.616,11.6l4.479,10.85a5.35,5.35,0,0,1,.038,4.17,5.563,5.563,0,0,1-3.042,3.052l-18.723,7.763A5.5,5.5,0,0,1,129.42,363l-4.5-10.834a60.043,60.043,0,0,1-16.422.023l-4.479,10.824a5.528,5.528,0,0,1-5.1,3.431ZM98.5,360.74v0Zm.557-.252h0Zm53.813-7.139.008.022Zm-72.3-.051,0,.009Zm72.523-.576h0Zm-72.782,0h0Zm97.756-24.935,0,0ZM54.75,327.535h0Zm123.87,0,0,0Zm7.465-17.93h0ZM47.6,309v0Z" transform="translate(555.309 1696.39)" fill="#07df5c"/>
    <path id="Shape-2" data-name="Shape" d="M177.96,335.754a45.049,45.049,0,0,1-41.843-28.813,2.988,2.988,0,1,1,5.582-2.133,38.813,38.813,0,0,0,72.522,0,2.988,2.988,0,1,1,5.582,2.133A45.049,45.049,0,0,1,177.96,335.754Z" transform="translate(494.055 1694.215)" fill="#07df5c"/>
    <path id="Shape-3" data-name="Shape" d="M150.891,125.911H38.843a38.843,38.843,0,0,1,0-77.687c.254,0,.506,0,.756.007a44.815,44.815,0,0,1,82.156,0,34.413,34.413,0,0,1,30.9,20.962,28.385,28.385,0,0,1-1.767,56.717ZM38.843,54.2a32.867,32.867,0,0,0,0,65.735H150.891a22.41,22.41,0,1,0,0-44.819h-.3a2.988,2.988,0,0,1-2.817-1.993A28.351,28.351,0,0,0,120.838,54.2c-.292,0-.582,0-.872.022a3.015,3.015,0,0,1-3-1.915,38.837,38.837,0,0,0-72.607.082,2.982,2.982,0,0,1-3.094,1.917,24.073,24.073,0,0,0-2.42-.105Z" transform="translate(582.376 1877.167)" fill="#1bc25d"/>
    <path id="Shape-4" data-name="Shape" d="M42.411,181.354a2.979,2.979,0,0,1-2.323-1.108,26.814,26.814,0,0,1,9.47-41.125,2.988,2.988,0,1,1,2.553,5.4,21.006,21.006,0,0,0-12,18.9,20.536,20.536,0,0,0,4.622,13.059,2.988,2.988,0,0,1-2.32,4.869Z" transform="translate(560.195 1800.809)" fill="#1cc35e"/>
    <path id="Shape-5" data-name="Shape" d="M139.523,191.164a2.991,2.991,0,0,1-2.835-3.935l11.952-35.855a2.988,2.988,0,0,1,5.67,1.891L142.357,189.12a2.988,2.988,0,0,1-2.834,2.044Z" transform="translate(493.648 1793.988)" fill="#07df5c"/>
    <path id="Shape-6" data-name="Shape" d="M185.6,191.164a2.988,2.988,0,0,1-2.834-2.044l-11.952-35.855a2.988,2.988,0,0,1,5.67-1.891l11.952,35.855a2.991,2.991,0,0,1-2.835,3.935Z" transform="translate(471.471 1793.988)" fill="#07df5c"/>
    <path id="Shape-7" data-name="Shape" d="M167.7,215.043H153.772a2.988,2.988,0,1,1,0-5.976H167.7a2.988,2.988,0,0,1,0,5.976Z" transform="translate(484.39 1755.168)" fill="#07df5c"/>
    <path id="Shape-8" data-name="Shape" d="M233.388,191.164a2.988,2.988,0,0,1-2.988-2.988V152.321a2.988,2.988,0,1,1,5.976,0v35.855A2.988,2.988,0,0,1,233.388,191.164Z" transform="translate(432.65 1793.986)" fill="#07df5c"/>
    <path id="Shape-9" data-name="Shape" d="M245.34,173.237H233.388a2.988,2.988,0,0,1-2.988-2.988V152.321a2.988,2.988,0,0,1,2.988-2.988H245.34a11.952,11.952,0,0,1,0,23.9Zm-8.964-5.976h8.964a5.976,5.976,0,0,0,0-11.952h-8.964Z" transform="translate(432.65 1793.986)" fill="#07df5c"/>
    <path id="Shape-10" data-name="Shape" d="M335.788,191.164a2.988,2.988,0,0,1-2.988-2.988V152.321a2.988,2.988,0,1,1,5.976,0v35.855A2.988,2.988,0,0,1,335.788,191.164Z" transform="translate(366.106 1793.986)" fill="#07df5c"/>
    <path id="Shape-11" data-name="Shape" d="M328.116,155.309H310.188a2.988,2.988,0,0,1,0-5.976h17.928a2.988,2.988,0,1,1,0,5.976Z" transform="translate(382.742 1793.986)" fill="#07df5c"/>
    <path id="Shape-12" data-name="Shape" d="M328.116,257.709H310.188a2.988,2.988,0,0,1,0-5.976h17.928a2.988,2.988,0,1,1,0,5.976Z" transform="translate(382.742 1727.442)" fill="#07df5c"/>
    <path id="Shape-13" data-name="Shape" d="M156.589,79.372a2.991,2.991,0,0,1-2.834-3.935c6.581-19.742,23.053-19.97,23.75-19.97a2.988,2.988,0,1,1,.014,5.976c-.579.009-12.928.381-18.1,15.885a2.988,2.988,0,0,1-2.835,2.044Z" transform="translate(482.559 1854.985)" fill="#1cc35e"/>
  </g>
</svg>
