<svg xmlns="http://www.w3.org/2000/svg" width="174" height="117.743" viewBox="0 0 174 117.743">
  <g id="Group_7359" data-name="Group 7359" transform="translate(0 -82.769)" opacity="0.73">
    <path id="Path_30052" data-name="Path 30052" d="M133.873,135.373c0-31.776-33.5-52.6-66.937-52.6C33.362,82.769,0,103.7,0,135.373c0,11.985,5.249,23.7,14.78,33a1.436,1.436,0,0,1,.364,1.409C12.151,180.75,5.06,190.657,2.151,194.407a3.784,3.784,0,0,0,2.987,6.1h.1c14.237-.355,30.74-4.373,40.94-14.4a1.456,1.456,0,0,1,1.369-.37,84.134,84.134,0,0,0,19.392,2.24c33.565,0,66.937-20.918,66.937-52.605Zm-85.153,45.4a6.527,6.527,0,0,0-6.119,1.7C32.4,192.5,15.743,194.783,7.858,195.29c3.6-4.972,9.459-14.1,12.2-24.165a6.535,6.535,0,0,0-1.723-6.4C9.677,156.275,5.1,146.126,5.1,135.373c0-26.2,27.741-47.507,61.839-47.507s61.839,21.311,61.839,47.507S101.035,182.88,66.937,182.88a79.061,79.061,0,0,1-18.216-2.1Z" fill="#1cc35e"/>
    <path id="Path_30053" data-name="Path 30053" d="M366.132,217.915c14.861-7.51,23.733-20.31,23.733-34.241,0-19.687-17.8-36.51-42.317-40a2.549,2.549,0,0,0-.718,5.047c21.982,3.129,37.937,17.829,37.937,34.954,0,11.967-7.826,23.066-20.935,29.691a6.3,6.3,0,0,0-3.321,6.926,53.082,53.082,0,0,0,6,14.914c-15.052-2.505-20.757-9.728-22.561-12.854a6.289,6.289,0,0,0-5.444-3.126H338.3a60.654,60.654,0,0,1-8.411-.583,2.549,2.549,0,0,0-.709,5.048,65.805,65.805,0,0,0,9.12.632h.211a1.178,1.178,0,0,1,1.024.576c6.9,11.964,22.772,15.018,29.274,15.776A3.7,3.7,0,0,0,372.359,235a50.627,50.627,0,0,1-6.862-15.773,1.2,1.2,0,0,1,.634-1.316Z" transform="translate(-215.865 -40.19)" fill="#07df5c"/>
    <path id="Path_30054" data-name="Path 30054" d="M63.1,210.733a8.834,8.834,0,1,0,8.834,8.834A8.844,8.844,0,0,0,63.1,210.733Zm0,12.57a3.736,3.736,0,1,1,3.736-3.736A3.74,3.74,0,0,1,63.1,223.3Z" transform="translate(-35.823 -84.476)" fill="#07df5c"/>
    <path id="Path_30055" data-name="Path 30055" d="M137.252,210.733a8.834,8.834,0,1,0,8.834,8.834A8.844,8.844,0,0,0,137.252,210.733Zm0,12.57a3.736,3.736,0,1,1,3.736-3.736A3.74,3.74,0,0,1,137.252,223.3Z" transform="translate(-84.776 -84.476)" fill="#07df5c"/>
    <path id="Path_30056" data-name="Path 30056" d="M211.4,210.733a8.834,8.834,0,1,0,8.834,8.834A8.844,8.844,0,0,0,211.4,210.733Zm0,12.57a3.736,3.736,0,1,1,3.736-3.736A3.74,3.74,0,0,1,211.4,223.3Z" transform="translate(-133.728 -84.476)" fill="#07df5c"/>
    <path id="Path_30057" data-name="Path 30057" d="M285.558,210.733a8.834,8.834,0,1,0,8.834,8.834A8.844,8.844,0,0,0,285.558,210.733Zm0,12.57a3.736,3.736,0,1,1,3.736-3.736A3.74,3.74,0,0,1,285.558,223.3Z" transform="translate(-182.681 -84.476)" fill="#07df5c"/>
  </g>
</svg>
