<svg id="Group_6790" data-name="Group 6790" xmlns="http://www.w3.org/2000/svg" xmlns:xlink="http://www.w3.org/1999/xlink" width="1277.252" height="556.06" viewBox="0 0 1277.252 556.06">
  <defs>
    <radialGradient id="radial-gradient" cx="0.493" cy="0.493" r="0.493" gradientTransform="matrix(1.03, -0.029, 0.03, 1, -0.198, 0.034)" gradientUnits="objectBoundingBox">
      <stop offset="0" stop-color="#05910e"/>
      <stop offset="1" stop-color="#005354"/>
    </radialGradient>
  </defs>
  <g id="Group_6782" data-name="Group 6782" transform="translate(1182.779 458.739)" style="mix-blend-mode: color-burn;isolation: isolate">
    <path id="Path_24783" data-name="Path 24783" d="M332.553,329.541a47.167,47.167,0,0,1-68.634,42.923L238.1,381.5l7.766-25.3a46.24,46.24,0,0,1-7.455-23.926,47.092,47.092,0,0,1,94.142-2.734Zm-48.208-37.9a39.475,39.475,0,0,0-38.435,40.417,38.857,38.857,0,0,0,8.206,22.809L249.6,369.587l15.063-5.27a39.39,39.39,0,1,0,19.684-72.677Zm25.221,49.335c-.306-.469-1.083-.732-2.249-1.271s-6.931-3.149-8-3.495-1.844-.519-2.575.648-2.877,3.811-3.53,4.592-1.315.9-2.486.361a31.6,31.6,0,0,1-9.447-5.408,34.773,34.773,0,0,1-6.649-7.746c-.7-1.122-.119-1.76.435-2.348.509-.529,1.117-1.369,1.676-2.052a7.846,7.846,0,0,0,1.1-1.948,2.08,2.08,0,0,0-.153-2c-.307-.564-2.778-6.13-3.806-8.4s-1.982-2.145-2.659-2.126a16.556,16.556,0,0,0-1.913.257,6.508,6.508,0,0,0-3.327,1.528,12.81,12.81,0,0,0-3.757,9.664c.163,5.636,4.449,10.96,5.052,11.7s8.344,12.472,20.209,16.714,11.825,2.714,13.931,2.462,6.748-2.966,7.633-5.67.816-4.993.519-5.462Zm0,0" transform="translate(-238.1 -284.18)" fill-rule="evenodd" fill="url(#radial-gradient)"/>
  </g>
  <g id="Group_6789" data-name="Group 6789" transform="translate(85.38 410.502)" style="mix-blend-mode: color-burn;isolation: isolate">
    <path id="Path_24783-2" data-name="Path 24783" d="M332.553,329.541a47.167,47.167,0,0,1-68.634,42.923L238.1,381.5l7.766-25.3a46.24,46.24,0,0,1-7.455-23.926,47.092,47.092,0,0,1,94.142-2.734Zm-48.208-37.9a39.475,39.475,0,0,0-38.435,40.417,38.857,38.857,0,0,0,8.206,22.809L249.6,369.587l15.063-5.27a39.39,39.39,0,1,0,19.684-72.677Zm25.221,49.335c-.306-.469-1.083-.732-2.249-1.271s-6.931-3.149-8-3.495-1.844-.519-2.575.648-2.877,3.811-3.53,4.592-1.315.9-2.486.361a31.6,31.6,0,0,1-9.447-5.408,34.773,34.773,0,0,1-6.649-7.746c-.7-1.122-.119-1.76.435-2.348.509-.529,1.117-1.369,1.676-2.052a7.846,7.846,0,0,0,1.1-1.948,2.08,2.08,0,0,0-.153-2c-.307-.564-2.778-6.13-3.806-8.4s-1.982-2.145-2.659-2.126a16.556,16.556,0,0,0-1.913.257,6.508,6.508,0,0,0-3.327,1.528,12.81,12.81,0,0,0-3.757,9.664c.163,5.636,4.449,10.96,5.052,11.7s8.344,12.472,20.209,16.714,11.825,2.714,13.931,2.462,6.748-2.966,7.633-5.67.816-4.993.519-5.462Zm0,0" transform="translate(-238.1 -284.18)" fill-rule="evenodd" fill="url(#radial-gradient)"/>
  </g>
  <g id="Group_6783" data-name="Group 6783" transform="translate(962.335 72.356)" style="mix-blend-mode: color-burn;isolation: isolate">
    <path id="Path_24783-3" data-name="Path 24783" d="M300.723,314.254a31.272,31.272,0,0,1-45.5,28.458L238.1,348.7l5.149-16.774a30.656,30.656,0,0,1-4.943-15.863,31.222,31.222,0,0,1,62.416-1.812Zm-31.962-25.128a26.172,26.172,0,0,0-25.482,26.8,25.761,25.761,0,0,0,5.441,15.122l-3,9.76,9.986-3.494a26.116,26.116,0,1,0,13.051-48.185Zm16.722,32.709c-.2-.311-.718-.485-1.491-.842s-4.6-2.088-5.3-2.317-1.223-.344-1.707.429-1.908,2.527-2.34,3.045-.872.6-1.649.239a20.949,20.949,0,0,1-6.263-3.586,23.054,23.054,0,0,1-4.408-5.136c-.465-.744-.079-1.167.288-1.557.338-.351.741-.908,1.111-1.36a5.2,5.2,0,0,0,.728-1.291,1.379,1.379,0,0,0-.1-1.327c-.2-.374-1.842-4.064-2.524-5.568s-1.314-1.422-1.763-1.409a10.983,10.983,0,0,0-1.268.17,4.315,4.315,0,0,0-2.206,1.013,8.493,8.493,0,0,0-2.491,6.407c.108,3.736,2.95,7.266,3.35,7.758s5.532,8.269,13.4,11.081,7.84,1.8,9.236,1.632,4.474-1.966,5.06-3.759a6.339,6.339,0,0,0,.344-3.622Zm0,0" transform="translate(-238.1 -284.18)" fill-rule="evenodd" fill="url(#radial-gradient)"/>
  </g>
  <g id="Group_6784" data-name="Group 6784" transform="translate(325.602)" style="mix-blend-mode: color-burn;isolation: isolate">
    <path id="Path_24783-4" data-name="Path 24783" d="M300.723,314.254a31.272,31.272,0,0,1-45.5,28.458L238.1,348.7l5.149-16.774a30.656,30.656,0,0,1-4.943-15.863,31.222,31.222,0,0,1,62.416-1.812Zm-31.962-25.128a26.172,26.172,0,0,0-25.482,26.8,25.761,25.761,0,0,0,5.441,15.122l-3,9.76,9.986-3.494a26.116,26.116,0,1,0,13.051-48.185Zm16.722,32.709c-.2-.311-.718-.485-1.491-.842s-4.6-2.088-5.3-2.317-1.223-.344-1.707.429-1.908,2.527-2.34,3.045-.872.6-1.649.239a20.949,20.949,0,0,1-6.263-3.586,23.054,23.054,0,0,1-4.408-5.136c-.465-.744-.079-1.167.288-1.557.338-.351.741-.908,1.111-1.36a5.2,5.2,0,0,0,.728-1.291,1.379,1.379,0,0,0-.1-1.327c-.2-.374-1.842-4.064-2.524-5.568s-1.314-1.422-1.763-1.409a10.983,10.983,0,0,0-1.268.17,4.315,4.315,0,0,0-2.206,1.013,8.493,8.493,0,0,0-2.491,6.407c.108,3.736,2.95,7.266,3.35,7.758s5.532,8.269,13.4,11.081,7.84,1.8,9.236,1.632,4.474-1.966,5.06-3.759a6.339,6.339,0,0,0,.344-3.622Zm0,0" transform="translate(-238.1 -284.18)" fill-rule="evenodd" fill="url(#radial-gradient)"/>
  </g>
  <g id="Group_6785" data-name="Group 6785" transform="translate(0 156.771)" style="mix-blend-mode: color-burn;isolation: isolate">
    <path id="Path_24783-5" data-name="Path 24783" d="M300.723,314.254a31.272,31.272,0,0,1-45.5,28.458L238.1,348.7l5.149-16.774a30.656,30.656,0,0,1-4.943-15.863,31.222,31.222,0,0,1,62.416-1.812Zm-31.962-25.128a26.172,26.172,0,0,0-25.482,26.8,25.761,25.761,0,0,0,5.441,15.122l-3,9.76,9.986-3.494a26.116,26.116,0,1,0,13.051-48.185Zm16.722,32.709c-.2-.311-.718-.485-1.491-.842s-4.6-2.088-5.3-2.317-1.223-.344-1.707.429-1.908,2.527-2.34,3.045-.872.6-1.649.239a20.949,20.949,0,0,1-6.263-3.586,23.054,23.054,0,0,1-4.408-5.136c-.465-.744-.079-1.167.288-1.557.338-.351.741-.908,1.111-1.36a5.2,5.2,0,0,0,.728-1.291,1.379,1.379,0,0,0-.1-1.327c-.2-.374-1.842-4.064-2.524-5.568s-1.314-1.422-1.763-1.409a10.983,10.983,0,0,0-1.268.17,4.315,4.315,0,0,0-2.206,1.013,8.493,8.493,0,0,0-2.491,6.407c.108,3.736,2.95,7.266,3.35,7.758s5.532,8.269,13.4,11.081,7.84,1.8,9.236,1.632,4.474-1.966,5.06-3.759a6.339,6.339,0,0,0,.344-3.622Zm0,0" transform="translate(-238.1 -284.18)" fill-rule="evenodd" fill="url(#radial-gradient)"/>
  </g>
  <g id="Group_6786" data-name="Group 6786" transform="translate(615.011 189.941)" style="mix-blend-mode: color-burn;isolation: isolate">
    <path id="Path_24783-6" data-name="Path 24783" d="M339.333,332.8a50.553,50.553,0,0,1-73.561,46L238.1,388.487l8.323-27.116a49.557,49.557,0,0,1-7.99-25.643,50.473,50.473,0,0,1,100.9-2.93Zm-51.668-40.622a42.309,42.309,0,0,0-41.194,43.318,41.646,41.646,0,0,0,8.8,24.446l-4.843,15.778,16.144-5.648a42.217,42.217,0,1,0,21.1-77.894ZM314.7,345.052c-.328-.5-1.16-.784-2.411-1.362s-7.428-3.375-8.573-3.746-1.976-.556-2.76.694-3.084,4.085-3.783,4.922-1.409.964-2.665.387a33.869,33.869,0,0,1-10.125-5.8,37.26,37.26,0,0,1-7.126-8.3c-.752-1.2-.127-1.886.466-2.516.546-.567,1.2-1.468,1.8-2.2a8.412,8.412,0,0,0,1.176-2.087,2.229,2.229,0,0,0-.164-2.146c-.329-.6-2.977-6.57-4.08-9s-2.125-2.3-2.85-2.278a17.761,17.761,0,0,0-2.051.276,6.975,6.975,0,0,0-3.566,1.637,13.729,13.729,0,0,0-4.027,10.358c.175,6.04,4.768,11.746,5.415,12.541s8.943,13.367,21.659,17.913,12.673,2.909,14.93,2.638,7.232-3.179,8.18-6.077.874-5.351.556-5.854Zm0,0" transform="translate(-238.1 -284.18)" fill-rule="evenodd" fill="url(#radial-gradient)"/>
  </g>
  <g id="Group_6787" data-name="Group 6787" transform="translate(768.099 85.429)" style="mix-blend-mode: color-burn;isolation: isolate">
    <path id="Path_24783-7" data-name="Path 24783" d="M308.117,317.806a34.964,34.964,0,0,1-50.878,31.819l-19.139,6.7,5.757-18.755a34.275,34.275,0,0,1-5.526-17.736,34.909,34.909,0,0,1,69.786-2.027Zm-35.736-28.1a29.262,29.262,0,0,0-28.491,29.961,28.8,28.8,0,0,0,6.083,16.908l-3.349,10.913,11.166-3.906a29.2,29.2,0,1,0,14.592-53.875Zm18.7,36.571c-.227-.348-.8-.542-1.667-.942s-5.138-2.334-5.929-2.591-1.367-.385-1.909.48-2.133,2.825-2.617,3.4-.975.667-1.843.268a23.426,23.426,0,0,1-7-4.009,25.773,25.773,0,0,1-4.929-5.742c-.52-.832-.088-1.3.322-1.741.377-.392.828-1.015,1.242-1.521a5.814,5.814,0,0,0,.813-1.444,1.542,1.542,0,0,0-.114-1.484c-.227-.418-2.059-4.544-2.822-6.226s-1.47-1.59-1.971-1.576a12.289,12.289,0,0,0-1.418.191,4.825,4.825,0,0,0-2.466,1.132,9.5,9.5,0,0,0-2.785,7.164c.121,4.177,3.3,8.124,3.745,8.674s6.186,9.245,14.98,12.39,8.765,2.012,10.326,1.825,5-2.2,5.658-4.2a7.087,7.087,0,0,0,.385-4.049Zm0,0" transform="translate(-238.1 -284.18)" fill-rule="evenodd" fill="url(#radial-gradient)"/>
  </g>
  <g id="Group_6788" data-name="Group 6788" transform="translate(927.282 259.084)" style="mix-blend-mode: color-burn;isolation: isolate">
    <path id="Path_24783-8" data-name="Path 24783" d="M308.117,317.806a34.964,34.964,0,0,1-50.878,31.819l-19.139,6.7,5.757-18.755a34.275,34.275,0,0,1-5.526-17.736,34.909,34.909,0,0,1,69.786-2.027Zm-35.736-28.1a29.262,29.262,0,0,0-28.491,29.961,28.8,28.8,0,0,0,6.083,16.908l-3.349,10.913,11.166-3.906a29.2,29.2,0,1,0,14.592-53.875Zm18.7,36.571c-.227-.348-.8-.542-1.667-.942s-5.138-2.334-5.929-2.591-1.367-.385-1.909.48-2.133,2.825-2.617,3.4-.975.667-1.843.268a23.426,23.426,0,0,1-7-4.009,25.773,25.773,0,0,1-4.929-5.742c-.52-.832-.088-1.3.322-1.741.377-.392.828-1.015,1.242-1.521a5.814,5.814,0,0,0,.813-1.444,1.542,1.542,0,0,0-.114-1.484c-.227-.418-2.059-4.544-2.822-6.226s-1.47-1.59-1.971-1.576a12.289,12.289,0,0,0-1.418.191,4.825,4.825,0,0,0-2.466,1.132,9.5,9.5,0,0,0-2.785,7.164c.121,4.177,3.3,8.124,3.745,8.674s6.186,9.245,14.98,12.39,8.765,2.012,10.326,1.825,5-2.2,5.658-4.2a7.087,7.087,0,0,0,.385-4.049Zm0,0" transform="translate(-238.1 -284.18)" fill-rule="evenodd" fill="url(#radial-gradient)"/>
  </g>
</svg>
