<svg xmlns="http://www.w3.org/2000/svg" width="181.501" height="181.503" viewBox="0 0 181.501 181.503">
  <g id="Group_7350" data-name="Group 7350" transform="translate(143.672 120.183)">
    <g id="surface1" transform="translate(-107.133 -83.46)">
      <path id="Path_30023" data-name="Path 30023" d="M-76.331-104.62c-7.714,1.539-14.573,10.489-18.877,23.311h18.877Zm4.719,0v23.311h18.877C-57.038-94.131-63.9-103.081-71.612-104.62Zm-16.739,1.706a54.418,54.418,0,0,0-30.324,21.605H-100.3C-97.429-90.49-93.309-97.956-88.351-102.914Zm28.76,0c4.958,4.948,9.08,12.424,11.945,21.605h18.379A54.418,54.418,0,0,0-59.591-102.914ZM-121.644-76.5a53.9,53.9,0,0,0-6.543,23.552h23.568A106.874,106.874,0,0,1-101.631-76.5Zm24.989,0A99.793,99.793,0,0,0-99.89-52.946h23.559V-76.5Zm25.043,0v23.552H-48.05A99.913,99.913,0,0,0-51.288-76.5Zm25.3,0a106.47,106.47,0,0,1,2.978,23.552h23.568A53.8,53.8,0,0,0-26.3-76.5Zm-81.878,28.271a53.9,53.9,0,0,0,6.543,23.549h20.012a106.326,106.326,0,0,1-2.978-23.549Zm28.3,0a99.79,99.79,0,0,0,3.235,23.549h20.324V-48.226Zm28.278,0v23.549h20.324A99.91,99.91,0,0,0-48.05-48.226Zm28.288,0a106.876,106.876,0,0,1-2.985,23.549H-26.3a53.8,53.8,0,0,0,6.536-23.549Zm-75.351,28.361A54.418,54.418,0,0,0-88.351,1.74c-4.958-4.948-9.078-12.424-11.945-21.605Zm23.467,0c4.3,12.822,11.164,21.773,18.877,23.3v-23.3Zm23.6,0v23.3c7.716-1.529,14.573-10.479,18.877-23.3Zm23.965,0C-50.511-10.684-54.634-3.218-59.591,1.74A54.418,54.418,0,0,0-29.267-19.865Z" transform="translate(128.187 104.62)" fill="#a4b6c1"/>
    </g>
    <g id="surface1-2" data-name="surface1" transform="translate(-143.672 -120.183)">
      <path id="Path_30024" data-name="Path 30024" d="M-64.713-120.183l-5.047,12.605A79.494,79.494,0,0,0-96.285-96.586l-12.468-5.361-16.673,16.673,5.349,12.48a79.5,79.5,0,0,0-10.98,26.525l-12.615,5.045v23.585l12.605,5.047a79.508,79.508,0,0,0,10.989,26.523L-125.436,26.4l16.671,16.671,12.48-5.347A79.517,79.517,0,0,0-69.76,48.7l5.047,12.617h23.585l5.045-12.605A79.539,79.539,0,0,0-9.558,37.726L2.913,43.085,19.584,26.411l-5.349-12.48a79.44,79.44,0,0,0,10.98-26.523l12.615-5.047V-41.224L25.223-46.269A79.421,79.421,0,0,0,14.235-72.794l5.359-12.471L2.922-101.936l-12.48,5.349a79.472,79.472,0,0,0-26.525-10.98l-5.045-12.617Zm3.617,5.34h16.348l4.715,11.791,1.428.271A74.2,74.2,0,0,1-11.174-91.426l1.211.812L1.7-95.607,13.265-84.045l-5,11.657.814,1.211A74.2,74.2,0,0,1,20.429-43.746l.281,1.428,11.782,4.712v16.35L20.7-16.544l-.271,1.428A74.213,74.213,0,0,1,9.074,12.317L8.26,13.525l5,11.666L1.693,36.756l-11.657-5-1.211.812A74.2,74.2,0,0,1-38.605,43.918l-1.428.283-4.715,11.782H-61.1l-4.712-11.794-1.428-.271A74.213,74.213,0,0,1-94.669,32.563l-1.208-.812-11.669,4.993-11.562-11.562,5-11.657-.814-1.208a74.209,74.209,0,0,1-11.352-27.433l-.283-1.428-11.782-4.712v-16.35l11.794-4.712.271-1.428a74.2,74.2,0,0,1,11.352-27.431l.814-1.211L-119.1-84.054l11.562-11.562,11.657,5,1.208-.812A74.213,74.213,0,0,1-67.235-102.78l1.428-.281Zm8.174,5.338a2.674,2.674,0,0,0-2.669,2.669,2.674,2.674,0,0,0,2.669,2.669,2.674,2.674,0,0,0,2.669-2.669A2.674,2.674,0,0,0-52.922-109.505Zm0,16.015a2.674,2.674,0,0,0-2.669,2.669,2.674,2.674,0,0,0,2.669,2.669,2.674,2.674,0,0,0,2.669-2.669A2.674,2.674,0,0,0-52.922-93.49ZM-64.89-92.313a3.14,3.14,0,0,0-.533.052,2.681,2.681,0,0,0-2.1,3.138,2.667,2.667,0,0,0,3.138,2.1,2.677,2.677,0,0,0,2.107-3.138A2.692,2.692,0,0,0-64.89-92.313Zm24.021,0a2.672,2.672,0,0,0-2.69,2.147,2.66,2.66,0,0,0,2.1,3.138,2.662,2.662,0,0,0,3.138-2.1,2.663,2.663,0,0,0-2.1-3.138A2.234,2.234,0,0,0-40.868-92.313Zm11.5,3.492A2.675,2.675,0,0,0-31.9-87.183a2.763,2.763,0,0,0,.009,2.055,2.681,2.681,0,0,0,1.451,1.437A2.652,2.652,0,0,0-26.97-85.14a2.653,2.653,0,0,0-1.439-3.483A2.5,2.5,0,0,0-29.367-88.821Zm-47.033,0a2.54,2.54,0,0,0-1.034.21,2.648,2.648,0,0,0-1.439,3.483A2.658,2.658,0,0,0-75.4-83.691a2.617,2.617,0,0,0,1.449-1.437,2.71,2.71,0,0,0,.009-2.043A2.7,2.7,0,0,0-76.4-88.821Zm-31.218,1.992a2.715,2.715,0,0,0-1.928.772,2.7,2.7,0,0,0,0,3.785,2.7,2.7,0,0,0,3.785,0,2.7,2.7,0,0,0,0-3.785A2.656,2.656,0,0,0-107.619-86.829Zm109.467,0a2.711,2.711,0,0,0-1.928.772,2.7,2.7,0,0,0,0,3.785,2.7,2.7,0,0,0,3.783,0,2.7,2.7,0,0,0,0-3.785A2.651,2.651,0,0,0,1.849-86.829ZM-87-83.148a2.582,2.582,0,0,0-1.51.448,2.661,2.661,0,0,0-.741,3.7,2.669,2.669,0,0,0,3.7.739,2.635,2.635,0,0,0,1.135-1.7,2.689,2.689,0,0,0-.406-2.013A2.648,2.648,0,0,0-87-83.148Zm68.23,0a2.647,2.647,0,0,0-2.261,1.177,2.667,2.667,0,0,0,.729,3.7,2.669,2.669,0,0,0,3.7-.729,2.663,2.663,0,0,0-.741-3.7A2.68,2.68,0,0,0-18.765-83.148Zm-77.529,7.634a2.6,2.6,0,0,0-1.918.79,2.655,2.655,0,0,0,0,3.764,2.655,2.655,0,0,0,3.764,0,2.655,2.655,0,0,0,0-3.764A2.66,2.66,0,0,0-96.295-75.514Zm86.819,0a2.694,2.694,0,0,0-1.918.79,2.659,2.659,0,0,0,0,3.764,2.658,2.658,0,0,0,3.766,0,2.659,2.659,0,0,0,0-3.764A2.626,2.626,0,0,0-9.475-75.514Zm7.634,9.3a2.72,2.72,0,0,0-1.522.458,2.667,2.667,0,0,0-.732,3.7,2.669,2.669,0,0,0,3.7.729,2.666,2.666,0,0,0,.729-3.7A2.646,2.646,0,0,0-1.842-66.215Zm-102.074,0a2.665,2.665,0,0,0-2.263,1.2,2.649,2.649,0,0,0,.741,3.691,2.655,2.655,0,0,0,3.691-.729,2.662,2.662,0,0,0,.406-2,2.608,2.608,0,0,0-1.135-1.7A2.623,2.623,0,0,0-103.916-66.215Zm-5.673,10.623a2.648,2.648,0,0,0-2.513,1.638,2.659,2.659,0,0,0,1.439,3.492,2.661,2.661,0,0,0,3.483-1.449,2.653,2.653,0,0,0-1.439-3.483A2.553,2.553,0,0,0-109.589-55.592Zm113.4,0a2.567,2.567,0,0,0-1.034.2,2.653,2.653,0,0,0-1.439,3.483,2.661,2.661,0,0,0,3.483,1.449,2.659,2.659,0,0,0,1.439-3.492A2.645,2.645,0,0,0,3.81-55.592ZM-113.06-44.07a2.653,2.653,0,0,0-2.69,2.138,2.672,2.672,0,0,0,2.1,3.148,2.678,2.678,0,0,0,3.138-2.1,2.68,2.68,0,0,0-.4-2,2.676,2.676,0,0,0-1.7-1.135A2.061,2.061,0,0,0-113.06-44.07ZM7.3-44.07a2.242,2.242,0,0,0-.531.042,2.66,2.66,0,0,0-1.7,1.135,2.717,2.717,0,0,0-.4,2,2.643,2.643,0,0,0,1.137,1.7,2.649,2.649,0,0,0,2,.406,2.726,2.726,0,0,0,1.7-1.135,2.7,2.7,0,0,0,.406-2.013A2.669,2.669,0,0,0,7.3-44.07ZM-130.326-32.1a2.676,2.676,0,0,0-2.669,2.671,2.674,2.674,0,0,0,2.669,2.669,2.674,2.674,0,0,0,2.669-2.669A2.676,2.676,0,0,0-130.326-32.1Zm16.015,0a2.676,2.676,0,0,0-2.669,2.671,2.674,2.674,0,0,0,2.669,2.669,2.674,2.674,0,0,0,2.669-2.669A2.676,2.676,0,0,0-114.311-32.1ZM8.47-32.1A2.676,2.676,0,0,0,5.8-29.43,2.674,2.674,0,0,0,8.47-26.761a2.674,2.674,0,0,0,2.669-2.669A2.676,2.676,0,0,0,8.47-32.1Zm16.015,0a2.676,2.676,0,0,0-2.669,2.671,2.674,2.674,0,0,0,2.669,2.669,2.674,2.674,0,0,0,2.669-2.669A2.676,2.676,0,0,0,24.485-32.1ZM7.354-20.131a2.668,2.668,0,0,0-2.681,2.159,2.67,2.67,0,0,0,2.1,3.138,2.68,2.68,0,0,0,3.138-2.1,2.674,2.674,0,0,0-2.1-3.148C7.668-20.1,7.509-20.121,7.354-20.131Zm-120.466.009a2.962,2.962,0,0,0-.533.042,2.736,2.736,0,0,0-1.708,1.137,2.721,2.721,0,0,0-.4,2.01,2.663,2.663,0,0,0,1.137,1.7,2.708,2.708,0,0,0,2,.4,2.643,2.643,0,0,0,1.7-1.137,2.6,2.6,0,0,0,.4-2A2.67,2.67,0,0,0-113.112-20.121Zm3.5,11.51a2.7,2.7,0,0,0-1.041.2A2.681,2.681,0,0,0-112.1-4.918a2.663,2.663,0,0,0,3.495,1.437,2.663,2.663,0,0,0,1.437-3.481A2.671,2.671,0,0,0-109.61-8.611Zm113.46,0A2.659,2.659,0,0,0,1.337-6.961,2.646,2.646,0,0,0,2.776-3.481a2.667,2.667,0,0,0,2.043,0A2.615,2.615,0,0,0,6.259-4.918,2.662,2.662,0,0,0,4.819-8.413,2.8,2.8,0,0,0,3.85-8.611ZM-1.832,2.005A2.651,2.651,0,0,0-4.1,3.183a2.681,2.681,0,0,0,.732,3.712,2.743,2.743,0,0,0,2.01.4,2.691,2.691,0,0,0,1.7-1.147,2.675,2.675,0,0,0-.741-3.7A2.6,2.6,0,0,0-1.832,2.005Zm-102.093,0a2.551,2.551,0,0,0-1.513.448,2.66,2.66,0,0,0-.741,3.7,2.667,2.667,0,0,0,3.7.741,2.632,2.632,0,0,0,1.135-1.7,2.689,2.689,0,0,0-.406-2.013A2.641,2.641,0,0,0-103.926,2.005Zm7.631,9.3a2.643,2.643,0,0,0-1.918.781,2.669,2.669,0,0,0,0,3.775,2.655,2.655,0,0,0,3.764,0,2.669,2.669,0,0,0,0-3.775A2.661,2.661,0,0,0-96.295,11.3Zm86.819.009A2.6,2.6,0,0,0-11.4,12.1a2.655,2.655,0,0,0,0,3.764,2.669,2.669,0,0,0,3.775,0,2.659,2.659,0,0,0,0-3.764A2.629,2.629,0,0,0-9.475,11.314Zm-9.3,7.622a2.723,2.723,0,0,0-1.522.46,2.654,2.654,0,0,0-.729,3.691,2.66,2.66,0,0,0,3.7.741,2.669,2.669,0,0,0,.731-3.7A2.666,2.666,0,0,0-18.775,18.936Zm-68.2.012a2.68,2.68,0,0,0-2.272,1.177,2.68,2.68,0,0,0,.741,3.7,2.66,2.66,0,0,0,3.7-.741,2.654,2.654,0,0,0-.729-3.691A2.544,2.544,0,0,0-86.974,18.948Zm-20.645,3.681a2.665,2.665,0,0,0-1.928.781,2.68,2.68,0,0,0,0,3.785,2.691,2.691,0,0,0,3.775,0,2.685,2.685,0,0,0,0-3.785A2.7,2.7,0,0,0-107.619,22.629Zm109.467,0a2.76,2.76,0,0,0-1.928.781,2.7,2.7,0,0,0,0,3.785,2.7,2.7,0,0,0,3.783,0,2.7,2.7,0,0,0,0-3.785A2.691,2.691,0,0,0,1.849,22.629ZM-76.36,24.618a2.648,2.648,0,0,0-2.513,1.638,2.659,2.659,0,0,0,1.439,3.492A2.675,2.675,0,0,0-73.941,28.3a2.665,2.665,0,0,0-1.449-3.483A2.553,2.553,0,0,0-76.36,24.618Zm46.962,0a2.544,2.544,0,0,0-1.043.2A2.668,2.668,0,0,0-31.892,28.3,2.674,2.674,0,0,0-28.4,29.748a2.675,2.675,0,0,0,1.437-3.492A2.66,2.66,0,0,0-29.4,24.618Zm-35.419,3.495a2.69,2.69,0,0,0-2.7,2.147,2.661,2.661,0,0,0,.408,2,2.638,2.638,0,0,0,1.7,1.137,2.663,2.663,0,0,0,3.138-2.1,2.717,2.717,0,0,0-.4-2,2.665,2.665,0,0,0-1.711-1.135A2.121,2.121,0,0,0-64.817,28.113Zm23.887,0a3.118,3.118,0,0,0-.533.052,2.662,2.662,0,0,0-2.1,3.138,2.663,2.663,0,0,0,3.138,2.1,2.663,2.663,0,0,0,2.1-3.138A2.674,2.674,0,0,0-40.93,28.113ZM-52.922,29.29a2.674,2.674,0,0,0-2.669,2.669,2.674,2.674,0,0,0,2.669,2.669,2.674,2.674,0,0,0,2.669-2.669A2.674,2.674,0,0,0-52.922,29.29Zm0,16.015a2.674,2.674,0,0,0-2.669,2.669,2.674,2.674,0,0,0,2.669,2.669,2.674,2.674,0,0,0,2.669-2.669A2.674,2.674,0,0,0-52.922,45.305Z" transform="translate(143.672 120.183)" fill="#143559"/>
    </g>
  </g>
</svg>
