<svg xmlns="http://www.w3.org/2000/svg" width="75.203" height="93.986" viewBox="0 0 75.203 93.986">
  <g id="Group_7391" data-name="Group 7391" transform="translate(-703.398 -625.202)">
    <g id="word" transform="translate(706.203 704)">
      <path id="Path_31488" data-name="Path 31488" d="M927.112,908.7c1.983.536,2.576,1.26,2.574,3.139a8.9,8.9,0,0,1-.257,2.364,2.651,2.651,0,0,1-2.193,1.925,8.545,8.545,0,0,1-1.564.148c-2.7.014-5.4.01-8.108.006-1.794,0-2.558-.757-2.564-2.561q-.014-4.88,0-9.759c0-1.729.8-2.512,2.534-2.515q3.791-.006,7.582,0c3.26,0,4.564,1.218,4.187,5.066C929.187,907.676,928.365,908.338,927.112,908.7Zm-7.349,1.666a11.543,11.543,0,0,0,.026,1.675c.035.226.343.579.539.586,1.267.046,2.539.057,3.8-.015.632-.036.828-.6.832-1.156s-.261-1.048-.836-1.071c-1.432-.058-2.87-.019-4.363-.019Zm.048-3.267a1.5,1.5,0,0,0,.255.051c1.15,0,2.3.015,3.449,0,.829-.01,1.135-.305,1.141-1.045.006-.694-.347-1.029-1.16-1.055-.674-.021-1.35-.008-2.025-.008-1.788,0-1.856.074-1.719,1.868a1.077,1.077,0,0,0,.06.189Z" transform="translate(-857.291 -901.248)" fill="#143559"/>
      <path id="Path_31489" data-name="Path 31489" d="M792.977,901.569h4.616c.015.273.04.537.041.8q.005,3.491,0,6.982c0,.225,0,.45,0,.676a2.693,2.693,0,0,0,4.261,2.339,2.153,2.153,0,0,0,.987-2.059c.008-2.628,0-5.256.006-7.884v-.848h4.676a5.734,5.734,0,0,1,.057.582c0,2.828.022,5.657-.005,8.485-.035,3.653-2.1,5.794-5.766,5.867a24.551,24.551,0,0,1-5.059-.338,4.6,4.6,0,0,1-3.787-4.391C792.886,908.409,792.977,905.03,792.977,901.569Z" transform="translate(-770.143 -901.338)" fill="#143559"/>
      <path id="Path_31490" data-name="Path 31490" d="M847.016,916.328v-3.513c.711,0,1.379.006,2.047,0,2.434-.024,3.374-.955,3.385-3.365.009-2.328,0-4.656,0-6.985v-.855h4.663c.037.076.077.12.077.163-.016,3.278.074,6.562-.088,9.832-.139,2.815-1.63,4.373-4.438,4.684A52.252,52.252,0,0,1,847.016,916.328Z" transform="translate(-808.752 -901.368)" fill="#143559"/>
      <path id="Path_31491" data-name="Path 31491" d="M895.344,916.351h-4.628V901.6h4.628Z" transform="translate(-839.956 -901.358)" fill="#143559"/>
      <path id="Path_31487" data-name="Path 31487" d="M729.1,915.718V906.3l-.2-.078a8.428,8.428,0,0,0-.381.849c-.766,2.351-1.506,4.712-2.284,7.059-.429,1.294-1.186,1.773-2.694,1.8-1.474.029-2.349-.455-2.77-1.694-.8-2.342-1.526-4.706-2.288-7.059-.1-.322-.241-.634-.362-.95l-.193.034v9.385h-4.692c-.013-.282-.035-.525-.035-.769q0-5.631,0-11.263a2.554,2.554,0,0,1,2.626-2.811,14.42,14.42,0,0,1,1.649-.017,3.081,3.081,0,0,1,3.018,2.17c.785,2.266,1.524,4.547,2.3,6.819.156.461.366.9.551,1.355l.229.017a6.94,6.94,0,0,0,.438-.877c.754-2.224,1.511-4.447,2.23-6.683.647-2.014,1.594-2.785,3.7-2.823a7.083,7.083,0,0,1,2,.2,2.193,2.193,0,0,1,1.853,2.452c.021,1.6.007,3.2.007,4.806,0,2.252-.014,4.5.01,6.757.006.543-.141.758-.715.743C731.781,915.694,730.46,915.718,729.1,915.718Z" transform="translate(-713.206 -900.763)" fill="#143559"/>
    </g>
    <g id="mujib" transform="translate(703.398 625.202)">
      <path id="Rectangle_1555" data-name="Rectangle 1555" d="M713.781,731.629h53.5a10.383,10.383,0,0,1,10.383,10.383h0A10.383,10.383,0,0,1,767.282,752.4h-53.5A10.383,10.383,0,0,1,703.4,742.012h0a10.383,10.383,0,0,1,10.383-10.383Z" transform="translate(-703.398 -701.195)" fill="#23517a"/>
      <path id="Rectangle_1556" data-name="Rectangle 1556" d="M831.028,647.342h0a.892.892,0,0,1,.892.892v6a.892.892,0,0,1-.892.892h0a.892.892,0,0,1-.892-.892v-6A.892.892,0,0,1,831.028,647.342Z" transform="translate(-793.894 -641.011)" fill="#23517a"/>
      <path id="Path_24127" data-name="Path 24127" d="M790.615,696.816a28.48,28.48,0,1,0-23.939,28.116l4.3,2.667,7.3,4.528.268-8.587.111-3.536A28.436,28.436,0,0,0,790.615,696.816Z" transform="translate(-725.001 -656)" fill="#143559"/>
      <path id="Rectangle_1557" data-name="Rectangle 1557" d="M761.24,735.287h27.852a9.337,9.337,0,0,1,9.337,9.337h0a9.337,9.337,0,0,1-9.337,9.337H761.24a9.337,9.337,0,0,1-9.337-9.337h0A9.337,9.337,0,0,1,761.24,735.287Z" transform="translate(-738.033 -703.807)" fill="#fff"/>
      <path id="Path_24128" data-name="Path 24128" d="M861.045,754.4a4.224,4.224,0,0,1,4.224,4.224h2.347a6.57,6.57,0,1,0-13.141-.012v.012h2.347A4.225,4.225,0,0,1,861.045,754.4Z" transform="translate(-811.273 -715.776)" fill="#143559"/>
      <path id="Path_24129" data-name="Path 24129" d="M771.875,754.4a4.224,4.224,0,0,1,4.224,4.224h2.347a6.57,6.57,0,1,0-13.141-.012v.012h2.347A4.224,4.224,0,0,1,771.875,754.4Z" transform="translate(-747.602 -715.776)" fill="#143559"/>
      <circle id="Ellipse_648" data-name="Ellipse 648" cx="4.094" cy="4.094" r="4.094" transform="translate(33.04)" fill="#143559"/>
      <path id="Path_24130" data-name="Path 24130" d="M715.912,757.517a11.724,11.724,0,0,1,0-13.944A22.883,22.883,0,0,0,715.912,757.517Z" transform="translate(-710.691 -709.724)" fill="#fff"/>
      <path id="Path_24131" data-name="Path 24131" d="M944.961,757.517a11.729,11.729,0,0,0,0-13.944A22.9,22.9,0,0,1,944.961,757.517Z" transform="translate(-875.884 -709.724)" fill="#fff"/>
      <g id="Group_6159" data-name="Group 6159" transform="translate(34.465 41.843)">
        <path id="Path_24132" data-name="Path 24132" d="M842.526,793.7c.254,0,.5,0,.746-.005a48.242,48.242,0,0,0,16.163-2.506c5.381-1.991,8.338-4.866,9.737-7.518a10.942,10.942,0,0,0-.834-12.144" transform="translate(-837.206 -771.528)" fill="none" stroke="#f8f1f1" stroke-miterlimit="10" stroke-width="2"/>
        <path id="Path_24133" data-name="Path 24133" d="M826.959,843.983c-1.677,0-3.036.636-3.036,1.422s1.359,1.421,3.036,1.421,3.036-.636,3.036-1.421S828.634,843.983,826.959,843.983Z" transform="translate(-823.923 -823.264)" fill="#fff"/>
      </g>
    </g>
  </g>
</svg>
