<svg xmlns="http://www.w3.org/2000/svg" width="154.957" height="136.892" viewBox="0 0 154.957 136.892">
  <g id="Group_7351" data-name="Group 7351" transform="translate(272.433 16.535)">
    <path id="Path_30025" data-name="Path 30025" d="M-122.726-15.156a4.784,4.784,0,0,0-3.684-1.366,5.24,5.24,0,0,0-1.342.268l-137.19,48.674a7.243,7.243,0,0,0-4.831,6.075,7.25,7.25,0,0,0,3.343,7l32.986,20.982,11.272,41.4a4.813,4.813,0,0,0,4.709,3.586h.073a4.829,4.829,0,0,0,4.074-2.293c.1-.122.244-.171.342-.293l16.469-21.812,28.546,18.006a7.275,7.275,0,0,0,3.9,1.147,7.574,7.574,0,0,0,2.513-.439,7.219,7.219,0,0,0,4.44-4.66l35.621-111.3A4.786,4.786,0,0,0-122.726-15.156ZM-263.82,41.374a2.367,2.367,0,0,1-1.1-2.342,2.341,2.341,0,0,1,1.586-2L-135.242-8.423l-96.835,70Zm46.356,65.216-11.3-41.379,86-62.166-66.631,72.511c-.024.024-.024.073-.049.073a2.657,2.657,0,0,0-.342.561c-.024.122-.122.22-.146.366a.085.085,0,0,0-.024.049ZM-210,96.83l3.952-15.761,5.392,3.391Zm52.016-8.905-.049-.049-2.611,8.247c.024,0,.024-.024.049-.024l-1.147,3.538a2.375,2.375,0,0,1-1.488,1.561,2.42,2.42,0,0,1-2.123-.244L-203.825,76.7-128-5.836Z" transform="translate(3.762)" fill="#a4b6c1"/>
    <path id="Path_30026" data-name="Path 30026" d="M-258.571,4.934a2.448,2.448,0,0,0-2.44,1.174l-2.506,4.184a2.422,2.422,0,0,0,.83,3.335,2.445,2.445,0,0,0,1.256.361,2.448,2.448,0,0,0,2.1-1.191l2.506-4.184a2.428,2.428,0,0,0-.839-3.345A2.344,2.344,0,0,0-258.571,4.934Z" transform="translate(12.334 30.877)" fill="#143559"/>
    <path id="Path_30027" data-name="Path 30027" d="M-254.286,7.513a2.429,2.429,0,0,0-2.43,1.161l-2.515,4.184a2.429,2.429,0,0,0,.839,3.345,2.379,2.379,0,0,0,1.249.354,2.45,2.45,0,0,0,2.1-1.193l2.515-4.174a2.457,2.457,0,0,0-.839-3.355A2.554,2.554,0,0,0-254.286,7.513Z" transform="translate(18.504 34.59)" fill="#143559"/>
    <path id="Path_30028" data-name="Path 30028" d="M-250,10.087a2.447,2.447,0,0,0-2.44,1.161l-2.508,4.184a2.436,2.436,0,0,0,.839,3.345,2.379,2.379,0,0,0,1.249.354,2.425,2.425,0,0,0,2.1-1.183l2.515-4.182a2.444,2.444,0,0,0-.837-3.345A2.325,2.325,0,0,0-250,10.087Z" transform="translate(24.674 38.296)" fill="#143559"/>
    <path id="Path_30029" data-name="Path 30029" d="M-234.138,18.813a2.451,2.451,0,0,0-2.44,1.164l-2.515,4.184a2.446,2.446,0,0,0,.837,3.345,2.391,2.391,0,0,0,1.259.351,2.453,2.453,0,0,0,2.1-1.181l2.508-4.184a2.445,2.445,0,0,0-.83-3.355A2.677,2.677,0,0,0-234.138,18.813Z" transform="translate(47.506 50.86)" fill="#143559"/>
    <path id="Path_30030" data-name="Path 30030" d="M-252.893,20.559a2.449,2.449,0,0,0-1.82.446l-6.1,4.44a2.447,2.447,0,0,0-.532,3.413,2.447,2.447,0,0,0,1.971,1,2.468,2.468,0,0,0,1.439-.466l6.1-4.453a2.436,2.436,0,0,0,.534-3.4A2.438,2.438,0,0,0-252.893,20.559Z" transform="translate(15.291 53.366)" fill="#143559"/>
    <path id="Path_30031" data-name="Path 30031" d="M-229.864,21.388a2.442,2.442,0,0,0-2.43,1.161l-2.515,4.184a2.446,2.446,0,0,0,.839,3.345,2.429,2.429,0,0,0,1.256.354,2.423,2.423,0,0,0,2.088-1.193l2.515-4.174a2.426,2.426,0,0,0-.839-3.345A2.344,2.344,0,0,0-229.864,21.388Z" transform="translate(53.676 54.567)" fill="#143559"/>
    <path id="Path_30032" data-name="Path 30032" d="M-225.582,23.96A2.446,2.446,0,0,0-228,25.132l-2.515,4.174a2.434,2.434,0,0,0,.839,3.345,2.41,2.41,0,0,0,1.257.354,2.425,2.425,0,0,0,2.088-1.183l2.506-4.182a2.427,2.427,0,0,0-.839-3.345A2.311,2.311,0,0,0-225.582,23.96Z" transform="translate(59.849 58.275)" fill="#143559"/>
    <path id="Path_30033" data-name="Path 30033" d="M-255.391,25.016a2.406,2.406,0,0,0-1.81.437l-12.228,8.913a2.447,2.447,0,0,0-.534,3.411,2.442,2.442,0,0,0,1.974.991,2.406,2.406,0,0,0,1.43-.456l12.228-8.92a2.437,2.437,0,0,0,.532-3.4A2.4,2.4,0,0,0-255.391,25.016Z" transform="translate(2.884 59.783)" fill="#143559"/>
    <path id="Path_30034" data-name="Path 30034" d="M-233.018,26.668a2.41,2.41,0,0,0-1.81.439l-36.607,26.674a2.441,2.441,0,0,0-.525,3.413,2.4,2.4,0,0,0,1.974,1,2.442,2.442,0,0,0,1.43-.468l36.6-26.674a2.434,2.434,0,0,0,.534-3.413A2.417,2.417,0,0,0-233.018,26.668Z" transform="translate(0 62.162)" fill="#143559"/>
  </g>
</svg>
