<svg xmlns="http://www.w3.org/2000/svg" width="39.147" height="189.454" viewBox="0 0 39.147 189.454">
  <g id="Group_6794" data-name="Group 6794" transform="translate(-3833.031 -850.948)">
    <g id="Group_6791" data-name="Group 6791" transform="translate(3833.031 873.448)">
      <ellipse id="Ellipse_1" data-name="Ellipse 1" cx="5.285" cy="4.829" rx="5.285" ry="4.829" transform="translate(0 157.296)" fill="#707070"/>
      <ellipse id="Ellipse_2" data-name="Ellipse 2" cx="5.285" cy="4.829" rx="5.285" ry="4.829" transform="translate(0 134.825)" fill="#707070"/>
      <ellipse id="Ellipse_3" data-name="Ellipse 3" cx="5.285" cy="4.829" rx="5.285" ry="4.829" transform="translate(0 112.354)" fill="#707070"/>
      <ellipse id="Ellipse_4" data-name="Ellipse 4" cx="5.285" cy="4.829" rx="5.285" ry="4.829" transform="translate(0 89.883)" fill="#707070"/>
      <path id="Path_29745" data-name="Path 29745" d="M3843.6,1024.516a5.306,5.306,0,1,1-5.284-4.829A5.072,5.072,0,0,1,3843.6,1024.516Z" transform="translate(-3833.031 -952.274)" fill="#707070"/>
      <ellipse id="Ellipse_5" data-name="Ellipse 5" cx="5.285" cy="4.829" rx="5.285" ry="4.829" transform="translate(0 44.942)" fill="#707070"/>
      <ellipse id="Ellipse_6" data-name="Ellipse 6" cx="5.285" cy="4.829" rx="5.285" ry="4.829" transform="translate(0 22.471)" fill="#707070"/>
      <ellipse id="Ellipse_7" data-name="Ellipse 7" cx="5.285" cy="4.829" rx="5.285" ry="4.829" transform="translate(0 0)" fill="#707070"/>
    </g>
    <g id="Group_6792" data-name="Group 6792" transform="translate(3861.609 850.948)">
      <ellipse id="Ellipse_8" data-name="Ellipse 8" cx="5.285" cy="4.829" rx="5.285" ry="4.829" transform="translate(0 157.296)" fill="#707070"/>
      <ellipse id="Ellipse_9" data-name="Ellipse 9" cx="5.285" cy="4.829" rx="5.285" ry="4.829" transform="translate(0 134.825)" fill="#707070"/>
      <ellipse id="Ellipse_10" data-name="Ellipse 10" cx="5.285" cy="4.829" rx="5.285" ry="4.829" transform="translate(0 112.354)" fill="#707070"/>
      <ellipse id="Ellipse_11" data-name="Ellipse 11" cx="5.285" cy="4.829" rx="5.285" ry="4.829" transform="translate(0 89.883)" fill="#707070"/>
      <ellipse id="Ellipse_12" data-name="Ellipse 12" cx="5.285" cy="4.829" rx="5.285" ry="4.829" transform="translate(0 67.413)" fill="#707070"/>
      <ellipse id="Ellipse_13" data-name="Ellipse 13" cx="5.285" cy="4.829" rx="5.285" ry="4.829" transform="translate(0 44.942)" fill="#707070"/>
      <ellipse id="Ellipse_14" data-name="Ellipse 14" cx="5.285" cy="4.829" rx="5.285" ry="4.829" transform="translate(0 22.471)" fill="#707070"/>
      <ellipse id="Ellipse_15" data-name="Ellipse 15" cx="5.285" cy="4.829" rx="5.285" ry="4.829" fill="#707070"/>
    </g>
  </g>
</svg>
