<svg xmlns="http://www.w3.org/2000/svg" width="186.18" height="148.319" viewBox="0 0 186.18 148.319">
  <g id="Group_7348" data-name="Group 7348" transform="translate(-421.007 -52.483)">
    <path id="Path_30012" data-name="Path 30012" d="M472.021,52.5a2.416,2.416,0,0,0-1.8.789l-48.139,49.738a5.979,5.979,0,0,0,0,6.842L470.221,159.6c2.165,2.533,5.849-.066,5.849-3.421V140.128l-22.945-24.473a13.582,13.582,0,0,1,0-18.421L476.07,72.76V56.708C476.07,54.175,473.933,52.3,472.021,52.5Z" fill="#143559"/>
    <path id="Path_30012-2" data-name="Path 30012" d="M509.558,54.224a2.407,2.407,0,0,0-1.8.789l-48.139,49.738a5.979,5.979,0,0,0,0,6.842l48.139,49.736c2.165,2.533,5.849-.066,5.849-3.421V133.434c87.112,0,93.579,67.368,93.579,67.368s.732-117.894-93.579-117.894V58.435C513.607,55.9,511.47,54.027,509.558,54.224Z" fill="#a4b6c1"/>
  </g>
</svg>
