<svg xmlns="http://www.w3.org/2000/svg" width="174.001" height="174.001" viewBox="0 0 174.001 174.001">
  <g id="Group_7358" data-name="Group 7358" transform="translate(0)" opacity="0.73">
    <path id="Path_30045" data-name="Path 30045" d="M46.087,188.127H46.1a5.1,5.1,0,0,0,5.1-5.087,62.469,62.469,0,0,1,18.415-44.318,5.1,5.1,0,1,0-7.209-7.209A72.6,72.6,0,0,0,41,183.018a5.1,5.1,0,0,0,5.087,5.109Z" transform="translate(-27.066 -85.833)" fill="#1cc35e"/>
    <path id="Path_30046" data-name="Path 30046" d="M402.329,183.04a5.1,5.1,0,0,0,5.1,5.087h.011a5.1,5.1,0,0,0,5.087-5.109,72.6,72.6,0,0,0-21.4-51.505,5.1,5.1,0,1,0-7.209,7.209,62.47,62.47,0,0,1,18.415,44.318Z" transform="translate(-252.456 -85.833)" fill="#1cc35e"/>
    <path id="Path_30047" data-name="Path 30047" d="M232.268,467.52a62.837,62.837,0,0,1-25.157,0,5.1,5.1,0,1,0-2.03,9.991,72.955,72.955,0,0,0,29.218,0,5.1,5.1,0,1,0-2.03-9.991Z" transform="translate(-132.689 -308.567)" fill="#1cc35e"/>
    <path id="Path_30048" data-name="Path 30048" d="M227.809,54.019l-3.157-12.662A18.662,18.662,0,0,0,214.134,28.8a18.691,18.691,0,1,0-31.415,0A18.66,18.66,0,0,0,172.2,41.357l-3.157,12.662a8.5,8.5,0,0,0,8.244,10.551h42.277a8.5,8.5,0,0,0,8.244-10.551ZM198.427,10.2a8.5,8.5,0,1,1-8.5,8.5A8.506,8.506,0,0,1,198.427,10.2Zm-18.964,44.18,2.631-10.552a8.483,8.483,0,0,1,8.244-6.441h16.178a8.483,8.483,0,0,1,8.244,6.441l2.631,10.552Z" transform="translate(-111.426)" fill="#07df5c"/>
    <path id="Path_30049" data-name="Path 30049" d="M55.864,363.357A18.661,18.661,0,0,0,45.346,350.8a18.692,18.692,0,1,0-31.415,0A18.661,18.661,0,0,0,3.414,363.358L.256,376.02A8.5,8.5,0,0,0,8.5,386.571H50.777a8.5,8.5,0,0,0,8.244-10.551ZM29.639,332.2a8.5,8.5,0,1,1-8.5,8.5A8.506,8.506,0,0,1,29.639,332.2Zm-18.964,44.18,2.631-10.552a8.482,8.482,0,0,1,8.244-6.441H37.728a8.483,8.483,0,0,1,8.244,6.441L48.6,376.375Z" transform="translate(0 -212.57)" fill="#07df5c"/>
    <path id="Path_30050" data-name="Path 30050" d="M396.6,376.018l-3.157-12.662A18.663,18.663,0,0,0,382.922,350.8a18.692,18.692,0,1,0-31.415,0,18.66,18.66,0,0,0-10.518,12.554l-3.157,12.662a8.5,8.5,0,0,0,8.244,10.551h42.277a8.5,8.5,0,0,0,8.244-10.551Zm-29.382-43.824a8.5,8.5,0,1,1-8.5,8.5A8.506,8.506,0,0,1,367.215,332.195Zm-18.964,44.18,2.631-10.552a8.483,8.483,0,0,1,8.244-6.441H375.3a8.483,8.483,0,0,1,8.244,6.441l2.631,10.552Z" transform="translate(-222.852 -212.569)" fill="#07df5c"/>
    <path id="Path_30051" data-name="Path 30051" d="M226.478,254.916l-21.257,21.257-5.519-5.519a5.1,5.1,0,1,0-7.209,7.209l9.124,9.123a5.1,5.1,0,0,0,7.209,0l24.861-24.861a5.1,5.1,0,0,0-7.209-7.209Z" transform="translate(-126.09 -167.298)" fill="#1cc35e"/>
  </g>
</svg>
